  0
SECTION
  2
HEADER
  9
$ACADVER
  1
AC1032
  9
$ACADMAINTVER
 90
       55
  9
$DWGCODEPAGE
  3
ANSI_1252
  9
$LASTSAVEDBY
  1
cipulot
  9
$REQUIREDVERSIONS
160
                 0
  9
$INSBASE
 10
0.0
 20
0.0
 30
0.0
  9
$EXTMIN
 10
1.000000000000000E+20
 20
1.000000000000000E+20
 30
1.000000000000000E+20
  9
$EXTMAX
 10
-1.000000000000000E+20
 20
-1.000000000000000E+20
 30
-1.000000000000000E+20
  9
$LIMMIN
 10
0.0
 20
0.0
  9
$LIMMAX
 10
12.0
 20
9.0
  9
$ORTHOMODE
 70
     0
  9
$REGENMODE
 70
     1
  9
$FILLMODE
 70
     1
  9
$QTEXTMODE
 70
     0
  9
$MIRRTEXT
 70
     1
  9
$LTSCALE
 40
1.0
  9
$ATTMODE
 70
     1
  9
$TEXTSIZE
 40
0.2
  9
$TRACEWID
 40
0.05
  9
$TEXTSTYLE
  7
Standard
  9
$CLAYER
  8
0
  9
$CELTYPE
  6
ByBlock
  9
$CECOLOR
 62
   256
  9
$CELTSCALE
 40
1.0
  9
$DISPSILH
 70
     0
  9
$DIMSCALE
 40
1.0
  9
$DIMASZ
 40
0.18
  9
$DIMEXO
 40
0.0625
  9
$DIMDLI
 40
0.38
  9
$DIMRND
 40
0.0
  9
$DIMDLE
 40
0.0
  9
$DIMEXE
 40
0.18
  9
$DIMTP
 40
0.0
  9
$DIMTM
 40
0.0
  9
$DIMTXT
 40
0.18
  9
$DIMCEN
 40
0.09
  9
$DIMTSZ
 40
0.0
  9
$DIMTOL
 70
     0
  9
$DIMLIM
 70
     0
  9
$DIMTIH
 70
     1
  9
$DIMTOH
 70
     1
  9
$DIMSE1
 70
     0
  9
$DIMSE2
 70
     0
  9
$DIMTAD
 70
     0
  9
$DIMZIN
 70
     0
  9
$DIMBLK
  1

  9
$DIMASO
 70
     1
  9
$DIMSHO
 70
     1
  9
$DIMPOST
  1

  9
$DIMAPOST
  1

  9
$DIMALT
 70
     0
  9
$DIMALTD
 70
     2
  9
$DIMALTF
 40
25.4
  9
$DIMLFAC
 40
1.0
  9
$DIMTOFL
 70
     0
  9
$DIMTVP
 40
0.0
  9
$DIMTIX
 70
     0
  9
$DIMSOXD
 70
     0
  9
$DIMSAH
 70
     0
  9
$DIMBLK1
  1

  9
$DIMBLK2
  1

  9
$DIMSTYLE
  2
ISO-25
  9
$DIMCLRD
 70
     0
  9
$DIMCLRE
 70
     0
  9
$DIMCLRT
 70
     0
  9
$DIMTFAC
 40
1.0
  9
$DIMGAP
 40
0.09
  9
$DIMJUST
 70
     0
  9
$DIMSD1
 70
     0
  9
$DIMSD2
 70
     0
  9
$DIMTOLJ
 70
     1
  9
$DIMTZIN
 70
     0
  9
$DIMALTZ
 70
     0
  9
$DIMALTTZ
 70
     0
  9
$DIMUPT
 70
     0
  9
$DIMDEC
 70
     4
  9
$DIMTDEC
 70
     4
  9
$DIMALTU
 70
     2
  9
$DIMALTTD
 70
     2
  9
$DIMTXSTY
  7
Standard
  9
$DIMAUNIT
 70
     0
  9
$DIMADEC
 70
     0
  9
$DIMALTRND
 40
0.0
  9
$DIMAZIN
 70
     0
  9
$DIMDSEP
 70
    46
  9
$DIMATFIT
 70
     3
  9
$DIMFRAC
 70
     0
  9
$DIMLDRBLK
  1

  9
$DIMLUNIT
 70
     2
  9
$DIMLWD
 70
    -2
  9
$DIMLWE
 70
    -2
  9
$DIMTMOVE
 70
     2
  9
$DIMFXL
 40
1.0
  9
$DIMFXLON
 70
     0
  9
$DIMJOGANG
 40
0.7853981633974483
  9
$DIMTFILL
 70
     0
  9
$DIMTFILLCLR
 70
     0
  9
$DIMARCSYM
 70
     0
  9
$DIMLTYPE
  6

  9
$DIMLTEX1
  6

  9
$DIMLTEX2
  6

  9
$DIMTXTDIRECTION
 70
     0
  9
$LUNITS
 70
     2
  9
$LUPREC
 70
     4
  9
$SKETCHINC
 40
0.1
  9
$FILLETRAD
 40
0.0
  9
$AUNITS
 70
     0
  9
$AUPREC
 70
     0
  9
$MENU
  1
.
  9
$ELEVATION
 40
0.0
  9
$PELEVATION
 40
0.0
  9
$THICKNESS
 40
0.0
  9
$LIMCHECK
 70
     0
  9
$CHAMFERA
 40
0.0
  9
$CHAMFERB
 40
0.0
  9
$CHAMFERC
 40
0.0
  9
$CHAMFERD
 40
0.0
  9
$SKPOLY
 70
     0
  9
$TDCREATE
 40
2460951.930196482
  9
$TDUCREATE
 40
2460951.555196482
  9
$TDUPDATE
 40
2460951.93117353
  9
$TDUUPDATE
 40
2460951.55617353
  9
$TDINDWG
 40
0.0000000116
  9
$TDUSRTIMER
 40
0.0000000116
  9
$USRTIMER
 70
     1
  9
$ANGBASE
 50
0.0
  9
$ANGDIR
 70
     1
  9
$PDMODE
 70
     0
  9
$PDSIZE
 40
0.0
  9
$PLINEWID
 40
0.0
  9
$SPLFRAME
 70
     0
  9
$SPLINETYPE
 70
     6
  9
$SPLINESEGS
 70
     8
  9
$HANDSEED
  5
7EB
  9
$SURFTAB1
 70
     6
  9
$SURFTAB2
 70
     6
  9
$SURFTYPE
 70
     6
  9
$SURFU
 70
     6
  9
$SURFV
 70
     6
  9
$UCSBASE
  2

  9
$UCSNAME
  2

  9
$UCSORG
 10
0.0
 20
0.0
 30
0.0
  9
$UCSXDIR
 10
1.0
 20
0.0
 30
0.0
  9
$UCSYDIR
 10
0.0
 20
1.0
 30
0.0
  9
$UCSORTHOREF
  2

  9
$UCSORTHOVIEW
 70
     0
  9
$UCSORGTOP
 10
0.0
 20
0.0
 30
0.0
  9
$UCSORGBOTTOM
 10
0.0
 20
0.0
 30
0.0
  9
$UCSORGLEFT
 10
0.0
 20
0.0
 30
0.0
  9
$UCSORGRIGHT
 10
0.0
 20
0.0
 30
0.0
  9
$UCSORGFRONT
 10
0.0
 20
0.0
 30
0.0
  9
$UCSORGBACK
 10
0.0
 20
0.0
 30
0.0
  9
$PUCSBASE
  2

  9
$PUCSNAME
  2

  9
$PUCSORG
 10
0.0
 20
0.0
 30
0.0
  9
$PUCSXDIR
 10
1.0
 20
0.0
 30
0.0
  9
$PUCSYDIR
 10
0.0
 20
1.0
 30
0.0
  9
$PUCSORTHOREF
  2

  9
$PUCSORTHOVIEW
 70
     0
  9
$PUCSORGTOP
 10
0.0
 20
0.0
 30
0.0
  9
$PUCSORGBOTTOM
 10
0.0
 20
0.0
 30
0.0
  9
$PUCSORGLEFT
 10
0.0
 20
0.0
 30
0.0
  9
$PUCSORGRIGHT
 10
0.0
 20
0.0
 30
0.0
  9
$PUCSORGFRONT
 10
0.0
 20
0.0
 30
0.0
  9
$PUCSORGBACK
 10
0.0
 20
0.0
 30
0.0
  9
$USERI1
 70
     0
  9
$USERI2
 70
     0
  9
$USERI3
 70
     0
  9
$USERI4
 70
     0
  9
$USERI5
 70
     0
  9
$USERR1
 40
0.0
  9
$USERR2
 40
0.0
  9
$USERR3
 40
0.0
  9
$USERR4
 40
0.0
  9
$USERR5
 40
0.0
  9
$WORLDVIEW
 70
     1
  9
$SHADEDGE
 70
     3
  9
$SHADEDIF
 70
    70
  9
$TILEMODE
 70
     1
  9
$MAXACTVP
 70
    64
  9
$PINSBASE
 10
0.0
 20
0.0
 30
0.0
  9
$PLIMCHECK
 70
     0
  9
$PEXTMIN
 10
1.000000000000000E+20
 20
1.000000000000000E+20
 30
1.000000000000000E+20
  9
$PEXTMAX
 10
-1.000000000000000E+20
 20
-1.000000000000000E+20
 30
-1.000000000000000E+20
  9
$PLIMMIN
 10
0.0
 20
0.0
  9
$PLIMMAX
 10
12.0
 20
9.0
  9
$UNITMODE
 70
     0
  9
$VISRETAIN
 70
     1
  9
$PLINEGEN
 70
     0
  9
$PSLTSCALE
 70
     1
  9
$TREEDEPTH
 70
  3020
  9
$CMLSTYLE
  2
Standard
  9
$CMLJUST
 70
     0
  9
$CMLSCALE
 40
1.0
  9
$PROXYGRAPHICS
 70
     1
  9
$MEASUREMENT
 70
     1
  9
$CELWEIGHT
370
    -1
  9
$ENDCAPS
280
     0
  9
$JOINSTYLE
280
     0
  9
$LWDISPLAY
290
     0
  9
$INSUNITS
 70
     0
  9
$HYPERLINKBASE
  1

  9
$STYLESHEET
  1

  9
$XEDIT
290
     1
  9
$CEPSNTYPE
380
     0
  9
$PSTYLEMODE
290
     1
  9
$FINGERPRINTGUID
  2
{3518d15b-5718-d94a-97c3-5e6cf165da06}
  9
$VERSIONGUID
  2
{F484DD89-DBCC-41F6-BD0A-CCBD81FC92CB}
  9
$EXTNAMES
290
     1
  9
$PSVPSCALE
 40
0.0
  9
$OLESTARTUP
290
     0
  9
$SORTENTS
280
   127
  9
$INDEXCTL
280
     0
  9
$HIDETEXT
280
     1
  9
$XCLIPFRAME
280
     2
  9
$HALOGAP
280
     0
  9
$OBSCOLOR
 70
   257
  9
$OBSLTYPE
280
     0
  9
$INTERSECTIONDISPLAY
280
     0
  9
$INTERSECTIONCOLOR
 70
   257
  9
$DIMASSOC
280
     2
  9
$PROJECTNAME
  1

  9
$CAMERADISPLAY
290
     0
  9
$LENSLENGTH
 40
50.0
  9
$CAMERAHEIGHT
 40
0.0
  9
$STEPSPERSEC
 40
2.0
  9
$STEPSIZE
 40
6.0
  9
$3DDWFPREC
 40
2.0
  9
$PSOLWIDTH
 40
0.25
  9
$PSOLHEIGHT
 40
4.0
  9
$LOFTANG1
 40
1.570796326794897
  9
$LOFTANG2
 40
1.570796326794897
  9
$LOFTMAG1
 40
0.0
  9
$LOFTMAG2
 40
0.0
  9
$LOFTPARAM
 70
     7
  9
$LOFTNORMALS
280
     1
  9
$LATITUDE
 40
37.795
  9
$LONGITUDE
 40
-122.394
  9
$NORTHDIRECTION
 40
0.0
  9
$TIMEZONE
 70
 -8000
  9
$LIGHTGLYPHDISPLAY
280
     1
  9
$TILEMODELIGHTSYNCH
280
     1
  9
$CMATERIAL
347
710
  9
$SOLIDHIST
280
     0
  9
$SHOWHIST
280
     1
  9
$DWFFRAME
280
     2
  9
$DGNFRAME
280
     2
  9
$REALWORLDSCALE
290
     1
  9
$INTERFERECOLOR
 62
   256
  9
$CSHADOW
280
     0
  9
$SHADOWPLANELOCATION
 40
0.0
  0
ENDSEC
  0
SECTION
  2
CLASSES
  0
CLASS
  1
ACDBDICTIONARYWDFLT
  2
AcDbDictionaryWithDefault
  3
ObjectDBX Classes
 90
        0
 91
        3
280
     0
281
     0
  0
CLASS
  1
SCALE
  2
AcDbScale
  3
ObjectDBX Classes
 90
     1153
 91
        3
280
     0
281
     0
  0
CLASS
  1
VISUALSTYLE
  2
AcDbVisualStyle
  3
ObjectDBX Classes
 90
     4095
 91
        3
280
     0
281
     0
  0
CLASS
  1
MATERIAL
  2
AcDbMaterial
  3
ObjectDBX Classes
 90
     1153
 91
        3
280
     0
281
     0
  0
CLASS
  1
TABLESTYLE
  2
AcDbTableStyle
  3
ObjectDBX Classes
 90
     4095
 91
        3
280
     0
281
     0
  0
CLASS
  1
MLEADERSTYLE
  2
AcDbMLeaderStyle
  3
ACDB_MLEADERSTYLE_CLASS
 90
     4095
 91
        3
280
     0
281
     0
  0
CLASS
  1
DICTIONARYVAR
  2
AcDbDictionaryVar
  3
ObjectDBX Classes
 90
        0
 91
        3
280
     0
281
     0
  0
CLASS
  1
CELLSTYLEMAP
  2
AcDbCellStyleMap
  3
ObjectDBX Classes
 90
     1152
 91
        3
280
     0
281
     0
  0
CLASS
  1
SUN
  2
AcDbSun
  3
SCENEOE
 90
     1153
 91
        3
280
     0
281
     0
  0
CLASS
  1
MENTALRAYRENDERSETTINGS
  2
AcDbMentalRayRenderSettings
  3
SCENEOE
 90
     1024
 91
        3
280
     0
281
     0
  0
CLASS
  1
ACDBDETAILVIEWSTYLE
  2
AcDbDetailViewStyle
  3
ObjectDBX Classes
 90
     1025
 91
        3
280
     0
281
     0
  0
CLASS
  1
ACDBSECTIONVIEWSTYLE
  2
AcDbSectionViewStyle
  3
ObjectDBX Classes
 90
     1025
 91
        3
280
     0
281
     0
  0
CLASS
  1
RASTERVARIABLES
  2
AcDbRasterVariables
  3
ISM
 90
        0
 91
        3
280
     0
281
     0
  0
CLASS
  1
LAYOUT
  2
AcDbLayout
  3
ObjectDBX Classes
 90
        0
 91
        1
280
     0
281
     0
  0
CLASS
  1
ACDBPLACEHOLDER
  2
AcDbPlaceHolder
  3
ObjectDBX Classes
 90
        0
 91
        1
280
     0
281
     0
  0
ENDSEC
  0
SECTION
  2
TABLES
  0
TABLE
  2
VPORT
  5
8
330
0
100
AcDbSymbolTable
 70
     1
  0
VPORT
  5
442
330
8
100
AcDbSymbolTableRecord
100
AcDbViewportTableRecord
  2
*Active
 70
     0
 10
0.0
 20
0.0
 11
1.0
 21
1.0
 12
344.1869158878504
 22
148.5
 13
0.0
 23
0.0
 14
10.0
 24
10.0
 15
10.0
 25
10.0
 16
0.0
 26
0.0
 36
1.0
 17
0.0
 27
0.0
 37
0.0
 40
297.0
 41
1.972972972850329
 42
50.0
 43
0.0
 44
0.0
 50
0.0
 51
0.0
 71
     0
 72
   100
 73
     1
 74
     3
 75
     0
 76
     0
 77
     0
 78
     0
281
     0
 65
     1
110
0.0
120
0.0
130
0.0
111
1.0
121
0.0
131
0.0
112
0.0
122
1.0
132
0.0
 79
     0
146
0.0
348
6FB
 60
     3
 61
     5
292
     1
282
     1
141
0.0
142
0.0
 63
   250
  0
ENDTAB
  0
TABLE
  2
LTYPE
  5
5
330
0
100
AcDbSymbolTable
 70
     4
  0
LTYPE
  5
14
330
5
100
AcDbSymbolTableRecord
100
AcDbLinetypeTableRecord
  2
ByBlock
 70
     0
  3

 72
    65
 73
     0
 40
0.0
  0
LTYPE
  5
15
330
5
100
AcDbSymbolTableRecord
100
AcDbLinetypeTableRecord
  2
ByLayer
 70
     0
  3

 72
    65
 73
     0
 40
0.0
  0
LTYPE
  5
16
330
5
100
AcDbSymbolTableRecord
100
AcDbLinetypeTableRecord
  2
CONTINUOUS
 70
     0
  3
Solid line
 72
    65
 73
     0
 40
0.0
  0
LTYPE
  5
410
330
5
100
AcDbSymbolTableRecord
100
AcDbLinetypeTableRecord
  2
DASHDOT
 70
     0
  3
Dash Dot ____ _ ____ _
 72
    65
 73
     4
 40
2.0
 49
1.25
 74
     0
 49
-0.25
 74
     0
 49
0.25
 74
     0
 49
-0.25
 74
     0
  0
LTYPE
  5
411
330
5
100
AcDbSymbolTableRecord
100
AcDbLinetypeTableRecord
  2
DASHED
 70
     0
  3
Dashed __ __ __ __ __
 72
    65
 73
     2
 40
0.75
 49
0.5
 74
     0
 49
-0.25
 74
     0
  0
LTYPE
  5
43B
330
5
100
AcDbSymbolTableRecord
100
AcDbLinetypeTableRecord
  2
DOTTED
 70
     0
  3
Dotted .  .  .  .
 72
    65
 73
     2
 40
0.2
 49
0.0
 74
     0
 49
-0.2
 74
     0
  0
ENDTAB
  0
TABLE
  2
LAYER
  5
2
330
0
100
AcDbSymbolTable
 70
     3
  0
LAYER
  5
10
330
2
100
AcDbSymbolTableRecord
100
AcDbLayerTableRecord
  2
0
 70
     0
 62
     7
  6
CONTINUOUS
370
    -3
390
F
347
712
348
0
  0
LAYER
  5
440
330
2
100
AcDbSymbolTableRecord
100
AcDbLayerTableRecord
  2
BLACK
 70
     0
 62
     7
  6
CONTINUOUS
370
    -3
390
F
347
712
348
0
  0
LAYER
  5
722
330
2
100
AcDbSymbolTableRecord
100
AcDbLayerTableRecord
  2
Defpoints
 70
     0
 62
     7
  6
CONTINUOUS
290
     0
370
    -3
390
F
347
712
348
0
  0
ENDTAB
  0
TABLE
  2
STYLE
  5
3
330
0
100
AcDbSymbolTable
 70
     5
  0
STYLE
  5
11
330
3
100
AcDbSymbolTableRecord
100
AcDbTextStyleTableRecord
  2
Standard
 70
     0
 40
0.0
 41
1.0
 50
0.0
 71
     0
 42
0.2
  3
txt
  4

  0
STYLE
  5
43C
330
3
100
AcDbSymbolTableRecord
100
AcDbTextStyleTableRecord
  2
KICAD
 70
     0
 40
0.0
 41
1.0
 50
0.0
 71
     0
 42
1.0
  3
isocp.shx
  4

  0
STYLE
  5
43D
330
3
100
AcDbSymbolTableRecord
100
AcDbTextStyleTableRecord
  2
KICADB
 70
     0
 40
0.0
 41
1.0
 50
0.0
 71
     0
 42
1.0
  3
isocp.shx
  4

  0
STYLE
  5
43E
330
3
100
AcDbSymbolTableRecord
100
AcDbTextStyleTableRecord
  2
KICADI
 70
     0
 40
0.0
 41
1.0
 50
15.0
 71
     0
 42
1.0
  3
isocp.shx
  4

  0
STYLE
  5
43F
330
3
100
AcDbSymbolTableRecord
100
AcDbTextStyleTableRecord
  2
KICADBI
 70
     0
 40
0.0
 41
1.0
 50
15.0
 71
     0
 42
1.0
  3
isocp.shx
  4

  0
ENDTAB
  0
TABLE
  2
VIEW
  5
6
330
0
100
AcDbSymbolTable
 70
     0
  0
ENDTAB
  0
TABLE
  2
UCS
  5
7
330
0
100
AcDbSymbolTable
 70
     0
  0
ENDTAB
  0
TABLE
  2
APPID
  5
9
330
0
100
AcDbSymbolTable
 70
     3
  0
APPID
  5
12
330
9
100
AcDbSymbolTableRecord
100
AcDbRegAppTableRecord
  2
ACAD
 70
     0
  0
APPID
  5
724
330
9
100
AcDbSymbolTableRecord
100
AcDbRegAppTableRecord
  2
HATCHBACKGROUNDCOLOR
 70
     0
  0
APPID
  5
725
330
9
100
AcDbSymbolTableRecord
100
AcDbRegAppTableRecord
  2
EZDXF
 70
     0
  0
ENDTAB
  0
TABLE
  2
DIMSTYLE
  5
A
330
0
100
AcDbSymbolTable
 70
     2
100
AcDbDimStyleTable
  0
DIMSTYLE
105
441
330
A
100
AcDbSymbolTableRecord
100
AcDbDimStyleTableRecord
  2
ISO-25
 70
     0
 41
2.5
 42
0.625
 43
3.75
 44
1.25
 49
2.5
 73
     0
 74
     0
 77
     1
 78
     8
 79
     3
140
2.5
141
2.5
143
0.03937007874016
147
0.625
171
     3
172
     1
178
     0
179
     2
271
     2
272
     2
274
     3
278
    44
283
     0
284
     8
340
11
  0
DIMSTYLE
105
723
330
A
100
AcDbSymbolTableRecord
100
AcDbDimStyleTableRecord
  2
Standard
 70
     0
 41
2.5
 42
0.625
 43
3.75
 44
1.25
 49
2.5
 73
     0
 74
     0
 77
     1
 78
     8
 79
     3
140
2.5
141
2.5
143
0.03937007874
147
0.625
171
     3
172
     1
178
     0
179
     2
271
     2
272
     2
274
     3
278
    44
283
     0
284
     8
340
11
  0
ENDTAB
  0
TABLE
  2
BLOCK_RECORD
  5
1
330
0
100
AcDbSymbolTable
 70
     0
  0
BLOCK_RECORD
  5
1D
330
1
100
AcDbSymbolTableRecord
100
AcDbBlockTableRecord
  2
*Model_Space
340
1E
 70
     0
280
     1
281
     0
  0
BLOCK_RECORD
  5
1B
330
1
100
AcDbSymbolTableRecord
100
AcDbBlockTableRecord
  2
*Paper_Space
340
1C
 70
     0
280
     1
281
     0
  0
ENDTAB
  0
ENDSEC
  0
SECTION
  2
BLOCKS
  0
BLOCK
  5
6F2
330
1D
100
AcDbEntity
  8
0
100
AcDbBlockBegin
  2
*Model_Space
 70
     0
 10
0.0
 20
0.0
 30
0.0
  3
*Model_Space
  1

  0
ENDBLK
  5
6F3
330
1D
100
AcDbEntity
  8
0
100
AcDbBlockEnd
  0
BLOCK
  5
6F4
330
1B
100
AcDbEntity
 67
     1
  8
0
100
AcDbBlockBegin
  2
*Paper_Space
 70
     0
 10
0.0
 20
0.0
 30
0.0
  3
*Paper_Space
  1

  0
ENDBLK
  5
6F5
330
1B
100
AcDbEntity
 67
     1
  8
0
100
AcDbBlockEnd
  0
ENDSEC
  0
SECTION
  2
ENTITIES
  0
LINE
  5
443
330
1D
100
AcDbEntity
  8
BLACK
  6
Continuous
100
AcDbLine
 10
113.300006
 20
13.275
 30
0.0
 11
113.3
 21
13.275
 31
0.0
  0
LINE
  5
444
330
1D
100
AcDbEntity
  8
BLACK
  6
Continuous
100
AcDbLine
 10
171.699993
 20
9.525001
 30
0.0
 11
171.699993
 21
9.524994999999999
 31
0.0
  0
LINE
  5
445
330
1D
100
AcDbEntity
  8
BLACK
  6
Continuous
100
AcDbLine
 10
20.562499
 20
-91.725005
 30
0.0
 11
20.562499
 21
-91.724999
 31
0.0
  0
ARC
  5
446
330
1D
100
AcDbEntity
  8
BLACK
100
AcDbCircle
 10
63.42505
 20
-91.974999
 30
0.0
 40
2.249953
100
AcDbArc
 50
269.99872676
 51
0.0
  0
ARC
  5
447
330
1D
100
AcDbEntity
  8
BLACK
100
AcDbCircle
 10
47.37495
 20
10.275001
 30
0.0
 40
0.7500000016666667
100
AcDbArc
 50
180.0
 51
270.00381972
  0
LINE
  5
448
330
1D
100
AcDbEntity
  8
BLACK
  6
Continuous
100
AcDbLine
 10
66.425
 20
-88.224999
 30
0.0
 11
200.275
 21
-88.224999
 31
0.0
  0
LINE
  5
449
330
1D
100
AcDbEntity
  8
BLACK
  6
Continuous
100
AcDbLine
 10
275.224999
 20
-89.474999
 30
0.0
 11
275.224999
 21
-86.474999
 31
0.0
  0
LINE
  5
44A
330
1D
100
AcDbEntity
  8
BLACK
  6
Continuous
100
AcDbLine
 10
48.624992
 20
-86.474998
 30
0.0
 11
48.624997
 21
-91.97500099999999
 31
0.0
  0
LINE
  5
44B
330
1D
100
AcDbEntity
  8
BLACK
  6
Continuous
100
AcDbLine
 10
23.565238
 20
-85.725004
 30
0.0
 11
47.875
 21
-85.725004
 31
0.0
  0
LINE
  5
44C
330
1D
100
AcDbEntity
  8
BLACK
  6
Continuous
100
AcDbLine
 10
5.7625
 20
-86.474999
 30
0.0
 11
5.7625
 21
-89.479742
 31
0.0
  0
LINE
  5
44D
330
1D
100
AcDbEntity
  8
BLACK
  6
Continuous
100
AcDbLine
 10
172.449994
 20
13.274996
 30
0.0
 11
172.45
 21
10.275003
 31
0.0
  0
ARC
  5
44E
330
1D
100
AcDbEntity
  8
BLACK
100
AcDbCircle
 10
23.56255
 20
-86.474999
 30
0.0
 40
0.75005
100
AcDbArc
 50
89.79465144
 51
180.0
  0
LINE
  5
44F
330
1D
100
AcDbEntity
  8
BLACK
  6
Continuous
100
AcDbLine
 10
28.825
 20
9.525001
 30
0.0
 11
-7.274998999999999
 21
9.525001
 31
0.0
  0
LINE
  5
450
330
1D
100
AcDbEntity
  8
BLACK
  6
Continuous
100
AcDbLine
 10
44.375
 20
15.525001
 30
0.0
 11
31.825
 21
15.525001
 31
0.0
  0
LINE
  5
451
330
1D
100
AcDbEntity
  8
BLACK
  6
Continuous
100
AcDbLine
 10
187.25
 20
15.525001
 30
0.0
 11
174.694804
 21
15.525001
 31
0.0
  0
LINE
  5
452
330
1D
100
AcDbEntity
  8
BLACK
  6
Continuous
100
AcDbLine
 10
-7.274998999999999
 20
-85.724999
 30
0.0
 11
5.0125
 21
-85.724999
 31
0.0
  0
LINE
  5
453
330
1D
100
AcDbEntity
  8
BLACK
  6
Continuous
100
AcDbLine
 10
46.625003
 20
10.275001
 30
0.0
 11
46.625003
 21
13.275001
 31
0.0
  0
LINE
  5
454
330
1D
100
AcDbEntity
  8
BLACK
  6
Continuous
100
AcDbLine
 10
113.300006
 20
10.278
 30
0.0
 11
113.300006
 21
13.275
 31
0.0
  0
ARC
  5
455
330
1D
100
AcDbEntity
  8
BLACK
100
AcDbCircle
 10
190.25005
 20
10.275001
 30
0.0
 40
0.7500000016666667
100
AcDbArc
 50
180.0
 51
269.99618028
  0
ARC
  5
456
330
1D
100
AcDbEntity
  8
BLACK
100
AcDbCircle
 10
238.37495
 20
10.275001
 30
0.0
 40
0.750047
100
AcDbArc
 50
270.00381972
 51
0.0
  0
LINE
  5
457
330
1D
100
AcDbEntity
  8
BLACK
  6
Continuous
100
AcDbLine
 10
258.175
 20
-86.474999
 30
0.0
 11
258.175
 21
-89.474999
 31
0.0
  0
ARC
  5
458
330
1D
100
AcDbEntity
  8
BLACK
100
AcDbCircle
 10
293.02495
 20
-83.474999
 30
0.0
 40
2.25005
100
AcDbArc
 50
270.00127324
 51
0.0
  0
ARC
  5
459
330
1D
100
AcDbEntity
  8
BLACK
100
AcDbCircle
 10
20.5625
 20
-89.474999
 30
0.0
 40
2.25
100
AcDbArc
 50
269.99997454
 51
0.0
  0
ARC
  5
45A
330
1D
100
AcDbEntity
  8
BLACK
100
AcDbCircle
 10
218.82495
 20
-86.474999
 30
0.0
 40
0.7499469999999999
100
AcDbArc
 50
89.99618026
 51
180.0
  0
ARC
  5
45B
330
1D
100
AcDbEntity
  8
BLACK
100
AcDbCircle
 10
203.27505
 20
-91.974999
 30
0.0
 40
2.250001000555555
100
AcDbArc
 50
180.0
 51
269.99872676
  0
ARC
  5
45C
330
1D
100
AcDbEntity
  8
BLACK
100
AcDbCircle
 10
256.92495
 20
10.275001
 30
0.0
 40
0.7500000016666667
100
AcDbArc
 50
180.0
 51
270.00381972
  0
ARC
  5
45D
330
1D
100
AcDbEntity
  8
BLACK
100
AcDbCircle
 10
66.42505
 20
-88.974999
 30
0.0
 40
0.750047
100
AcDbArc
 50
90.00381972
 51
180.0
  0
LINE
  5
45E
330
1D
100
AcDbEntity
  8
BLACK
  6
Continuous
100
AcDbLine
 10
8.0125
 20
-91.725005
 30
0.0
 11
20.562499
 21
-91.725005
 31
0.0
  0
LINE
  5
45F
330
1D
100
AcDbEntity
  8
BLACK
  6
Continuous
100
AcDbLine
 10
238.375
 20
9.525001
 30
0.0
 11
190.25
 21
9.525001
 31
0.0
  0
ARC
  5
460
330
1D
100
AcDbEntity
  8
BLACK
100
AcDbCircle
 10
200.27505
 20
-88.974999
 30
0.0
 40
0.7500000016666667
100
AcDbArc
 50
0.0
 51
90.00381972
  0
ARC
  5
461
330
1D
100
AcDbEntity
  8
BLACK
100
AcDbCircle
 10
28.82495
 20
10.275001
 30
0.0
 40
0.750047
100
AcDbArc
 50
270.00381972
 51
0.0
  0
ARC
  5
462
330
1D
100
AcDbEntity
  8
BLACK
100
AcDbCircle
 10
272.97495
 20
-89.474999
 30
0.0
 40
2.250049
100
AcDbArc
 50
270.00127324
 51
0.0
  0
ARC
  5
463
330
1D
100
AcDbEntity
  8
BLACK
100
AcDbCircle
 10
-7.274998999999999
 20
-83.474998
 30
0.0
 40
2.250001
100
AcDbArc
 50
180.0
 51
270.0
  0
LINE
  5
464
330
1D
100
AcDbEntity
  8
BLACK
  6
Continuous
100
AcDbLine
 10
50.875
 20
-94.225
 30
0.0
 11
63.425
 21
-94.225
 31
0.0
  0
LINE
  5
465
330
1D
100
AcDbEntity
  8
BLACK
  6
Continuous
100
AcDbLine
 10
253.925
 20
15.525001
 30
0.0
 11
241.375
 21
15.525001
 31
0.0
  0
ARC
  5
466
330
1D
100
AcDbEntity
  8
BLACK
100
AcDbCircle
 10
241.37495
 20
13.275001
 30
0.0
 40
2.249953
100
AcDbArc
 50
89.99872676000001
 51
180.0
  0
ARC
  5
467
330
1D
100
AcDbEntity
  8
BLACK
100
AcDbCircle
 10
260.42495
 20
-89.474999
 30
0.0
 40
2.250002000555555
100
AcDbArc
 50
180.0
 51
270.00127324
  0
LINE
  5
468
330
1D
100
AcDbEntity
  8
BLACK
  6
Continuous
100
AcDbLine
 10
295.275
 20
-83.474999
 30
0.0
 11
295.275
 21
7.275001
 31
0.0
  0
LINE
  5
469
330
1D
100
AcDbEntity
  8
BLACK
  6
Continuous
100
AcDbLine
 10
111.05
 20
15.525001
 30
0.0
 11
98.5
 21
15.525001
 31
0.0
  0
ARC
  5
46A
330
1D
100
AcDbEntity
  8
BLACK
100
AcDbCircle
 10
253.92495
 20
13.275001
 30
0.0
 40
2.250000000555555
100
AcDbArc
 50
0.0
 51
89.99872676000001
  0
LINE
  5
46B
330
1D
100
AcDbEntity
  8
BLACK
  6
Continuous
100
AcDbLine
 10
95.5
 20
9.525001
 30
0.0
 11
47.375
 21
9.525001
 31
0.0
  0
LINE
  5
46C
330
1D
100
AcDbEntity
  8
BLACK
  6
Continuous
100
AcDbLine
 10
65.675003
 20
-91.974999
 30
0.0
 11
65.675003
 21
-88.974999
 31
0.0
  0
LINE
  5
46D
330
1D
100
AcDbEntity
  8
BLACK
  6
Continuous
100
AcDbLine
 10
275.975
 20
-85.724999
 30
0.0
 11
293.025
 21
-85.724999
 31
0.0
  0
LINE
  5
46E
330
1D
100
AcDbEntity
  8
BLACK
  6
Continuous
100
AcDbLine
 10
218.825
 20
-85.725004
 30
0.0
 11
257.425
 21
-85.724999
 31
0.0
  0
ARC
  5
46F
330
1D
100
AcDbEntity
  8
BLACK
100
AcDbCircle
 10
44.37495
 20
13.275001
 30
0.0
 40
2.250000000555555
100
AcDbArc
 50
0.0
 51
89.99872676000001
  0
LINE
  5
470
330
1D
100
AcDbEntity
  8
BLACK
  6
Continuous
100
AcDbLine
 10
293.025
 20
9.525001
 30
0.0
 11
256.925
 21
9.525001
 31
0.0
  0
ARC
  5
471
330
1D
100
AcDbEntity
  8
BLACK
100
AcDbCircle
 10
98.49995
 20
13.275001
 30
0.0
 40
2.24995
100
AcDbArc
 50
89.99872676000001
 51
180.0
  0
LINE
  5
472
330
1D
100
AcDbEntity
  8
BLACK
  6
Continuous
100
AcDbLine
 10
189.5
 20
10.275001
 30
0.0
 11
189.5
 21
13.275001
 31
0.0
  0
LINE
  5
473
330
1D
100
AcDbEntity
  8
BLACK
  6
Continuous
100
AcDbLine
 10
29.574997
 20
13.275001
 30
0.0
 11
29.574997
 21
10.275001
 31
0.0
  0
LINE
  5
474
330
1D
100
AcDbEntity
  8
BLACK
  6
Continuous
100
AcDbLine
 10
171.699993
 20
9.524994999999999
 30
0.0
 11
114.05
 21
9.525001
 31
0.0
  0
ARC
  5
475
330
1D
100
AcDbEntity
  8
BLACK
100
AcDbCircle
 10
174.70005
 20
13.275001
 30
0.0
 40
2.250056000005555
100
AcDbArc
 50
90.13358804999999
 51
180.00012732
  0
LINE
  5
476
330
1D
100
AcDbEntity
  8
BLACK
  6
Continuous
100
AcDbLine
 10
260.425
 20
-91.72500099999999
 30
0.0
 11
272.975
 21
-91.72500099999999
 31
0.0
  0
ARC
  5
477
330
1D
100
AcDbEntity
  8
BLACK
100
AcDbCircle
 10
171.70005
 20
10.275001
 30
0.0
 40
0.7499500000026668
100
AcDbArc
 50
269.99564552
 51
0.0001528
  0
ARC
  5
478
330
1D
100
AcDbEntity
  8
BLACK
100
AcDbCircle
 10
257.42495
 20
-86.474999
 30
0.0
 40
0.7500000016666667
100
AcDbArc
 50
0.0
 51
89.99618028
  0
ARC
  5
479
330
1D
100
AcDbEntity
  8
BLACK
100
AcDbCircle
 10
-7.274998999999999
 20
7.274999999999999
 30
0.0
 40
2.250001
100
AcDbArc
 50
90.0
 51
180.0
  0
LINE
  5
47A
330
1D
100
AcDbEntity
  8
BLACK
  6
Continuous
100
AcDbLine
 10
218.075003
 20
-91.974999
 30
0.0
 11
218.075003
 21
-86.474999
 31
0.0
  0
ARC
  5
47B
330
1D
100
AcDbEntity
  8
BLACK
100
AcDbCircle
 10
215.82505
 20
-91.974999
 30
0.0
 40
2.249953
100
AcDbArc
 50
269.99872676
 51
0.0
  0
LINE
  5
47C
330
1D
100
AcDbEntity
  8
BLACK
  6
Continuous
100
AcDbLine
 10
96.25
 20
13.275001
 30
0.0
 11
96.25
 21
10.275001
 31
0.0
  0
LINE
  5
47D
330
1D
100
AcDbEntity
  8
BLACK
  6
Continuous
100
AcDbLine
 10
256.175003
 20
10.275001
 30
0.0
 11
256.175003
 21
13.275001
 31
0.0
  0
ARC
  5
47E
330
1D
100
AcDbEntity
  8
BLACK
100
AcDbCircle
 10
111.04995
 20
13.275001
 30
0.0
 40
2.250000000555555
100
AcDbArc
 50
359.99997454
 51
89.99872676000001
  0
ARC
  5
47F
330
1D
100
AcDbEntity
  8
BLACK
100
AcDbCircle
 10
293.02495
 20
7.275001
 30
0.0
 40
2.250000000555555
100
AcDbArc
 50
0.0
 51
89.99872676000001
  0
ARC
  5
480
330
1D
100
AcDbEntity
  8
BLACK
100
AcDbCircle
 10
187.24995
 20
13.275001
 30
0.0
 40
2.250000000555555
100
AcDbArc
 50
0.0
 51
89.99872676000001
  0
ARC
  5
481
330
1D
100
AcDbEntity
  8
BLACK
100
AcDbCircle
 10
31.82495
 20
13.275001
 30
0.0
 40
2.249953
100
AcDbArc
 50
89.99872676000001
 51
180.0
  0
ARC
  5
482
330
1D
100
AcDbEntity
  8
BLACK
100
AcDbCircle
 10
47.87504999999999
 20
-86.474999
 30
0.0
 40
0.7499950016666778
100
AcDbArc
 50
0.0000764
 51
90.00381973999998
  0
ARC
  5
483
330
1D
100
AcDbEntity
  8
BLACK
100
AcDbCircle
 10
8.0125
 20
-89.474999
 30
0.0
 40
2.250006
100
AcDbArc
 50
180.12077932
 51
270.0
  0
ARC
  5
484
330
1D
100
AcDbEntity
  8
BLACK
100
AcDbCircle
 10
50.87504999999999
 20
-91.974999
 30
0.0
 40
2.250001000555555
100
AcDbArc
 50
180.00005093
 51
269.99872676
  0
LINE
  5
485
330
1D
100
AcDbEntity
  8
BLACK
  6
Continuous
100
AcDbLine
 10
239.124997
 20
13.275001
 30
0.0
 11
239.124997
 21
10.275001
 31
0.0
  0
ARC
  5
486
330
1D
100
AcDbEntity
  8
BLACK
100
AcDbCircle
 10
114.05005
 20
10.275001
 30
0.0
 40
0.7500000016666667
100
AcDbArc
 50
179.77090794
 51
269.99618028
  0
LINE
  5
487
330
1D
100
AcDbEntity
  8
BLACK
  6
Continuous
100
AcDbLine
 10
203.275
 20
-94.225
 30
0.0
 11
215.825
 21
-94.225
 31
0.0
  0
LINE
  5
488
330
1D
100
AcDbEntity
  8
BLACK
  6
Continuous
100
AcDbLine
 10
-9.525
 20
7.274999999999999
 30
0.0
 11
-9.525
 21
-83.474998
 31
0.0
  0
ARC
  5
489
330
1D
100
AcDbEntity
  8
BLACK
100
AcDbCircle
 10
95.49995
 20
10.275001
 30
0.0
 40
0.75005
100
AcDbArc
 50
270.00381972
 51
0.0
  0
LINE
  5
48A
330
1D
100
AcDbEntity
  8
BLACK
  6
Continuous
100
AcDbLine
 10
201.024997
 20
-88.974999
 30
0.0
 11
201.024997
 21
-91.974999
 31
0.0
  0
LINE
  5
48B
330
1D
100
AcDbEntity
  8
BLACK
  6
Continuous
100
AcDbLine
 10
22.8125
 20
-89.474999
 30
0.0
 11
22.8125
 21
-86.474999
 31
0.0
  0
ARC
  5
48C
330
1D
100
AcDbEntity
  8
BLACK
100
AcDbCircle
 10
275.97495
 20
-86.474999
 30
0.0
 40
0.7499509999999999
100
AcDbArc
 50
89.99618028
 51
180.0
  0
ARC
  5
48D
330
1D
100
AcDbEntity
  8
BLACK
100
AcDbCircle
 10
5.012449999999999
 20
-86.474999
 30
0.0
 40
0.7500000016666667
100
AcDbArc
 50
0.0
 51
89.99618028
  0
LINE
  5
48E
330
1D
100
AcDbEntity
  8
BLACK
  6
Continuous
100
AcDbLine
 10
112.124964
 20
-14.074999
 30
0.0
 11
112.125
 21
-14.074999
 31
0.0
  0
LINE
  5
48F
330
1D
100
AcDbEntity
  8
BLACK
  6
Continuous
100
AcDbLine
 10
99.5
 20
-12.000035
 30
0.0
 11
99.5
 21
-11.999999
 31
0.0
  0
LINE
  5
490
330
1D
100
AcDbEntity
  8
BLACK
  6
Continuous
100
AcDbLine
 10
80.45
 20
-11.999999
 30
0.0
 11
80.45
 21
-12.000035
 31
0.0
  0
LINE
  5
491
330
1D
100
AcDbEntity
  8
BLACK
  6
Continuous
100
AcDbLine
 10
93.075
 20
-14.074999
 30
0.0
 11
93.074964
 21
-14.074999
 31
0.0
  0
LINE
  5
492
330
1D
100
AcDbEntity
  8
BLACK
  6
Continuous
100
AcDbLine
 10
42.35
 20
-11.999999
 30
0.0
 11
42.35
 21
-12.000035
 31
0.0
  0
LINE
  5
493
330
1D
100
AcDbEntity
  8
BLACK
  6
Continuous
100
AcDbLine
 10
54.97499999999999
 20
-14.074999
 30
0.0
 11
54.974964
 21
-14.074999
 31
0.0
  0
LINE
  5
494
330
1D
100
AcDbEntity
  8
BLACK
  6
Continuous
100
AcDbLine
 10
61.4
 20
-12.000035
 30
0.0
 11
61.4
 21
-11.999999
 31
0.0
  0
LINE
  5
495
330
1D
100
AcDbEntity
  8
BLACK
  6
Continuous
100
AcDbLine
 10
74.024964
 20
-14.074999
 30
0.0
 11
74.02499999999999
 21
-14.074999
 31
0.0
  0
LINE
  5
496
330
1D
100
AcDbEntity
  8
BLACK
  6
Continuous
100
AcDbLine
 10
223.325
 20
7.050001
 30
0.0
 11
223.325
 21
7.049964999999999
 31
0.0
  0
LINE
  5
497
330
1D
100
AcDbEntity
  8
BLACK
  6
Continuous
100
AcDbLine
 10
235.95
 20
4.975001
 30
0.0
 11
235.949964
 21
4.975001
 31
0.0
  0
LINE
  5
498
330
1D
100
AcDbEntity
  8
BLACK
  6
Continuous
100
AcDbLine
 10
204.275
 20
7.050001
 30
0.0
 11
204.275
 21
7.049964999999999
 31
0.0
  0
LINE
  5
499
330
1D
100
AcDbEntity
  8
BLACK
  6
Continuous
100
AcDbLine
 10
216.9
 20
4.975001
 30
0.0
 11
216.899964
 21
4.975001
 31
0.0
  0
LINE
  5
49A
330
1D
100
AcDbEntity
  8
BLACK
  6
Continuous
100
AcDbLine
 10
166.175
 20
7.050001
 30
0.0
 11
166.175
 21
7.049964999999999
 31
0.0
  0
LINE
  5
49B
330
1D
100
AcDbEntity
  8
BLACK
  6
Continuous
100
AcDbLine
 10
178.8
 20
4.975001
 30
0.0
 11
178.799964
 21
4.975001
 31
0.0
  0
LINE
  5
49C
330
1D
100
AcDbEntity
  8
BLACK
  6
Continuous
100
AcDbLine
 10
185.225
 20
7.049964999999999
 30
0.0
 11
185.225
 21
7.050001
 31
0.0
  0
LINE
  5
49D
330
1D
100
AcDbEntity
  8
BLACK
  6
Continuous
100
AcDbLine
 10
197.849964
 20
4.975001
 30
0.0
 11
197.85
 21
4.975001
 31
0.0
  0
LINE
  5
49E
330
1D
100
AcDbEntity
  8
BLACK
  6
Continuous
100
AcDbLine
 10
147.125
 20
7.050001
 30
0.0
 11
147.125
 21
7.049964999999999
 31
0.0
  0
LINE
  5
49F
330
1D
100
AcDbEntity
  8
BLACK
  6
Continuous
100
AcDbLine
 10
159.75
 20
4.975001
 30
0.0
 11
159.749964
 21
4.975001
 31
0.0
  0
LINE
  5
4A0
330
1D
100
AcDbEntity
  8
BLACK
  6
Continuous
100
AcDbLine
 10
128.075
 20
7.050001
 30
0.0
 11
128.075
 21
7.049964999999999
 31
0.0
  0
LINE
  5
4A1
330
1D
100
AcDbEntity
  8
BLACK
  6
Continuous
100
AcDbLine
 10
140.7
 20
4.975001
 30
0.0
 11
140.699964
 21
4.975001
 31
0.0
  0
LINE
  5
4A2
330
1D
100
AcDbEntity
  8
BLACK
  6
Continuous
100
AcDbLine
 10
89.975
 20
7.050001
 30
0.0
 11
89.975
 21
7.049964999999999
 31
0.0
  0
LINE
  5
4A3
330
1D
100
AcDbEntity
  8
BLACK
  6
Continuous
100
AcDbLine
 10
102.6
 20
4.975001
 30
0.0
 11
102.599964
 21
4.975001
 31
0.0
  0
LINE
  5
4A4
330
1D
100
AcDbEntity
  8
BLACK
  6
Continuous
100
AcDbLine
 10
109.025
 20
7.049964999999999
 30
0.0
 11
109.025
 21
7.050001
 31
0.0
  0
LINE
  5
4A5
330
1D
100
AcDbEntity
  8
BLACK
  6
Continuous
100
AcDbLine
 10
121.649964
 20
4.975001
 30
0.0
 11
121.65
 21
4.975001
 31
0.0
  0
LINE
  5
4A6
330
1D
100
AcDbEntity
  8
BLACK
  6
Continuous
100
AcDbLine
 10
70.925
 20
7.050001
 30
0.0
 11
70.925
 21
7.049964999999999
 31
0.0
  0
LINE
  5
4A7
330
1D
100
AcDbEntity
  8
BLACK
  6
Continuous
100
AcDbLine
 10
83.55
 20
4.975001
 30
0.0
 11
83.549964
 21
4.975001
 31
0.0
  0
LINE
  5
4A8
330
1D
100
AcDbEntity
  8
BLACK
  6
Continuous
100
AcDbLine
 10
51.875
 20
7.050001
 30
0.0
 11
51.875
 21
7.049964999999999
 31
0.0
  0
LINE
  5
4A9
330
1D
100
AcDbEntity
  8
BLACK
  6
Continuous
100
AcDbLine
 10
64.5
 20
4.975001
 30
0.0
 11
64.49996399999999
 21
4.975001
 31
0.0
  0
LINE
  5
4AA
330
1D
100
AcDbEntity
  8
BLACK
  6
Continuous
100
AcDbLine
 10
45.449964
 20
4.975001
 30
0.0
 11
45.45
 21
4.975001
 31
0.0
  0
LINE
  5
4AB
330
1D
100
AcDbEntity
  8
BLACK
  6
Continuous
100
AcDbLine
 10
10.0375
 20
-26.1
 30
0.0
 11
10.0375
 21
-26.099999
 31
0.0
  0
LINE
  5
4AC
330
1D
100
AcDbEntity
  8
BLACK
  6
Continuous
100
AcDbLine
 10
280.487051
 20
7.05493
 30
0.0
 11
280.487051
 21
7.054965999999999
 31
0.0
  0
LINE
  5
4AD
330
1D
100
AcDbEntity
  8
BLACK
  6
Continuous
100
AcDbLine
 10
209.0375
 20
-50.099999
 30
0.0
 11
209.0375
 21
-50.100035
 31
0.0
  0
LINE
  5
4AE
330
1D
100
AcDbEntity
  8
BLACK
  6
Continuous
100
AcDbLine
 10
221.6625
 20
-52.174999
 30
0.0
 11
221.662464
 21
-52.174999
 31
0.0
  0
LINE
  5
4AF
330
1D
100
AcDbEntity
  8
BLACK
  6
Continuous
100
AcDbLine
 10
189.9875
 20
-50.099999
 30
0.0
 11
189.9875
 21
-50.100035
 31
0.0
  0
LINE
  5
4B0
330
1D
100
AcDbEntity
  8
BLACK
  6
Continuous
100
AcDbLine
 10
202.6125
 20
-52.174999
 30
0.0
 11
202.612464
 21
-52.174999
 31
0.0
  0
LINE
  5
4B1
330
1D
100
AcDbEntity
  8
BLACK
  6
Continuous
100
AcDbLine
 10
170.9375
 20
-50.099999
 30
0.0
 11
170.9375
 21
-50.100035
 31
0.0
  0
LINE
  5
4B2
330
1D
100
AcDbEntity
  8
BLACK
  6
Continuous
100
AcDbLine
 10
183.5625
 20
-52.174999
 30
0.0
 11
183.562464
 21
-52.174999
 31
0.0
  0
LINE
  5
4B3
330
1D
100
AcDbEntity
  8
BLACK
  6
Continuous
100
AcDbLine
 10
132.89257
 20
-50.05368499999999
 30
0.0
 11
132.89257
 21
-50.053721
 31
0.0
  0
LINE
  5
4B4
330
1D
100
AcDbEntity
  8
BLACK
  6
Continuous
100
AcDbLine
 10
94.7375
 20
-50.099999
 30
0.0
 11
94.7375
 21
-50.100035
 31
0.0
  0
LINE
  5
4B5
330
1D
100
AcDbEntity
  8
BLACK
  6
Continuous
100
AcDbLine
 10
107.3625
 20
-52.174999
 30
0.0
 11
107.362464
 21
-52.174999
 31
0.0
  0
LINE
  5
4B6
330
1D
100
AcDbEntity
  8
BLACK
  6
Continuous
100
AcDbLine
 10
164.5125
 20
-52.174999
 30
0.0
 11
164.512464
 21
-52.174999
 31
0.0
  0
LINE
  5
4B7
330
1D
100
AcDbEntity
  8
BLACK
  6
Continuous
100
AcDbLine
 10
151.8875
 20
-50.099999
 30
0.0
 11
151.8875
 21
-50.100035
 31
0.0
  0
LINE
  5
4B8
330
1D
100
AcDbEntity
  8
BLACK
  6
Continuous
100
AcDbLine
 10
75.6875
 20
-50.099999
 30
0.0
 11
75.6875
 21
-50.100035
 31
0.0
  0
LINE
  5
4B9
330
1D
100
AcDbEntity
  8
BLACK
  6
Continuous
100
AcDbLine
 10
88.3125
 20
-52.174999
 30
0.0
 11
88.31246399999999
 21
-52.174999
 31
0.0
  0
LINE
  5
4BA
330
1D
100
AcDbEntity
  8
BLACK
  6
Continuous
100
AcDbLine
 10
56.6375
 20
-50.099999
 30
0.0
 11
56.6375
 21
-50.100035
 31
0.0
  0
LINE
  5
4BB
330
1D
100
AcDbEntity
  8
BLACK
  6
Continuous
100
AcDbLine
 10
69.2625
 20
-52.174999
 30
0.0
 11
69.262464
 21
-52.174999
 31
0.0
  0
LINE
  5
4BC
330
1D
100
AcDbEntity
  8
BLACK
  6
Continuous
100
AcDbLine
 10
50.2125
 20
-52.174999
 30
0.0
 11
50.212464
 21
-52.174999
 31
0.0
  0
LINE
  5
4BD
330
1D
100
AcDbEntity
  8
BLACK
  6
Continuous
100
AcDbLine
 10
126.412464
 20
-52.174999
 30
0.0
 11
126.4125
 21
-52.174999
 31
0.0
  0
LINE
  5
4BE
330
1D
100
AcDbEntity
  8
BLACK
  6
Continuous
100
AcDbLine
 10
113.7875
 20
-50.100035
 30
0.0
 11
113.7875
 21
-50.099999
 31
0.0
  0
LINE
  5
4BF
330
1D
100
AcDbEntity
  8
BLACK
  6
Continuous
100
AcDbLine
 10
280.475
 20
-31.049999
 30
0.0
 11
280.475
 21
-31.050035
 31
0.0
  0
LINE
  5
4C0
330
1D
100
AcDbEntity
  8
BLACK
  6
Continuous
100
AcDbLine
 10
293.1
 20
-33.124999
 30
0.0
 11
293.099964
 21
-33.124999
 31
0.0
  0
LINE
  5
4C1
330
1D
100
AcDbEntity
  8
BLACK
  6
Continuous
100
AcDbLine
 10
280.475
 20
-50.099999
 30
0.0
 11
280.475
 21
-50.100035
 31
0.0
  0
LINE
  5
4C2
330
1D
100
AcDbEntity
  8
BLACK
  6
Continuous
100
AcDbLine
 10
293.1
 20
-52.174999
 30
0.0
 11
293.099964
 21
-52.174999
 31
0.0
  0
LINE
  5
4C3
330
1D
100
AcDbEntity
  8
BLACK
  6
Continuous
100
AcDbLine
 10
293.1
 20
-14.074999
 30
0.0
 11
293.099964
 21
-14.074999
 31
0.0
  0
LINE
  5
4C4
330
1D
100
AcDbEntity
  8
BLACK
  6
Continuous
100
AcDbLine
 10
280.475
 20
-11.999999
 30
0.0
 11
280.475
 21
-12.000035
 31
0.0
  0
LINE
  5
4C5
330
1D
100
AcDbEntity
  8
BLACK
  6
Continuous
100
AcDbLine
 10
261.425
 20
-50.099999
 30
0.0
 11
261.425
 21
-50.100035
 31
0.0
  0
LINE
  5
4C6
330
1D
100
AcDbEntity
  8
BLACK
  6
Continuous
100
AcDbLine
 10
274.05
 20
-52.174999
 30
0.0
 11
274.049964
 21
-52.174999
 31
0.0
  0
LINE
  5
4C7
330
1D
100
AcDbEntity
  8
BLACK
  6
Continuous
100
AcDbLine
 10
261.425
 20
-69.149999
 30
0.0
 11
261.425
 21
-69.150035
 31
0.0
  0
LINE
  5
4C8
330
1D
100
AcDbEntity
  8
BLACK
  6
Continuous
100
AcDbLine
 10
274.05
 20
-71.224999
 30
0.0
 11
274.049964
 21
-71.224999
 31
0.0
  0
LINE
  5
4C9
330
1D
100
AcDbEntity
  8
BLACK
  6
Continuous
100
AcDbLine
 10
280.475
 20
-69.150035
 30
0.0
 11
280.475
 21
-69.149999
 31
0.0
  0
LINE
  5
4CA
330
1D
100
AcDbEntity
  8
BLACK
  6
Continuous
100
AcDbLine
 10
293.099964
 20
-71.224999
 30
0.0
 11
293.1
 21
-71.224999
 31
0.0
  0
LINE
  5
4CB
330
1D
100
AcDbEntity
  8
BLACK
  6
Continuous
100
AcDbLine
 10
254.999964
 20
-71.224999
 30
0.0
 11
255.0
 21
-71.224999
 31
0.0
  0
LINE
  5
4CC
330
1D
100
AcDbEntity
  8
BLACK
  6
Continuous
100
AcDbLine
 10
242.375
 20
-69.150035
 30
0.0
 11
242.375
 21
-69.149999
 31
0.0
  0
LINE
  5
4CD
330
1D
100
AcDbEntity
  8
BLACK
  6
Continuous
100
AcDbLine
 10
199.5125
 20
-31.049999
 30
0.0
 11
199.5125
 21
-31.050035
 31
0.0
  0
LINE
  5
4CE
330
1D
100
AcDbEntity
  8
BLACK
  6
Continuous
100
AcDbLine
 10
212.1375
 20
-33.124999
 30
0.0
 11
212.137464
 21
-33.124999
 31
0.0
  0
LINE
  5
4CF
330
1D
100
AcDbEntity
  8
BLACK
  6
Continuous
100
AcDbLine
 10
218.5625
 20
-31.050035
 30
0.0
 11
218.5625
 21
-31.049999
 31
0.0
  0
LINE
  5
4D0
330
1D
100
AcDbEntity
  8
BLACK
  6
Continuous
100
AcDbLine
 10
231.187464
 20
-33.124999
 30
0.0
 11
231.1875
 21
-33.124999
 31
0.0
  0
LINE
  5
4D1
330
1D
100
AcDbEntity
  8
BLACK
  6
Continuous
100
AcDbLine
 10
193.087464
 20
-33.124999
 30
0.0
 11
193.0875
 21
-33.124999
 31
0.0
  0
LINE
  5
4D2
330
1D
100
AcDbEntity
  8
BLACK
  6
Continuous
100
AcDbLine
 10
180.4625
 20
-31.050035
 30
0.0
 11
180.4625
 21
-31.049999
 31
0.0
  0
LINE
  5
4D3
330
1D
100
AcDbEntity
  8
BLACK
  6
Continuous
100
AcDbLine
 10
161.4125
 20
-31.049999
 30
0.0
 11
161.4125
 21
-31.050035
 31
0.0
  0
LINE
  5
4D4
330
1D
100
AcDbEntity
  8
BLACK
  6
Continuous
100
AcDbLine
 10
174.0375
 20
-33.124999
 30
0.0
 11
174.037464
 21
-33.124999
 31
0.0
  0
LINE
  5
4D5
330
1D
100
AcDbEntity
  8
BLACK
  6
Continuous
100
AcDbLine
 10
123.3125
 20
-31.049999
 30
0.0
 11
123.3125
 21
-31.050035
 31
0.0
  0
LINE
  5
4D6
330
1D
100
AcDbEntity
  8
BLACK
  6
Continuous
100
AcDbLine
 10
135.9375
 20
-33.124999
 30
0.0
 11
135.937464
 21
-33.124999
 31
0.0
  0
LINE
  5
4D7
330
1D
100
AcDbEntity
  8
BLACK
  6
Continuous
100
AcDbLine
 10
142.3625
 20
-31.050035
 30
0.0
 11
142.3625
 21
-31.049999
 31
0.0
  0
LINE
  5
4D8
330
1D
100
AcDbEntity
  8
BLACK
  6
Continuous
100
AcDbLine
 10
154.987464
 20
-33.124999
 30
0.0
 11
154.9875
 21
-33.124999
 31
0.0
  0
LINE
  5
4D9
330
1D
100
AcDbEntity
  8
BLACK
  6
Continuous
100
AcDbLine
 10
116.887464
 20
-33.124999
 30
0.0
 11
116.8875
 21
-33.124999
 31
0.0
  0
LINE
  5
4DA
330
1D
100
AcDbEntity
  8
BLACK
  6
Continuous
100
AcDbLine
 10
104.2625
 20
-31.050035
 30
0.0
 11
104.2625
 21
-31.049999
 31
0.0
  0
LINE
  5
4DB
330
1D
100
AcDbEntity
  8
BLACK
  6
Continuous
100
AcDbLine
 10
85.21249999999999
 20
-31.049999
 30
0.0
 11
85.21249999999999
 21
-31.050035
 31
0.0
  0
LINE
  5
4DC
330
1D
100
AcDbEntity
  8
BLACK
  6
Continuous
100
AcDbLine
 10
97.83749999999999
 20
-33.124999
 30
0.0
 11
97.837464
 21
-33.124999
 31
0.0
  0
LINE
  5
4DD
330
1D
100
AcDbEntity
  8
BLACK
  6
Continuous
100
AcDbLine
 10
47.1125
 20
-31.049999
 30
0.0
 11
47.1125
 21
-31.050035
 31
0.0
  0
LINE
  5
4DE
330
1D
100
AcDbEntity
  8
BLACK
  6
Continuous
100
AcDbLine
 10
59.7375
 20
-33.124999
 30
0.0
 11
59.737464
 21
-33.124999
 31
0.0
  0
LINE
  5
4DF
330
1D
100
AcDbEntity
  8
BLACK
  6
Continuous
100
AcDbLine
 10
66.1625
 20
-31.050035
 30
0.0
 11
66.1625
 21
-31.049999
 31
0.0
  0
LINE
  5
4E0
330
1D
100
AcDbEntity
  8
BLACK
  6
Continuous
100
AcDbLine
 10
78.787464
 20
-33.124999
 30
0.0
 11
78.7875
 21
-33.124999
 31
0.0
  0
LINE
  5
4E1
330
1D
100
AcDbEntity
  8
BLACK
  6
Continuous
100
AcDbLine
 10
232.85
 20
-11.999999
 30
0.0
 11
232.85
 21
-12.000035
 31
0.0
  0
LINE
  5
4E2
330
1D
100
AcDbEntity
  8
BLACK
  6
Continuous
100
AcDbLine
 10
245.475
 20
-14.074999
 30
0.0
 11
245.474964
 21
-14.074999
 31
0.0
  0
LINE
  5
4E3
330
1D
100
AcDbEntity
  8
BLACK
  6
Continuous
100
AcDbLine
 10
194.75
 20
-11.999999
 30
0.0
 11
194.75
 21
-12.000035
 31
0.0
  0
LINE
  5
4E4
330
1D
100
AcDbEntity
  8
BLACK
  6
Continuous
100
AcDbLine
 10
207.375
 20
-14.074999
 30
0.0
 11
207.374964
 21
-14.074999
 31
0.0
  0
LINE
  5
4E5
330
1D
100
AcDbEntity
  8
BLACK
  6
Continuous
100
AcDbLine
 10
213.8
 20
-12.000035
 30
0.0
 11
213.8
 21
-11.999999
 31
0.0
  0
LINE
  5
4E6
330
1D
100
AcDbEntity
  8
BLACK
  6
Continuous
100
AcDbLine
 10
226.424964
 20
-14.074999
 30
0.0
 11
226.425
 21
-14.074999
 31
0.0
  0
LINE
  5
4E7
330
1D
100
AcDbEntity
  8
BLACK
  6
Continuous
100
AcDbLine
 10
188.324964
 20
-14.074999
 30
0.0
 11
188.325
 21
-14.074999
 31
0.0
  0
LINE
  5
4E8
330
1D
100
AcDbEntity
  8
BLACK
  6
Continuous
100
AcDbLine
 10
175.7
 20
-12.000035
 30
0.0
 11
175.7
 21
-11.999999
 31
0.0
  0
LINE
  5
4E9
330
1D
100
AcDbEntity
  8
BLACK
  6
Continuous
100
AcDbLine
 10
156.65
 20
-11.999999
 30
0.0
 11
156.65
 21
-12.000035
 31
0.0
  0
LINE
  5
4EA
330
1D
100
AcDbEntity
  8
BLACK
  6
Continuous
100
AcDbLine
 10
169.275
 20
-14.074999
 30
0.0
 11
169.274964
 21
-14.074999
 31
0.0
  0
LINE
  5
4EB
330
1D
100
AcDbEntity
  8
BLACK
  6
Continuous
100
AcDbLine
 10
137.6
 20
-11.999999
 30
0.0
 11
137.6
 21
-12.000035
 31
0.0
  0
LINE
  5
4EC
330
1D
100
AcDbEntity
  8
BLACK
  6
Continuous
100
AcDbLine
 10
150.225
 20
-14.074999
 30
0.0
 11
150.224964
 21
-14.074999
 31
0.0
  0
LINE
  5
4ED
330
1D
100
AcDbEntity
  8
BLACK
  6
Continuous
100
AcDbLine
 10
131.174964
 20
-14.074999
 30
0.0
 11
131.175
 21
-14.074999
 31
0.0
  0
LINE
  5
4EE
330
1D
100
AcDbEntity
  8
BLACK
  6
Continuous
100
AcDbLine
 10
118.55
 20
-12.000035
 30
0.0
 11
118.55
 21
-11.999999
 31
0.0
  0
LINE
  5
50A
330
1D
100
AcDbEntity
  8
BLACK
  6
Continuous
100
AcDbLine
 10
295.04992
 20
6.687303
 30
0.0
 11
295.049943
 21
6.687303
 31
0.0
  0
LINE
  5
50B
330
1D
100
AcDbEntity
  8
BLACK
  6
Continuous
100
AcDbLine
 10
292.668599
 20
-85.268697
 30
0.0
 11
292.668599
 21
-85.268728
 31
0.0
  0
ARC
  5
50E
330
1D
100
AcDbEntity
  8
BLACK
100
AcDbCircle
 10
42.3501
 20
-24.024799
 30
0.0
 40
2.075200002409406
100
AcDbArc
 50
179.4431294
 51
269.99723902
  0
LINE
  5
50F
330
1D
100
AcDbEntity
  8
BLACK
  6
Continuous
100
AcDbLine
 10
33.85
 20
-11.999999
 30
0.0
 11
23.3
 21
-11.999999
 31
0.0
  0
LINE
  5
510
330
1D
100
AcDbEntity
  8
BLACK
  6
Continuous
100
AcDbLine
 10
21.225
 20
-14.074999
 30
0.0
 11
21.225
 21
-24.024999
 31
0.0
  0
LINE
  5
511
330
1D
100
AcDbEntity
  8
BLACK
  6
Continuous
100
AcDbLine
 10
35.925
 20
-14.074999
 30
0.0
 11
35.925
 21
-24.024999
 31
0.0
  0
ARC
  5
512
330
1D
100
AcDbEntity
  8
BLACK
100
AcDbCircle
 10
33.85
 20
-24.024999
 30
0.0
 40
2.075
100
AcDbArc
 50
270.0
 51
0.0
  0
LINE
  5
513
330
1D
100
AcDbEntity
  8
BLACK
  6
Continuous
100
AcDbLine
 10
71.95
 20
-11.999999
 30
0.0
 11
61.4
 21
-11.999999
 31
0.0
  0
ARC
  5
514
330
1D
100
AcDbEntity
  8
BLACK
100
AcDbCircle
 10
23.3
 20
-14.074999
 30
0.0
 40
2.075
100
AcDbArc
 50
90.0
 51
180.0
  0
ARC
  5
515
330
1D
100
AcDbEntity
  8
BLACK
100
AcDbCircle
 10
23.3
 20
-24.024999
 30
0.0
 40
2.075
100
AcDbArc
 50
180.0
 51
270.0
  0
ARC
  5
516
330
1D
100
AcDbEntity
  8
BLACK
100
AcDbCircle
 10
33.85
 20
-14.074999
 30
0.0
 40
2.075
100
AcDbArc
 50
0.0
 51
90.0
  0
LINE
  5
517
330
1D
100
AcDbEntity
  8
BLACK
  6
Continuous
100
AcDbLine
 10
33.85
 20
-26.099999
 30
0.0
 11
23.3
 21
-26.099999
 31
0.0
  0
LINE
  5
518
330
1D
100
AcDbEntity
  8
BLACK
  6
Continuous
100
AcDbLine
 10
291.025
 20
7.054965999999999
 30
0.0
 11
280.487051
 21
7.054965999999999
 31
0.0
  0
LINE
  5
519
330
1D
100
AcDbEntity
  8
BLACK
  6
Continuous
100
AcDbLine
 10
278.4
 20
4.980001
 30
0.0
 11
278.4
 21
-4.946317
 31
0.0
  0
LINE
  5
51A
330
1D
100
AcDbEntity
  8
BLACK
  6
Continuous
100
AcDbLine
 10
293.1
 20
4.979966
 30
0.0
 11
293.1
 21
-4.969999
 31
0.0
  0
ARC
  5
51B
330
1D
100
AcDbEntity
  8
BLACK
100
AcDbCircle
 10
291.0248
 20
-4.969899
 30
0.0
 40
2.075200002409406
100
AcDbArc
 50
270.00552196
 51
359.9972390200001
  0
LINE
  5
51C
330
1D
100
AcDbEntity
  8
BLACK
  6
Continuous
100
AcDbLine
 10
291.025
 20
-7.045033999999999
 30
0.0
 11
280.475
 21
-7.045033999999999
 31
0.0
  0
ARC
  5
51D
330
1D
100
AcDbEntity
  8
BLACK
100
AcDbCircle
 10
291.0251
 20
4.980201
 30
0.0
 40
2.074765002409912
100
AcDbArc
 50
359.99351034
 51
90.00276155999998
  0
ARC
  5
51E
330
1D
100
AcDbEntity
  8
BLACK
100
AcDbCircle
 10
280.4749
 20
4.980001
 30
0.0
 40
2.0749
100
AcDbArc
 50
89.66447379000002
 51
180.0
  0
ARC
  5
51F
330
1D
100
AcDbEntity
  8
BLACK
100
AcDbCircle
 10
280.4751
 20
-4.969799
 30
0.0
 40
2.075235002409366
100
AcDbArc
 50
179.35166398
 51
269.99723907
  0
LINE
  5
520
330
1D
100
AcDbEntity
  8
BLACK
  6
Continuous
100
AcDbLine
 10
233.875
 20
7.050001
 30
0.0
 11
223.325
 21
7.050001
 31
0.0
  0
LINE
  5
521
330
1D
100
AcDbEntity
  8
BLACK
  6
Continuous
100
AcDbLine
 10
221.25
 20
4.975001
 30
0.0
 11
221.25
 21
-4.95463
 31
0.0
  0
LINE
  5
522
330
1D
100
AcDbEntity
  8
BLACK
  6
Continuous
100
AcDbLine
 10
235.95
 20
4.975001
 30
0.0
 11
235.95
 21
-4.974899
 31
0.0
  0
ARC
  5
523
330
1D
100
AcDbEntity
  8
BLACK
100
AcDbCircle
 10
233.8748
 20
-4.974899
 30
0.0
 40
2.0752
100
AcDbArc
 50
269.4431294
 51
0.0
  0
LINE
  5
524
330
1D
100
AcDbEntity
  8
BLACK
  6
Continuous
100
AcDbLine
 10
233.854631
 20
-7.049999
 30
0.0
 11
223.3251
 21
-7.049999
 31
0.0
  0
ARC
  5
525
330
1D
100
AcDbEntity
  8
BLACK
100
AcDbCircle
 10
233.875
 20
4.975101
 30
0.0
 40
2.0749
100
AcDbArc
 50
359.9972387099999
 51
90.0
  0
ARC
  5
526
330
1D
100
AcDbEntity
  8
BLACK
100
AcDbCircle
 10
223.3251
 20
-4.974799
 30
0.0
 40
2.0752
100
AcDbArc
 50
179.4431294
 51
270.0
  0
ARC
  5
527
330
1D
100
AcDbEntity
  8
BLACK
100
AcDbCircle
 10
223.3249
 20
4.975001
 30
0.0
 40
2.0749
100
AcDbArc
 50
89.99723871000002
 51
180.0
  0
LINE
  5
528
330
1D
100
AcDbEntity
  8
BLACK
  6
Continuous
100
AcDbLine
 10
214.825
 20
7.050001
 30
0.0
 11
204.275
 21
7.050001
 31
0.0
  0
LINE
  5
529
330
1D
100
AcDbEntity
  8
BLACK
  6
Continuous
100
AcDbLine
 10
202.2
 20
4.975001
 30
0.0
 11
202.2
 21
-4.95463
 31
0.0
  0
LINE
  5
52A
330
1D
100
AcDbEntity
  8
BLACK
  6
Continuous
100
AcDbLine
 10
216.9
 20
4.975001
 30
0.0
 11
216.9
 21
-4.974899
 31
0.0
  0
ARC
  5
52B
330
1D
100
AcDbEntity
  8
BLACK
100
AcDbCircle
 10
214.8248
 20
-4.974899
 30
0.0
 40
2.0752
100
AcDbArc
 50
269.4431294
 51
0.0
  0
LINE
  5
52C
330
1D
100
AcDbEntity
  8
BLACK
  6
Continuous
100
AcDbLine
 10
214.804631
 20
-7.049999
 30
0.0
 11
204.275
 21
-7.049999
 31
0.0
  0
ARC
  5
52D
330
1D
100
AcDbEntity
  8
BLACK
100
AcDbCircle
 10
214.825
 20
4.975101
 30
0.0
 40
2.0749
100
AcDbArc
 50
359.9972387099999
 51
90.0
  0
ARC
  5
52E
330
1D
100
AcDbEntity
  8
BLACK
100
AcDbCircle
 10
204.2749
 20
4.975001
 30
0.0
 40
2.0749
100
AcDbArc
 50
89.99723871000002
 51
180.0
  0
ARC
  5
52F
330
1D
100
AcDbEntity
  8
BLACK
100
AcDbCircle
 10
204.2751
 20
-4.974799
 30
0.0
 40
2.075200002409406
100
AcDbArc
 50
179.4431294
 51
269.99723902
  0
LINE
  5
530
330
1D
100
AcDbEntity
  8
BLACK
  6
Continuous
100
AcDbLine
 10
183.15
 20
4.975001
 30
0.0
 11
183.15
 21
-4.95463
 31
0.0
  0
LINE
  5
531
330
1D
100
AcDbEntity
  8
BLACK
  6
Continuous
100
AcDbLine
 10
197.85
 20
4.975001
 30
0.0
 11
197.85
 21
-4.974999
 31
0.0
  0
ARC
  5
532
330
1D
100
AcDbEntity
  8
BLACK
100
AcDbCircle
 10
195.7748
 20
-4.974899
 30
0.0
 40
2.075200002409406
100
AcDbArc
 50
269.4431294
 51
359.9972390200001
  0
ARC
  5
533
330
1D
100
AcDbEntity
  8
BLACK
100
AcDbCircle
 10
195.775
 20
4.975101
 30
0.0
 40
2.0749
100
AcDbArc
 50
359.9972387099999
 51
90.0
  0
LINE
  5
534
330
1D
100
AcDbEntity
  8
BLACK
  6
Continuous
100
AcDbLine
 10
195.754631
 20
-7.049999
 30
0.0
 11
185.225
 21
-7.049999
 31
0.0
  0
ARC
  5
535
330
1D
100
AcDbEntity
  8
BLACK
100
AcDbCircle
 10
185.2249
 20
4.975001
 30
0.0
 40
2.0749
100
AcDbArc
 50
89.99723871000002
 51
180.0
  0
ARC
  5
536
330
1D
100
AcDbEntity
  8
BLACK
100
AcDbCircle
 10
185.2251
 20
-4.974799
 30
0.0
 40
2.075200002409406
100
AcDbArc
 50
179.4431294
 51
269.99723902
  0
LINE
  5
537
330
1D
100
AcDbEntity
  8
BLACK
  6
Continuous
100
AcDbLine
 10
176.725
 20
7.050001
 30
0.0
 11
166.175
 21
7.050001
 31
0.0
  0
LINE
  5
538
330
1D
100
AcDbEntity
  8
BLACK
  6
Continuous
100
AcDbLine
 10
164.1
 20
4.975001
 30
0.0
 11
164.1
 21
-4.95463
 31
0.0
  0
LINE
  5
539
330
1D
100
AcDbEntity
  8
BLACK
  6
Continuous
100
AcDbLine
 10
178.8
 20
4.975001
 30
0.0
 11
178.8
 21
-4.974899
 31
0.0
  0
ARC
  5
53A
330
1D
100
AcDbEntity
  8
BLACK
100
AcDbCircle
 10
176.7248
 20
-4.974899
 30
0.0
 40
2.0752
100
AcDbArc
 50
269.4431294
 51
0.0
  0
LINE
  5
53B
330
1D
100
AcDbEntity
  8
BLACK
  6
Continuous
100
AcDbLine
 10
176.704631
 20
-7.049999
 30
0.0
 11
166.175
 21
-7.049999
 31
0.0
  0
ARC
  5
53C
330
1D
100
AcDbEntity
  8
BLACK
100
AcDbCircle
 10
176.725
 20
4.975101
 30
0.0
 40
2.0749
100
AcDbArc
 50
359.9972387099999
 51
90.0
  0
ARC
  5
53D
330
1D
100
AcDbEntity
  8
BLACK
100
AcDbCircle
 10
166.1749
 20
4.975001
 30
0.0
 40
2.0749
100
AcDbArc
 50
89.99723871000002
 51
180.0
  0
ARC
  5
53E
330
1D
100
AcDbEntity
  8
BLACK
100
AcDbCircle
 10
166.1751
 20
-4.974799
 30
0.0
 40
2.075200002409406
100
AcDbArc
 50
179.4431294
 51
269.99723902
  0
LINE
  5
53F
330
1D
100
AcDbEntity
  8
BLACK
  6
Continuous
100
AcDbLine
 10
157.675
 20
7.050001
 30
0.0
 11
147.125
 21
7.050001
 31
0.0
  0
LINE
  5
540
330
1D
100
AcDbEntity
  8
BLACK
  6
Continuous
100
AcDbLine
 10
145.05
 20
4.975001
 30
0.0
 11
145.05
 21
-4.95463
 31
0.0
  0
LINE
  5
541
330
1D
100
AcDbEntity
  8
BLACK
  6
Continuous
100
AcDbLine
 10
159.75
 20
4.975001
 30
0.0
 11
159.75
 21
-4.974899
 31
0.0
  0
ARC
  5
542
330
1D
100
AcDbEntity
  8
BLACK
100
AcDbCircle
 10
157.6748
 20
-4.974899
 30
0.0
 40
2.0752
100
AcDbArc
 50
269.4431294
 51
0.0
  0
LINE
  5
543
330
1D
100
AcDbEntity
  8
BLACK
  6
Continuous
100
AcDbLine
 10
157.654631
 20
-7.049999
 30
0.0
 11
147.1251
 21
-7.049999
 31
0.0
  0
ARC
  5
544
330
1D
100
AcDbEntity
  8
BLACK
100
AcDbCircle
 10
157.675
 20
4.975101
 30
0.0
 40
2.0749
100
AcDbArc
 50
359.9972387099999
 51
90.0
  0
LINE
  5
545
330
1D
100
AcDbEntity
  8
BLACK
  6
Continuous
100
AcDbLine
 10
195.775
 20
7.050001
 30
0.0
 11
185.225
 21
7.050001
 31
0.0
  0
ARC
  5
546
330
1D
100
AcDbEntity
  8
BLACK
100
AcDbCircle
 10
147.1251
 20
-4.974799
 30
0.0
 40
2.0752
100
AcDbArc
 50
179.4431294
 51
270.0
  0
ARC
  5
547
330
1D
100
AcDbEntity
  8
BLACK
100
AcDbCircle
 10
147.1249
 20
4.975001
 30
0.0
 40
2.0749
100
AcDbArc
 50
89.99723871000002
 51
180.0
  0
LINE
  5
548
330
1D
100
AcDbEntity
  8
BLACK
  6
Continuous
100
AcDbLine
 10
138.625
 20
7.050001
 30
0.0
 11
128.075
 21
7.050001
 31
0.0
  0
LINE
  5
549
330
1D
100
AcDbEntity
  8
BLACK
  6
Continuous
100
AcDbLine
 10
126.0
 20
4.975001
 30
0.0
 11
126.0
 21
-4.95463
 31
0.0
  0
LINE
  5
54A
330
1D
100
AcDbEntity
  8
BLACK
  6
Continuous
100
AcDbLine
 10
140.7
 20
4.975001
 30
0.0
 11
140.7
 21
-4.974899
 31
0.0
  0
ARC
  5
54B
330
1D
100
AcDbEntity
  8
BLACK
100
AcDbCircle
 10
138.6248
 20
-4.974899
 30
0.0
 40
2.0752
100
AcDbArc
 50
269.4431294
 51
0.0
  0
LINE
  5
54C
330
1D
100
AcDbEntity
  8
BLACK
  6
Continuous
100
AcDbLine
 10
138.604631
 20
-7.049999
 30
0.0
 11
128.075
 21
-7.049999
 31
0.0
  0
ARC
  5
54D
330
1D
100
AcDbEntity
  8
BLACK
100
AcDbCircle
 10
138.625
 20
4.975101
 30
0.0
 40
2.0749
100
AcDbArc
 50
359.9972387099999
 51
90.0
  0
ARC
  5
54E
330
1D
100
AcDbEntity
  8
BLACK
100
AcDbCircle
 10
128.0749
 20
4.975001
 30
0.0
 40
2.0749
100
AcDbArc
 50
89.99723871000002
 51
180.0
  0
ARC
  5
54F
330
1D
100
AcDbEntity
  8
BLACK
100
AcDbCircle
 10
128.0751
 20
-4.974799
 30
0.0
 40
2.075200002409406
100
AcDbArc
 50
179.4431294
 51
269.99723902
  0
LINE
  5
550
330
1D
100
AcDbEntity
  8
BLACK
  6
Continuous
100
AcDbLine
 10
106.95
 20
4.975001
 30
0.0
 11
106.95
 21
-4.95463
 31
0.0
  0
LINE
  5
551
330
1D
100
AcDbEntity
  8
BLACK
  6
Continuous
100
AcDbLine
 10
121.65
 20
4.975001
 30
0.0
 11
121.65
 21
-4.974999
 31
0.0
  0
ARC
  5
552
330
1D
100
AcDbEntity
  8
BLACK
100
AcDbCircle
 10
119.5748
 20
-4.974899
 30
0.0
 40
2.075200002409406
100
AcDbArc
 50
269.4431294
 51
359.9972390200001
  0
ARC
  5
553
330
1D
100
AcDbEntity
  8
BLACK
100
AcDbCircle
 10
119.575
 20
4.975101
 30
0.0
 40
2.0749
100
AcDbArc
 50
359.9972387099999
 51
90.0
  0
LINE
  5
554
330
1D
100
AcDbEntity
  8
BLACK
  6
Continuous
100
AcDbLine
 10
119.554631
 20
-7.049999
 30
0.0
 11
109.025
 21
-7.049999
 31
0.0
  0
ARC
  5
555
330
1D
100
AcDbEntity
  8
BLACK
100
AcDbCircle
 10
109.0249
 20
4.975001
 30
0.0
 40
2.0749
100
AcDbArc
 50
89.99723871000002
 51
180.0
  0
ARC
  5
556
330
1D
100
AcDbEntity
  8
BLACK
100
AcDbCircle
 10
109.0251
 20
-4.974799
 30
0.0
 40
2.075200002409406
100
AcDbArc
 50
179.4431294
 51
269.99723902
  0
LINE
  5
557
330
1D
100
AcDbEntity
  8
BLACK
  6
Continuous
100
AcDbLine
 10
100.525
 20
7.050001
 30
0.0
 11
89.975
 21
7.050001
 31
0.0
  0
LINE
  5
558
330
1D
100
AcDbEntity
  8
BLACK
  6
Continuous
100
AcDbLine
 10
87.89999999999999
 20
4.975001
 30
0.0
 11
87.89999999999999
 21
-4.95463
 31
0.0
  0
LINE
  5
559
330
1D
100
AcDbEntity
  8
BLACK
  6
Continuous
100
AcDbLine
 10
102.6
 20
4.975001
 30
0.0
 11
102.6
 21
-4.974899
 31
0.0
  0
ARC
  5
55A
330
1D
100
AcDbEntity
  8
BLACK
100
AcDbCircle
 10
100.5248
 20
-4.974899
 30
0.0
 40
2.0752
100
AcDbArc
 50
269.4431294
 51
0.0
  0
LINE
  5
55B
330
1D
100
AcDbEntity
  8
BLACK
  6
Continuous
100
AcDbLine
 10
100.504631
 20
-7.049999
 30
0.0
 11
89.975
 21
-7.049999
 31
0.0
  0
ARC
  5
55C
330
1D
100
AcDbEntity
  8
BLACK
100
AcDbCircle
 10
100.525
 20
4.975101
 30
0.0
 40
2.0749
100
AcDbArc
 50
359.9972387099999
 51
90.0
  0
ARC
  5
55D
330
1D
100
AcDbEntity
  8
BLACK
100
AcDbCircle
 10
89.97489999999999
 20
4.975001
 30
0.0
 40
2.0749
100
AcDbArc
 50
89.99723871000002
 51
180.0
  0
ARC
  5
55E
330
1D
100
AcDbEntity
  8
BLACK
100
AcDbCircle
 10
89.9751
 20
-4.974799
 30
0.0
 40
2.075200002409406
100
AcDbArc
 50
179.4431294
 51
269.99723902
  0
LINE
  5
55F
330
1D
100
AcDbEntity
  8
BLACK
  6
Continuous
100
AcDbLine
 10
81.475
 20
7.050001
 30
0.0
 11
70.925
 21
7.050001
 31
0.0
  0
LINE
  5
560
330
1D
100
AcDbEntity
  8
BLACK
  6
Continuous
100
AcDbLine
 10
68.85
 20
4.975001
 30
0.0
 11
68.85
 21
-4.95463
 31
0.0
  0
LINE
  5
561
330
1D
100
AcDbEntity
  8
BLACK
  6
Continuous
100
AcDbLine
 10
83.55
 20
4.975001
 30
0.0
 11
83.55
 21
-4.974899
 31
0.0
  0
ARC
  5
562
330
1D
100
AcDbEntity
  8
BLACK
100
AcDbCircle
 10
81.4748
 20
-4.974899
 30
0.0
 40
2.0752
100
AcDbArc
 50
269.4431294
 51
0.0
  0
LINE
  5
563
330
1D
100
AcDbEntity
  8
BLACK
  6
Continuous
100
AcDbLine
 10
81.45463099999999
 20
-7.049999
 30
0.0
 11
70.9251
 21
-7.049999
 31
0.0
  0
ARC
  5
564
330
1D
100
AcDbEntity
  8
BLACK
100
AcDbCircle
 10
81.475
 20
4.975101
 30
0.0
 40
2.0749
100
AcDbArc
 50
359.9972387099999
 51
90.0
  0
LINE
  5
565
330
1D
100
AcDbEntity
  8
BLACK
  6
Continuous
100
AcDbLine
 10
119.575
 20
7.050001
 30
0.0
 11
109.025
 21
7.050001
 31
0.0
  0
ARC
  5
566
330
1D
100
AcDbEntity
  8
BLACK
100
AcDbCircle
 10
70.9251
 20
-4.974799
 30
0.0
 40
2.0752
100
AcDbArc
 50
179.4431294
 51
270.0
  0
ARC
  5
567
330
1D
100
AcDbEntity
  8
BLACK
100
AcDbCircle
 10
70.9249
 20
4.975001
 30
0.0
 40
2.0749
100
AcDbArc
 50
89.99723871000002
 51
180.0
  0
LINE
  5
568
330
1D
100
AcDbEntity
  8
BLACK
  6
Continuous
100
AcDbLine
 10
62.425
 20
7.050001
 30
0.0
 11
51.875
 21
7.050001
 31
0.0
  0
LINE
  5
569
330
1D
100
AcDbEntity
  8
BLACK
  6
Continuous
100
AcDbLine
 10
49.8
 20
4.975001
 30
0.0
 11
49.8
 21
-4.95463
 31
0.0
  0
LINE
  5
56A
330
1D
100
AcDbEntity
  8
BLACK
  6
Continuous
100
AcDbLine
 10
64.5
 20
4.975001
 30
0.0
 11
64.5
 21
-4.974899
 31
0.0
  0
ARC
  5
56B
330
1D
100
AcDbEntity
  8
BLACK
100
AcDbCircle
 10
62.4248
 20
-4.974899
 30
0.0
 40
2.0752
100
AcDbArc
 50
269.4431294
 51
0.0
  0
LINE
  5
56C
330
1D
100
AcDbEntity
  8
BLACK
  6
Continuous
100
AcDbLine
 10
62.40463099999999
 20
-7.049999
 30
0.0
 11
51.875
 21
-7.049999
 31
0.0
  0
ARC
  5
56D
330
1D
100
AcDbEntity
  8
BLACK
100
AcDbCircle
 10
62.425
 20
4.975101
 30
0.0
 40
2.0749
100
AcDbArc
 50
359.9972387099999
 51
90.0
  0
ARC
  5
56E
330
1D
100
AcDbEntity
  8
BLACK
100
AcDbCircle
 10
51.8749
 20
4.975001
 30
0.0
 40
2.0749
100
AcDbArc
 50
89.99723871000002
 51
180.0
  0
ARC
  5
56F
330
1D
100
AcDbEntity
  8
BLACK
100
AcDbCircle
 10
51.8751
 20
-4.974799
 30
0.0
 40
2.075200002409406
100
AcDbArc
 50
179.4431294
 51
269.99723902
  0
LINE
  5
570
330
1D
100
AcDbEntity
  8
BLACK
  6
Continuous
100
AcDbLine
 10
30.75
 20
4.975001
 30
0.0
 11
30.75
 21
-4.974999
 31
0.0
  0
LINE
  5
571
330
1D
100
AcDbEntity
  8
BLACK
  6
Continuous
100
AcDbLine
 10
45.45
 20
4.975001
 30
0.0
 11
45.45
 21
-4.974999
 31
0.0
  0
ARC
  5
572
330
1D
100
AcDbEntity
  8
BLACK
100
AcDbCircle
 10
43.37483
 20
-4.974928999999999
 30
0.0
 40
2.075170001180626
100
AcDbArc
 50
269.44229308
 51
359.99806729
  0
ARC
  5
573
330
1D
100
AcDbEntity
  8
BLACK
100
AcDbCircle
 10
43.375
 20
4.975101
 30
0.0
 40
2.0749
100
AcDbArc
 50
359.9972387099999
 51
90.0
  0
LINE
  5
574
330
1D
100
AcDbEntity
  8
BLACK
  6
Continuous
100
AcDbLine
 10
43.354631
 20
-7.049999
 30
0.0
 11
32.825
 21
-7.049999
 31
0.0
  0
ARC
  5
575
330
1D
100
AcDbEntity
  8
BLACK
100
AcDbCircle
 10
32.825
 20
4.975001
 30
0.0
 40
2.075
100
AcDbArc
 50
90.0
 51
180.0
  0
ARC
  5
576
330
1D
100
AcDbEntity
  8
BLACK
100
AcDbCircle
 10
32.825
 20
-4.974999
 30
0.0
 40
2.075
100
AcDbArc
 50
180.0
 51
270.0
  0
LINE
  5
577
330
1D
100
AcDbEntity
  8
BLACK
  6
Continuous
100
AcDbLine
 10
24.325
 20
7.050001
 30
0.0
 11
13.775
 21
7.050001
 31
0.0
  0
LINE
  5
578
330
1D
100
AcDbEntity
  8
BLACK
  6
Continuous
100
AcDbLine
 10
11.7
 20
4.975001
 30
0.0
 11
11.7
 21
-4.974999
 31
0.0
  0
LINE
  5
579
330
1D
100
AcDbEntity
  8
BLACK
  6
Continuous
100
AcDbLine
 10
26.4
 20
4.975001
 30
0.0
 11
26.4
 21
-4.974999
 31
0.0
  0
ARC
  5
57A
330
1D
100
AcDbEntity
  8
BLACK
100
AcDbCircle
 10
24.325
 20
-4.974999
 30
0.0
 40
2.075
100
AcDbArc
 50
270.0
 51
0.0
  0
LINE
  5
57B
330
1D
100
AcDbEntity
  8
BLACK
  6
Continuous
100
AcDbLine
 10
24.325
 20
-7.049999
 30
0.0
 11
13.775
 21
-7.049999
 31
0.0
  0
ARC
  5
57C
330
1D
100
AcDbEntity
  8
BLACK
100
AcDbCircle
 10
24.325
 20
4.975001
 30
0.0
 40
2.075
100
AcDbArc
 50
0.0
 51
90.0
  0
ARC
  5
57D
330
1D
100
AcDbEntity
  8
BLACK
100
AcDbCircle
 10
13.775
 20
4.975001
 30
0.0
 40
2.075
100
AcDbArc
 50
90.0
 51
180.0
  0
ARC
  5
57E
330
1D
100
AcDbEntity
  8
BLACK
100
AcDbCircle
 10
13.775
 20
-4.974999
 30
0.0
 40
2.075
100
AcDbArc
 50
180.0
 51
270.0
  0
LINE
  5
57F
330
1D
100
AcDbEntity
  8
BLACK
  6
Continuous
100
AcDbLine
 10
5.274999999999999
 20
7.050001
 30
0.0
 11
-5.274995
 21
7.050001
 31
0.0
  0
LINE
  5
580
330
1D
100
AcDbEntity
  8
BLACK
  6
Continuous
100
AcDbLine
 10
-7.35
 20
4.974996
 30
0.0
 11
-7.35
 21
-4.974997
 31
0.0
  0
LINE
  5
581
330
1D
100
AcDbEntity
  8
BLACK
  6
Continuous
100
AcDbLine
 10
7.35
 20
4.975001
 30
0.0
 11
7.35
 21
-4.974999
 31
0.0
  0
ARC
  5
582
330
1D
100
AcDbEntity
  8
BLACK
100
AcDbCircle
 10
5.274999999999999
 20
-4.974999
 30
0.0
 40
2.075
100
AcDbArc
 50
270.0
 51
0.0
  0
LINE
  5
583
330
1D
100
AcDbEntity
  8
BLACK
  6
Continuous
100
AcDbLine
 10
5.274999999999999
 20
-7.049999
 30
0.0
 11
-5.274998
 21
-7.049999
 31
0.0
  0
ARC
  5
584
330
1D
100
AcDbEntity
  8
BLACK
100
AcDbCircle
 10
5.274999999999999
 20
4.975001
 30
0.0
 40
2.075
100
AcDbArc
 50
0.0
 51
90.0
  0
LINE
  5
585
330
1D
100
AcDbEntity
  8
BLACK
  6
Continuous
100
AcDbLine
 10
43.375
 20
7.050001
 30
0.0
 11
32.825
 21
7.050001
 31
0.0
  0
ARC
  5
586
330
1D
100
AcDbEntity
  8
BLACK
100
AcDbCircle
 10
-5.274998
 20
-4.974997
 30
0.0
 40
2.075002
100
AcDbArc
 50
180.0
 51
270.0
  0
ARC
  5
587
330
1D
100
AcDbEntity
  8
BLACK
100
AcDbCircle
 10
-5.274995
 20
4.974996
 30
0.0
 40
2.075005
100
AcDbArc
 50
90.0
 51
180.0
  0
ARC
  5
588
330
1D
100
AcDbEntity
  8
BLACK
100
AcDbCircle
 10
244.925
 20
-25.549999
 30
0.0
 40
0.5
100
AcDbArc
 50
270.0
 51
0.0
  0
LINE
  5
589
330
1D
100
AcDbEntity
  8
BLACK
  6
Continuous
100
AcDbLine
 10
12.41875
 20
-31.049999
 30
0.0
 11
-2.893745
 21
-31.049999
 31
0.0
  0
LINE
  5
58A
330
1D
100
AcDbEntity
  8
BLACK
  6
Continuous
100
AcDbLine
 10
-4.96875
 20
-33.125004
 30
0.0
 11
-4.96875
 21
-43.074997
 31
0.0
  0
LINE
  5
58B
330
1D
100
AcDbEntity
  8
BLACK
  6
Continuous
100
AcDbLine
 10
12.41875
 20
-45.149999
 30
0.0
 11
-2.893748
 21
-45.149999
 31
0.0
  0
ARC
  5
58C
330
1D
100
AcDbEntity
  8
BLACK
100
AcDbCircle
 10
-2.893745
 20
-33.125004
 30
0.0
 40
2.075005
100
AcDbArc
 50
90.0
 51
180.0
  0
ARC
  5
58D
330
1D
100
AcDbEntity
  8
BLACK
100
AcDbCircle
 10
-2.893748
 20
-43.074997
 30
0.0
 40
2.075002
100
AcDbArc
 50
180.0
 51
270.0
  0
LINE
  5
58E
330
1D
100
AcDbEntity
  8
BLACK
  6
Continuous
100
AcDbLine
 10
14.49375
 20
-33.124999
 30
0.0
 11
14.49375
 21
-43.074999
 31
0.0
  0
ARC
  5
58F
330
1D
100
AcDbEntity
  8
BLACK
100
AcDbCircle
 10
12.41875
 20
-43.074999
 30
0.0
 40
2.075
100
AcDbArc
 50
270.0
 51
0.0
  0
ARC
  5
590
330
1D
100
AcDbEntity
  8
BLACK
100
AcDbCircle
 10
12.41875
 20
-33.124999
 30
0.0
 40
2.075
100
AcDbArc
 50
0.0
 51
90.0
  0
LINE
  5
591
330
1D
100
AcDbEntity
  8
BLACK
  6
Continuous
100
AcDbLine
 10
10.0375
 20
-11.999999
 30
0.0
 11
-0.512494
 21
-11.999999
 31
0.0
  0
LINE
  5
592
330
1D
100
AcDbEntity
  8
BLACK
  6
Continuous
100
AcDbLine
 10
-2.587499
 20
-14.075004
 30
0.0
 11
-2.587499
 21
-24.024997
 31
0.0
  0
LINE
  5
593
330
1D
100
AcDbEntity
  8
BLACK
  6
Continuous
100
AcDbLine
 10
12.112501
 20
-14.074999
 30
0.0
 11
12.112501
 21
-24.024999
 31
0.0
  0
ARC
  5
594
330
1D
100
AcDbEntity
  8
BLACK
100
AcDbCircle
 10
10.0375
 20
-24.024999
 30
0.0
 40
2.075001
100
AcDbArc
 50
270.0
 51
0.0
  0
LINE
  5
595
330
1D
100
AcDbEntity
  8
BLACK
  6
Continuous
100
AcDbLine
 10
10.0375
 20
-26.099999
 30
0.0
 11
-0.512497
 21
-26.099999
 31
0.0
  0
ARC
  5
596
330
1D
100
AcDbEntity
  8
BLACK
100
AcDbCircle
 10
-0.512494
 20
-14.075004
 30
0.0
 40
2.075005
100
AcDbArc
 50
90.0
 51
180.0
  0
ARC
  5
597
330
1D
100
AcDbEntity
  8
BLACK
100
AcDbCircle
 10
10.0375
 20
-14.074999
 30
0.0
 40
2.075
100
AcDbArc
 50
0.0
 51
90.0
  0
ARC
  5
598
330
1D
100
AcDbEntity
  8
BLACK
100
AcDbCircle
 10
-0.512497
 20
-24.024997
 30
0.0
 40
2.075002
100
AcDbArc
 50
180.0
 51
270.0
  0
LINE
  5
599
330
1D
100
AcDbEntity
  8
BLACK
  6
Continuous
100
AcDbLine
 10
219.5875
 20
-50.099999
 30
0.0
 11
209.0375
 21
-50.099999
 31
0.0
  0
LINE
  5
59A
330
1D
100
AcDbEntity
  8
BLACK
  6
Continuous
100
AcDbLine
 10
206.9625
 20
-52.174999
 30
0.0
 11
206.9625
 21
-62.10463
 31
0.0
  0
LINE
  5
59B
330
1D
100
AcDbEntity
  8
BLACK
  6
Continuous
100
AcDbLine
 10
221.6625
 20
-52.174999
 30
0.0
 11
221.6625
 21
-62.124899
 31
0.0
  0
ARC
  5
59C
330
1D
100
AcDbEntity
  8
BLACK
100
AcDbCircle
 10
219.5873
 20
-62.124899
 30
0.0
 40
2.0752
100
AcDbArc
 50
269.4431294
 51
0.0
  0
LINE
  5
59D
330
1D
100
AcDbEntity
  8
BLACK
  6
Continuous
100
AcDbLine
 10
291.025
 20
-7.045033999999999
 30
0.0
 11
291.025
 21
-7.045096999999999
 31
0.0
  0
LINE
  5
59E
330
1D
100
AcDbEntity
  8
BLACK
  6
Continuous
100
AcDbLine
 10
145.502313
 20
-52.128699
 30
0.0
 11
145.502432
 21
-52.128699
 31
0.0
  0
LINE
  5
59F
330
1D
100
AcDbEntity
  8
BLACK
  6
Continuous
100
AcDbLine
 10
292.668599
 20
-85.268697
 30
0.0
 11
292.668599
 21
-85.268728
 31
0.0
  0
LINE
  5
5A0
330
1D
100
AcDbEntity
  8
BLACK
  6
Continuous
100
AcDbLine
 10
12.1125
 20
-14.074999
 30
0.0
 11
12.112501
 21
-14.074999
 31
0.0
  0
LINE
  5
5A1
330
1D
100
AcDbEntity
  8
BLACK
  6
Continuous
100
AcDbLine
 10
295.04992
 20
6.687303
 30
0.0
 11
295.049943
 21
6.687303
 31
0.0
  0
LINE
  5
5A2
330
1D
100
AcDbEntity
  8
BLACK
  6
Continuous
100
AcDbLine
 10
143.427432
 20
-64.15363099999999
 30
0.0
 11
143.427432
 21
-64.153729
 31
0.0
  0
LINE
  5
5A3
330
1D
100
AcDbEntity
  8
BLACK
  6
Continuous
100
AcDbLine
 10
293.1
 20
4.979966
 30
0.0
 11
293.099863
 21
4.979966
 31
0.0
  0
LINE
  5
5A4
330
1D
100
AcDbEntity
  8
BLACK
  6
Continuous
100
AcDbLine
 10
235.231249
 20
-50.10015
 30
0.0
 11
235.231249
 21
-50.099999
 31
0.0
  0
LINE
  5
5A5
330
1D
100
AcDbEntity
  8
BLACK
  6
Continuous
100
AcDbLine
 10
247.856099
 20
-52.174999
 30
0.0
 11
247.85625
 21
-52.174999
 31
0.0
  0
LINE
  5
5A6
330
1D
100
AcDbEntity
  8
BLACK
  6
Continuous
100
AcDbLine
 10
219.567131
 20
-64.19999899999999
 30
0.0
 11
209.0375
 21
-64.19999899999999
 31
0.0
  0
ARC
  5
5A7
330
1D
100
AcDbEntity
  8
BLACK
100
AcDbCircle
 10
219.5875
 20
-52.174899
 30
0.0
 40
2.0749
100
AcDbArc
 50
359.9972387099999
 51
90.0
  0
ARC
  5
5A8
330
1D
100
AcDbEntity
  8
BLACK
100
AcDbCircle
 10
209.0374
 20
-52.174999
 30
0.0
 40
2.0749
100
AcDbArc
 50
89.99723871000002
 51
180.0
  0
ARC
  5
5A9
330
1D
100
AcDbEntity
  8
BLACK
100
AcDbCircle
 10
209.0376
 20
-62.124799
 30
0.0
 40
2.075200002409406
100
AcDbArc
 50
179.4431294
 51
269.99723902
  0
LINE
  5
5AA
330
1D
100
AcDbEntity
  8
BLACK
  6
Continuous
100
AcDbLine
 10
200.5375
 20
-50.099999
 30
0.0
 11
189.9875
 21
-50.099999
 31
0.0
  0
LINE
  5
5AB
330
1D
100
AcDbEntity
  8
BLACK
  6
Continuous
100
AcDbLine
 10
187.9125
 20
-52.174999
 30
0.0
 11
187.9125
 21
-62.10463
 31
0.0
  0
LINE
  5
5AC
330
1D
100
AcDbEntity
  8
BLACK
  6
Continuous
100
AcDbLine
 10
202.6125
 20
-52.174999
 30
0.0
 11
202.6125
 21
-62.124899
 31
0.0
  0
ARC
  5
5AD
330
1D
100
AcDbEntity
  8
BLACK
100
AcDbCircle
 10
200.5373
 20
-62.124899
 30
0.0
 40
2.0752
100
AcDbArc
 50
269.4431294
 51
0.0
  0
LINE
  5
5AE
330
1D
100
AcDbEntity
  8
BLACK
  6
Continuous
100
AcDbLine
 10
200.517131
 20
-64.19999899999999
 30
0.0
 11
189.9875
 21
-64.19999899999999
 31
0.0
  0
ARC
  5
5AF
330
1D
100
AcDbEntity
  8
BLACK
100
AcDbCircle
 10
200.5375
 20
-52.174899
 30
0.0
 40
2.0749
100
AcDbArc
 50
359.9972387099999
 51
90.0
  0
ARC
  5
5B0
330
1D
100
AcDbEntity
  8
BLACK
100
AcDbCircle
 10
189.9874
 20
-52.174999
 30
0.0
 40
2.0749
100
AcDbArc
 50
89.99723871000002
 51
180.0
  0
ARC
  5
5B1
330
1D
100
AcDbEntity
  8
BLACK
100
AcDbCircle
 10
189.9876
 20
-62.124799
 30
0.0
 40
2.075200002409406
100
AcDbArc
 50
179.4431294
 51
269.99723902
  0
LINE
  5
5B2
330
1D
100
AcDbEntity
  8
BLACK
  6
Continuous
100
AcDbLine
 10
181.4875
 20
-50.099999
 30
0.0
 11
170.9375
 21
-50.099999
 31
0.0
  0
LINE
  5
5B3
330
1D
100
AcDbEntity
  8
BLACK
  6
Continuous
100
AcDbLine
 10
168.8625
 20
-52.174999
 30
0.0
 11
168.8625
 21
-62.10463
 31
0.0
  0
LINE
  5
5B4
330
1D
100
AcDbEntity
  8
BLACK
  6
Continuous
100
AcDbLine
 10
183.5625
 20
-52.174999
 30
0.0
 11
183.5625
 21
-62.124899
 31
0.0
  0
ARC
  5
5B5
330
1D
100
AcDbEntity
  8
BLACK
100
AcDbCircle
 10
181.4873
 20
-62.124899
 30
0.0
 40
2.0752
100
AcDbArc
 50
269.4431294
 51
0.0
  0
LINE
  5
5B6
330
1D
100
AcDbEntity
  8
BLACK
  6
Continuous
100
AcDbLine
 10
181.467131
 20
-64.19999899999999
 30
0.0
 11
170.9375
 21
-64.19999899999999
 31
0.0
  0
ARC
  5
5B7
330
1D
100
AcDbEntity
  8
BLACK
100
AcDbCircle
 10
181.4875
 20
-52.174899
 30
0.0
 40
2.0749
100
AcDbArc
 50
359.9972387099999
 51
90.0
  0
ARC
  5
5B8
330
1D
100
AcDbEntity
  8
BLACK
100
AcDbCircle
 10
170.9374
 20
-52.174999
 30
0.0
 40
2.0749
100
AcDbArc
 50
89.99723871000002
 51
180.0
  0
ARC
  5
5B9
330
1D
100
AcDbEntity
  8
BLACK
100
AcDbCircle
 10
170.9376
 20
-62.124799
 30
0.0
 40
2.075200002409406
100
AcDbArc
 50
179.4431294
 51
269.99723902
  0
LINE
  5
5BA
330
1D
100
AcDbEntity
  8
BLACK
  6
Continuous
100
AcDbLine
 10
162.4375
 20
-50.099999
 30
0.0
 11
151.8875
 21
-50.099999
 31
0.0
  0
LINE
  5
5BB
330
1D
100
AcDbEntity
  8
BLACK
  6
Continuous
100
AcDbLine
 10
149.8125
 20
-52.174999
 30
0.0
 11
149.8125
 21
-62.10463
 31
0.0
  0
LINE
  5
5BC
330
1D
100
AcDbEntity
  8
BLACK
  6
Continuous
100
AcDbLine
 10
164.5125
 20
-52.174999
 30
0.0
 11
164.5125
 21
-62.124899
 31
0.0
  0
ARC
  5
5BD
330
1D
100
AcDbEntity
  8
BLACK
100
AcDbCircle
 10
162.4373
 20
-62.124899
 30
0.0
 40
2.0752
100
AcDbArc
 50
269.4431294
 51
0.0
  0
LINE
  5
5BE
330
1D
100
AcDbEntity
  8
BLACK
  6
Continuous
100
AcDbLine
 10
162.417131
 20
-64.19999899999999
 30
0.0
 11
151.8876
 21
-64.19999899999999
 31
0.0
  0
ARC
  5
5BF
330
1D
100
AcDbEntity
  8
BLACK
100
AcDbCircle
 10
151.8874
 20
-52.174999
 30
0.0
 40
2.0749
100
AcDbArc
 50
89.99723871000002
 51
180.0
  0
ARC
  5
5C0
330
1D
100
AcDbEntity
  8
BLACK
100
AcDbCircle
 10
151.8876
 20
-62.124799
 30
0.0
 40
2.0752
100
AcDbArc
 50
179.4431294
 51
270.0
  0
LINE
  5
5C1
330
1D
100
AcDbEntity
  8
BLACK
  6
Continuous
100
AcDbLine
 10
143.4275
 20
-50.05368499999999
 30
0.0
 11
132.89257
 21
-50.05368499999999
 31
0.0
  0
LINE
  5
5C2
330
1D
100
AcDbEntity
  8
BLACK
  6
Continuous
100
AcDbLine
 10
130.802432
 20
-52.128799
 30
0.0
 11
130.802432
 21
-62.05656399999999
 31
0.0
  0
LINE
  5
5C3
330
1D
100
AcDbEntity
  8
BLACK
  6
Continuous
100
AcDbLine
 10
145.502432
 20
-52.128699
 30
0.0
 11
145.502432
 21
-62.078599
 31
0.0
  0
ARC
  5
5C4
330
1D
100
AcDbEntity
  8
BLACK
100
AcDbCircle
 10
143.4273
 20
-62.078599
 30
0.0
 40
2.075132
100
AcDbArc
 50
270.00364461
 51
0.0
  0
LINE
  5
5C5
330
1D
100
AcDbEntity
  8
BLACK
  6
Continuous
100
AcDbLine
 10
143.427432
 20
-64.153685
 30
0.0
 11
132.8774
 21
-64.153685
 31
0.0
  0
ARC
  5
5C6
330
1D
100
AcDbEntity
  8
BLACK
100
AcDbCircle
 10
132.8775
 20
-52.128799
 30
0.0
 40
2.075068
100
AcDbArc
 50
89.58390372999999
 51
180.0
  0
ARC
  5
5C7
330
1D
100
AcDbEntity
  8
BLACK
100
AcDbCircle
 10
143.4275
 20
-52.128499
 30
0.0
 40
2.074814
100
AcDbArc
 50
359.9944770199999
 51
90.0
  0
ARC
  5
5C8
330
1D
100
AcDbEntity
  8
BLACK
100
AcDbCircle
 10
132.8775
 20
-62.07849899999999
 30
0.0
 40
2.075186002409422
100
AcDbArc
 50
179.39436389
 51
269.99723901
  0
LINE
  5
5C9
330
1D
100
AcDbEntity
  8
BLACK
  6
Continuous
100
AcDbLine
 10
124.3375
 20
-50.099999
 30
0.0
 11
113.7875
 21
-50.099999
 31
0.0
  0
LINE
  5
5CA
330
1D
100
AcDbEntity
  8
BLACK
  6
Continuous
100
AcDbLine
 10
111.7125
 20
-52.174999
 30
0.0
 11
111.7125
 21
-62.10463
 31
0.0
  0
LINE
  5
5CB
330
1D
100
AcDbEntity
  8
BLACK
  6
Continuous
100
AcDbLine
 10
126.4125
 20
-52.174999
 30
0.0
 11
126.4125
 21
-62.124999
 31
0.0
  0
ARC
  5
5CC
330
1D
100
AcDbEntity
  8
BLACK
100
AcDbCircle
 10
124.3373
 20
-62.124899
 30
0.0
 40
2.075200002409406
100
AcDbArc
 50
269.4431294
 51
359.9972390200001
  0
ARC
  5
5CD
330
1D
100
AcDbEntity
  8
BLACK
100
AcDbCircle
 10
124.3375
 20
-52.174899
 30
0.0
 40
2.0749
100
AcDbArc
 50
359.9972387099999
 51
90.0
  0
ARC
  5
5CE
330
1D
100
AcDbEntity
  8
BLACK
100
AcDbCircle
 10
113.7874
 20
-52.174999
 30
0.0
 40
2.0749
100
AcDbArc
 50
89.99723871000002
 51
180.0
  0
ARC
  5
5CF
330
1D
100
AcDbEntity
  8
BLACK
100
AcDbCircle
 10
113.7876
 20
-62.124799
 30
0.0
 40
2.075200002409406
100
AcDbArc
 50
179.4431294
 51
269.99723902
  0
LINE
  5
5D0
330
1D
100
AcDbEntity
  8
BLACK
  6
Continuous
100
AcDbLine
 10
105.2875
 20
-50.099999
 30
0.0
 11
94.7375
 21
-50.099999
 31
0.0
  0
LINE
  5
5D1
330
1D
100
AcDbEntity
  8
BLACK
  6
Continuous
100
AcDbLine
 10
92.6625
 20
-52.174999
 30
0.0
 11
92.6625
 21
-62.10463
 31
0.0
  0
LINE
  5
5D2
330
1D
100
AcDbEntity
  8
BLACK
  6
Continuous
100
AcDbLine
 10
107.3625
 20
-52.174999
 30
0.0
 11
107.3625
 21
-62.124899
 31
0.0
  0
ARC
  5
5D3
330
1D
100
AcDbEntity
  8
BLACK
100
AcDbCircle
 10
105.2873
 20
-62.124899
 30
0.0
 40
2.0752
100
AcDbArc
 50
269.4431294
 51
0.0
  0
LINE
  5
5D4
330
1D
100
AcDbEntity
  8
BLACK
  6
Continuous
100
AcDbLine
 10
105.267131
 20
-64.19999899999999
 30
0.0
 11
94.7376
 21
-64.19999899999999
 31
0.0
  0
ARC
  5
5D5
330
1D
100
AcDbEntity
  8
BLACK
100
AcDbCircle
 10
105.2875
 20
-52.174899
 30
0.0
 40
2.0749
100
AcDbArc
 50
359.9972387099999
 51
90.0
  0
ARC
  5
5D6
330
1D
100
AcDbEntity
  8
BLACK
100
AcDbCircle
 10
94.7376
 20
-62.124799
 30
0.0
 40
2.0752
100
AcDbArc
 50
179.4431294
 51
270.0
  0
ARC
  5
5D7
330
1D
100
AcDbEntity
  8
BLACK
100
AcDbCircle
 10
94.7374
 20
-52.174999
 30
0.0
 40
2.0749
100
AcDbArc
 50
89.99723871000002
 51
180.0
  0
ARC
  5
5D8
330
1D
100
AcDbEntity
  8
BLACK
100
AcDbCircle
 10
162.4375
 20
-52.174899
 30
0.0
 40
2.0749
100
AcDbArc
 50
359.9972387099999
 51
90.0
  0
LINE
  5
5D9
330
1D
100
AcDbEntity
  8
BLACK
  6
Continuous
100
AcDbLine
 10
86.2375
 20
-50.099999
 30
0.0
 11
75.6875
 21
-50.099999
 31
0.0
  0
LINE
  5
5DA
330
1D
100
AcDbEntity
  8
BLACK
  6
Continuous
100
AcDbLine
 10
73.6125
 20
-52.174999
 30
0.0
 11
73.6125
 21
-62.10463
 31
0.0
  0
LINE
  5
5DB
330
1D
100
AcDbEntity
  8
BLACK
  6
Continuous
100
AcDbLine
 10
88.3125
 20
-52.174999
 30
0.0
 11
88.3125
 21
-62.124899
 31
0.0
  0
ARC
  5
5DC
330
1D
100
AcDbEntity
  8
BLACK
100
AcDbCircle
 10
86.23729999999999
 20
-62.124899
 30
0.0
 40
2.0752
100
AcDbArc
 50
269.4431294
 51
0.0
  0
LINE
  5
5DD
330
1D
100
AcDbEntity
  8
BLACK
  6
Continuous
100
AcDbLine
 10
86.217131
 20
-64.19999899999999
 30
0.0
 11
75.6875
 21
-64.19999899999999
 31
0.0
  0
ARC
  5
5DE
330
1D
100
AcDbEntity
  8
BLACK
100
AcDbCircle
 10
86.2375
 20
-52.174899
 30
0.0
 40
2.0749
100
AcDbArc
 50
359.9972387099999
 51
90.0
  0
ARC
  5
5DF
330
1D
100
AcDbEntity
  8
BLACK
100
AcDbCircle
 10
75.6874
 20
-52.174999
 30
0.0
 40
2.0749
100
AcDbArc
 50
89.99723871000002
 51
180.0
  0
ARC
  5
5E0
330
1D
100
AcDbEntity
  8
BLACK
100
AcDbCircle
 10
75.6876
 20
-62.124799
 30
0.0
 40
2.075200002409406
100
AcDbArc
 50
179.4431294
 51
269.99723902
  0
LINE
  5
5E1
330
1D
100
AcDbEntity
  8
BLACK
  6
Continuous
100
AcDbLine
 10
67.1875
 20
-50.099999
 30
0.0
 11
56.6375
 21
-50.099999
 31
0.0
  0
LINE
  5
5E2
330
1D
100
AcDbEntity
  8
BLACK
  6
Continuous
100
AcDbLine
 10
54.5625
 20
-52.174999
 30
0.0
 11
54.5625
 21
-62.10463
 31
0.0
  0
LINE
  5
5E3
330
1D
100
AcDbEntity
  8
BLACK
  6
Continuous
100
AcDbLine
 10
69.2625
 20
-52.174999
 30
0.0
 11
69.2625
 21
-62.124899
 31
0.0
  0
ARC
  5
5E4
330
1D
100
AcDbEntity
  8
BLACK
100
AcDbCircle
 10
67.1873
 20
-62.124899
 30
0.0
 40
2.0752
100
AcDbArc
 50
269.4431294
 51
0.0
  0
LINE
  5
5E5
330
1D
100
AcDbEntity
  8
BLACK
  6
Continuous
100
AcDbLine
 10
67.167131
 20
-64.19999899999999
 30
0.0
 11
56.6375
 21
-64.19999899999999
 31
0.0
  0
ARC
  5
5E6
330
1D
100
AcDbEntity
  8
BLACK
100
AcDbCircle
 10
67.1875
 20
-52.174899
 30
0.0
 40
2.0749
100
AcDbArc
 50
359.9972387099999
 51
90.0
  0
ARC
  5
5E7
330
1D
100
AcDbEntity
  8
BLACK
100
AcDbCircle
 10
56.6374
 20
-52.174999
 30
0.0
 40
2.0749
100
AcDbArc
 50
89.99723871000002
 51
180.0
  0
ARC
  5
5E8
330
1D
100
AcDbEntity
  8
BLACK
100
AcDbCircle
 10
56.6376
 20
-62.124799
 30
0.0
 40
2.075200002409406
100
AcDbArc
 50
179.4431294
 51
269.99723902
  0
LINE
  5
5E9
330
1D
100
AcDbEntity
  8
BLACK
  6
Continuous
100
AcDbLine
 10
48.1375
 20
-50.099999
 30
0.0
 11
37.5875
 21
-50.099999
 31
0.0
  0
LINE
  5
5EA
330
1D
100
AcDbEntity
  8
BLACK
  6
Continuous
100
AcDbLine
 10
35.5125
 20
-52.174999
 30
0.0
 11
35.5125
 21
-62.124999
 31
0.0
  0
LINE
  5
5EB
330
1D
100
AcDbEntity
  8
BLACK
  6
Continuous
100
AcDbLine
 10
50.2125
 20
-52.174999
 30
0.0
 11
50.2125
 21
-62.12492899999999
 31
0.0
  0
ARC
  5
5EC
330
1D
100
AcDbEntity
  8
BLACK
100
AcDbCircle
 10
48.13733
 20
-62.12492899999999
 30
0.0
 40
2.07517
100
AcDbArc
 50
269.44229308
 51
0.0
  0
LINE
  5
5ED
330
1D
100
AcDbEntity
  8
BLACK
  6
Continuous
100
AcDbLine
 10
48.117131
 20
-64.19999899999999
 30
0.0
 11
37.5875
 21
-64.19999899999999
 31
0.0
  0
ARC
  5
5EE
330
1D
100
AcDbEntity
  8
BLACK
100
AcDbCircle
 10
48.1375
 20
-52.174899
 30
0.0
 40
2.0749
100
AcDbArc
 50
359.9972387099999
 51
90.0
  0
ARC
  5
5EF
330
1D
100
AcDbEntity
  8
BLACK
100
AcDbCircle
 10
37.5875
 20
-52.174999
 30
0.0
 40
2.075
100
AcDbArc
 50
90.0
 51
180.0
  0
ARC
  5
5F0
330
1D
100
AcDbEntity
  8
BLACK
100
AcDbCircle
 10
37.5875
 20
-62.124999
 30
0.0
 40
2.075
100
AcDbArc
 50
180.0
 51
270.0
  0
LINE
  5
5F1
330
1D
100
AcDbEntity
  8
BLACK
  6
Continuous
100
AcDbLine
 10
124.317131
 20
-64.19999899999999
 30
0.0
 11
113.7875
 21
-64.19999899999999
 31
0.0
  0
LINE
  5
5F2
330
1D
100
AcDbEntity
  8
BLACK
  6
Continuous
100
AcDbLine
 10
291.025
 20
-11.999999
 30
0.0
 11
280.475
 21
-11.999999
 31
0.0
  0
LINE
  5
5F3
330
1D
100
AcDbEntity
  8
BLACK
  6
Continuous
100
AcDbLine
 10
278.4
 20
-14.074999
 30
0.0
 11
278.4
 21
-24.00463
 31
0.0
  0
LINE
  5
5F4
330
1D
100
AcDbEntity
  8
BLACK
  6
Continuous
100
AcDbLine
 10
293.1
 20
-14.074999
 30
0.0
 11
293.1
 21
-24.024899
 31
0.0
  0
ARC
  5
5F5
330
1D
100
AcDbEntity
  8
BLACK
100
AcDbCircle
 10
291.0248
 20
-24.024899
 30
0.0
 40
2.0752
100
AcDbArc
 50
269.4431294
 51
0.0
  0
LINE
  5
5F6
330
1D
100
AcDbEntity
  8
BLACK
  6
Continuous
100
AcDbLine
 10
291.004631
 20
-26.099999
 30
0.0
 11
280.4751
 21
-26.099999
 31
0.0
  0
ARC
  5
5F7
330
1D
100
AcDbEntity
  8
BLACK
100
AcDbCircle
 10
280.4749
 20
-14.074999
 30
0.0
 40
2.0749
100
AcDbArc
 50
89.99723871000002
 51
180.0
  0
ARC
  5
5F8
330
1D
100
AcDbEntity
  8
BLACK
100
AcDbCircle
 10
280.4751
 20
-24.024799
 30
0.0
 40
2.0752
100
AcDbArc
 50
179.4431294
 51
270.0
  0
LINE
  5
5F9
330
1D
100
AcDbEntity
  8
BLACK
  6
Continuous
100
AcDbLine
 10
291.025
 20
-31.049999
 30
0.0
 11
280.475
 21
-31.049999
 31
0.0
  0
LINE
  5
5FA
330
1D
100
AcDbEntity
  8
BLACK
  6
Continuous
100
AcDbLine
 10
278.4
 20
-33.124999
 30
0.0
 11
278.4
 21
-43.05463
 31
0.0
  0
LINE
  5
5FB
330
1D
100
AcDbEntity
  8
BLACK
  6
Continuous
100
AcDbLine
 10
293.1
 20
-33.124999
 30
0.0
 11
293.1
 21
-43.07489899999999
 31
0.0
  0
ARC
  5
5FC
330
1D
100
AcDbEntity
  8
BLACK
100
AcDbCircle
 10
291.0248
 20
-43.07489899999999
 30
0.0
 40
2.0752
100
AcDbArc
 50
269.4431294
 51
0.0
  0
LINE
  5
5FD
330
1D
100
AcDbEntity
  8
BLACK
  6
Continuous
100
AcDbLine
 10
291.004631
 20
-45.149999
 30
0.0
 11
280.475
 21
-45.149999
 31
0.0
  0
ARC
  5
5FE
330
1D
100
AcDbEntity
  8
BLACK
100
AcDbCircle
 10
291.025
 20
-33.124899
 30
0.0
 40
2.0749
100
AcDbArc
 50
359.9972387099999
 51
90.0
  0
ARC
  5
5FF
330
1D
100
AcDbEntity
  8
BLACK
100
AcDbCircle
 10
280.4749
 20
-33.124999
 30
0.0
 40
2.0749
100
AcDbArc
 50
89.99723871000002
 51
180.0
  0
ARC
  5
600
330
1D
100
AcDbEntity
  8
BLACK
100
AcDbCircle
 10
280.4751
 20
-43.074799
 30
0.0
 40
2.075200002409406
100
AcDbArc
 50
179.4431294
 51
269.99723902
  0
LINE
  5
601
330
1D
100
AcDbEntity
  8
BLACK
  6
Continuous
100
AcDbLine
 10
245.7814
 20
-50.099999
 30
0.0
 11
235.231249
 21
-50.099999
 31
0.0
  0
LINE
  5
602
330
1D
100
AcDbEntity
  8
BLACK
  6
Continuous
100
AcDbLine
 10
233.15625
 20
-52.174899
 30
0.0
 11
233.15625
 21
-62.099832
 31
0.0
  0
LINE
  5
603
330
1D
100
AcDbEntity
  8
BLACK
  6
Continuous
100
AcDbLine
 10
247.85625
 20
-52.174999
 30
0.0
 11
247.85625
 21
-62.124799
 31
0.0
  0
ARC
  5
604
330
1D
100
AcDbEntity
  8
BLACK
100
AcDbCircle
 10
245.7809
 20
-62.124799
 30
0.0
 40
2.07535
100
AcDbArc
 50
269.31390258
 51
0.0
  0
LINE
  5
605
330
1D
100
AcDbEntity
  8
BLACK
  6
Continuous
100
AcDbLine
 10
245.756049
 20
-64.19999899999999
 30
0.0
 11
235.2314
 21
-64.19999899999999
 31
0.0
  0
ARC
  5
606
330
1D
100
AcDbEntity
  8
BLACK
100
AcDbCircle
 10
245.7814
 20
-52.174699
 30
0.0
 40
2.0747
100
AcDbArc
 50
359.9917150700001
 51
90.0
  0
ARC
  5
607
330
1D
100
AcDbEntity
  8
BLACK
100
AcDbCircle
 10
235.231
 20
-52.174899
 30
0.0
 40
2.07475
100
AcDbArc
 50
89.99312366999999
 51
180.0
  0
ARC
  5
608
330
1D
100
AcDbEntity
  8
BLACK
100
AcDbCircle
 10
235.2315
 20
-62.124599
 30
0.0
 40
2.075400002409174
100
AcDbArc
 50
179.31623794
 51
269.99723929
  0
LINE
  5
609
330
1D
100
AcDbEntity
  8
BLACK
  6
Continuous
100
AcDbLine
 10
291.025
 20
-50.099999
 30
0.0
 11
280.475
 21
-50.099999
 31
0.0
  0
LINE
  5
60A
330
1D
100
AcDbEntity
  8
BLACK
  6
Continuous
100
AcDbLine
 10
278.4
 20
-52.174999
 30
0.0
 11
278.4
 21
-62.10463
 31
0.0
  0
LINE
  5
60B
330
1D
100
AcDbEntity
  8
BLACK
  6
Continuous
100
AcDbLine
 10
293.1
 20
-52.174999
 30
0.0
 11
293.1
 21
-62.124899
 31
0.0
  0
ARC
  5
60C
330
1D
100
AcDbEntity
  8
BLACK
100
AcDbCircle
 10
291.0248
 20
-62.124899
 30
0.0
 40
2.0752
100
AcDbArc
 50
269.4431294
 51
0.0
  0
LINE
  5
60D
330
1D
100
AcDbEntity
  8
BLACK
  6
Continuous
100
AcDbLine
 10
291.004631
 20
-64.19999899999999
 30
0.0
 11
280.475
 21
-64.19999899999999
 31
0.0
  0
ARC
  5
60E
330
1D
100
AcDbEntity
  8
BLACK
100
AcDbCircle
 10
291.025
 20
-52.174899
 30
0.0
 40
2.0749
100
AcDbArc
 50
359.9972387099999
 51
90.0
  0
ARC
  5
60F
330
1D
100
AcDbEntity
  8
BLACK
100
AcDbCircle
 10
280.4749
 20
-52.174999
 30
0.0
 40
2.0749
100
AcDbArc
 50
89.99723871000002
 51
180.0
  0
ARC
  5
610
330
1D
100
AcDbEntity
  8
BLACK
100
AcDbCircle
 10
280.4751
 20
-62.124799
 30
0.0
 40
2.075200002409406
100
AcDbArc
 50
179.4431294
 51
269.99723902
  0
ARC
  5
611
330
1D
100
AcDbEntity
  8
BLACK
100
AcDbCircle
 10
291.025
 20
-14.074899
 30
0.0
 40
2.0749
100
AcDbArc
 50
359.9972387099999
 51
90.0
  0
LINE
  5
612
330
1D
100
AcDbEntity
  8
BLACK
  6
Continuous
100
AcDbLine
 10
271.975
 20
-50.099999
 30
0.0
 11
261.425
 21
-50.099999
 31
0.0
  0
LINE
  5
613
330
1D
100
AcDbEntity
  8
BLACK
  6
Continuous
100
AcDbLine
 10
259.35
 20
-52.174999
 30
0.0
 11
259.35
 21
-62.10463
 31
0.0
  0
LINE
  5
614
330
1D
100
AcDbEntity
  8
BLACK
  6
Continuous
100
AcDbLine
 10
274.05
 20
-52.174999
 30
0.0
 11
274.05
 21
-62.124899
 31
0.0
  0
ARC
  5
615
330
1D
100
AcDbEntity
  8
BLACK
100
AcDbCircle
 10
271.9748
 20
-62.124899
 30
0.0
 40
2.0752
100
AcDbArc
 50
269.4431294
 51
0.0
  0
LINE
  5
616
330
1D
100
AcDbEntity
  8
BLACK
  6
Continuous
100
AcDbLine
 10
271.954631
 20
-64.19999899999999
 30
0.0
 11
261.425
 21
-64.19999899999999
 31
0.0
  0
ARC
  5
617
330
1D
100
AcDbEntity
  8
BLACK
100
AcDbCircle
 10
271.975
 20
-52.174899
 30
0.0
 40
2.0749
100
AcDbArc
 50
359.9972387099999
 51
90.0
  0
ARC
  5
618
330
1D
100
AcDbEntity
  8
BLACK
100
AcDbCircle
 10
261.4249
 20
-52.174999
 30
0.0
 40
2.0749
100
AcDbArc
 50
89.99723871000002
 51
180.0
  0
ARC
  5
619
330
1D
100
AcDbEntity
  8
BLACK
100
AcDbCircle
 10
261.4251
 20
-62.124799
 30
0.0
 40
2.075200002409406
100
AcDbArc
 50
179.4431294
 51
269.99723902
  0
LINE
  5
61A
330
1D
100
AcDbEntity
  8
BLACK
  6
Continuous
100
AcDbLine
 10
278.4
 20
-71.224999
 30
0.0
 11
278.4
 21
-81.15463
 31
0.0
  0
LINE
  5
61B
330
1D
100
AcDbEntity
  8
BLACK
  6
Continuous
100
AcDbLine
 10
293.1
 20
-71.224999
 30
0.0
 11
293.1
 21
-81.174999
 31
0.0
  0
ARC
  5
61C
330
1D
100
AcDbEntity
  8
BLACK
100
AcDbCircle
 10
291.0248
 20
-81.174899
 30
0.0
 40
2.075200002409406
100
AcDbArc
 50
269.4431294
 51
359.9972390200001
  0
ARC
  5
61D
330
1D
100
AcDbEntity
  8
BLACK
100
AcDbCircle
 10
291.025
 20
-71.224899
 30
0.0
 40
2.0749
100
AcDbArc
 50
359.9972387099999
 51
90.0
  0
LINE
  5
61E
330
1D
100
AcDbEntity
  8
BLACK
  6
Continuous
100
AcDbLine
 10
291.004631
 20
-83.249999
 30
0.0
 11
280.475
 21
-83.249999
 31
0.0
  0
ARC
  5
61F
330
1D
100
AcDbEntity
  8
BLACK
100
AcDbCircle
 10
280.4749
 20
-71.224999
 30
0.0
 40
2.0749
100
AcDbArc
 50
89.99723871000002
 51
180.0
  0
ARC
  5
620
330
1D
100
AcDbEntity
  8
BLACK
100
AcDbCircle
 10
280.4751
 20
-81.174799
 30
0.0
 40
2.075200002409406
100
AcDbArc
 50
179.4431294
 51
269.99723902
  0
LINE
  5
621
330
1D
100
AcDbEntity
  8
BLACK
  6
Continuous
100
AcDbLine
 10
271.975
 20
-69.149999
 30
0.0
 11
261.425
 21
-69.149999
 31
0.0
  0
LINE
  5
622
330
1D
100
AcDbEntity
  8
BLACK
  6
Continuous
100
AcDbLine
 10
259.35
 20
-71.224999
 30
0.0
 11
259.35
 21
-81.15463
 31
0.0
  0
LINE
  5
623
330
1D
100
AcDbEntity
  8
BLACK
  6
Continuous
100
AcDbLine
 10
274.05
 20
-71.224999
 30
0.0
 11
274.05
 21
-81.174899
 31
0.0
  0
ARC
  5
624
330
1D
100
AcDbEntity
  8
BLACK
100
AcDbCircle
 10
271.9748
 20
-81.174899
 30
0.0
 40
2.0752
100
AcDbArc
 50
269.4431294
 51
0.0
  0
LINE
  5
625
330
1D
100
AcDbEntity
  8
BLACK
  6
Continuous
100
AcDbLine
 10
271.954631
 20
-83.249999
 30
0.0
 11
261.425
 21
-83.249999
 31
0.0
  0
ARC
  5
626
330
1D
100
AcDbEntity
  8
BLACK
100
AcDbCircle
 10
271.975
 20
-71.224899
 30
0.0
 40
2.0749
100
AcDbArc
 50
359.9972387099999
 51
90.0
  0
ARC
  5
627
330
1D
100
AcDbEntity
  8
BLACK
100
AcDbCircle
 10
261.4249
 20
-71.224999
 30
0.0
 40
2.0749
100
AcDbArc
 50
89.99723871000002
 51
180.0
  0
ARC
  5
628
330
1D
100
AcDbEntity
  8
BLACK
100
AcDbCircle
 10
261.4251
 20
-81.174799
 30
0.0
 40
2.075200002409406
100
AcDbArc
 50
179.4431294
 51
269.99723902
  0
LINE
  5
629
330
1D
100
AcDbEntity
  8
BLACK
  6
Continuous
100
AcDbLine
 10
255.0
 20
-71.224999
 30
0.0
 11
255.0
 21
-81.174999
 31
0.0
  0
ARC
  5
62A
330
1D
100
AcDbEntity
  8
BLACK
100
AcDbCircle
 10
252.9248
 20
-81.174899
 30
0.0
 40
2.075200002409406
100
AcDbArc
 50
269.4431294
 51
359.9972390200001
  0
LINE
  5
62B
330
1D
100
AcDbEntity
  8
BLACK
  6
Continuous
100
AcDbLine
 10
291.025
 20
-69.149999
 30
0.0
 11
280.475
 21
-69.149999
 31
0.0
  0
ARC
  5
62C
330
1D
100
AcDbEntity
  8
BLACK
100
AcDbCircle
 10
242.3749
 20
-71.224999
 30
0.0
 40
2.0749
100
AcDbArc
 50
89.99723871000002
 51
180.0
  0
ARC
  5
62D
330
1D
100
AcDbEntity
  8
BLACK
100
AcDbCircle
 10
242.3751
 20
-81.174799
 30
0.0
 40
2.075200002409406
100
AcDbArc
 50
179.4431294
 51
269.99723902
  0
ARC
  5
62E
330
1D
100
AcDbEntity
  8
BLACK
100
AcDbCircle
 10
252.925
 20
-71.224899
 30
0.0
 40
2.0749
100
AcDbArc
 50
359.9972387099999
 51
90.0
  0
LINE
  5
62F
330
1D
100
AcDbEntity
  8
BLACK
  6
Continuous
100
AcDbLine
 10
252.904631
 20
-83.249999
 30
0.0
 11
242.375
 21
-83.249999
 31
0.0
  0
LINE
  5
630
330
1D
100
AcDbEntity
  8
BLACK
  6
Continuous
100
AcDbLine
 10
252.925
 20
-69.149999
 30
0.0
 11
242.375
 21
-69.149999
 31
0.0
  0
LINE
  5
631
330
1D
100
AcDbEntity
  8
BLACK
  6
Continuous
100
AcDbLine
 10
240.3
 20
-71.224999
 30
0.0
 11
240.3
 21
-81.15463
 31
0.0
  0
LINE
  5
632
330
1D
100
AcDbEntity
  8
BLACK
  6
Continuous
100
AcDbLine
 10
216.4875
 20
-33.124999
 30
0.0
 11
216.4875
 21
-43.05463
 31
0.0
  0
LINE
  5
633
330
1D
100
AcDbEntity
  8
BLACK
  6
Continuous
100
AcDbLine
 10
231.1875
 20
-33.124999
 30
0.0
 11
231.1875
 21
-43.074999
 31
0.0
  0
ARC
  5
634
330
1D
100
AcDbEntity
  8
BLACK
100
AcDbCircle
 10
229.1123
 20
-43.07489899999999
 30
0.0
 40
2.075200002409406
100
AcDbArc
 50
269.4431294
 51
359.9972390200001
  0
ARC
  5
635
330
1D
100
AcDbEntity
  8
BLACK
100
AcDbCircle
 10
229.1125
 20
-33.124899
 30
0.0
 40
2.0749
100
AcDbArc
 50
359.9972387099999
 51
90.0
  0
LINE
  5
636
330
1D
100
AcDbEntity
  8
BLACK
  6
Continuous
100
AcDbLine
 10
229.092131
 20
-45.149999
 30
0.0
 11
218.5625
 21
-45.149999
 31
0.0
  0
ARC
  5
637
330
1D
100
AcDbEntity
  8
BLACK
100
AcDbCircle
 10
218.5624
 20
-33.124999
 30
0.0
 40
2.0749
100
AcDbArc
 50
89.99723871000002
 51
180.0
  0
ARC
  5
638
330
1D
100
AcDbEntity
  8
BLACK
100
AcDbCircle
 10
218.5626
 20
-43.074799
 30
0.0
 40
2.075200002409406
100
AcDbArc
 50
179.4431294
 51
269.99723902
  0
LINE
  5
639
330
1D
100
AcDbEntity
  8
BLACK
  6
Continuous
100
AcDbLine
 10
210.0625
 20
-31.049999
 30
0.0
 11
199.5125
 21
-31.049999
 31
0.0
  0
LINE
  5
63A
330
1D
100
AcDbEntity
  8
BLACK
  6
Continuous
100
AcDbLine
 10
197.4375
 20
-33.124999
 30
0.0
 11
197.4375
 21
-43.05463
 31
0.0
  0
LINE
  5
63B
330
1D
100
AcDbEntity
  8
BLACK
  6
Continuous
100
AcDbLine
 10
212.1375
 20
-33.124999
 30
0.0
 11
212.1375
 21
-43.07489899999999
 31
0.0
  0
ARC
  5
63C
330
1D
100
AcDbEntity
  8
BLACK
100
AcDbCircle
 10
210.0623
 20
-43.07489899999999
 30
0.0
 40
2.0752
100
AcDbArc
 50
269.4431294
 51
0.0
  0
LINE
  5
63D
330
1D
100
AcDbEntity
  8
BLACK
  6
Continuous
100
AcDbLine
 10
210.042131
 20
-45.149999
 30
0.0
 11
199.5125
 21
-45.149999
 31
0.0
  0
ARC
  5
63E
330
1D
100
AcDbEntity
  8
BLACK
100
AcDbCircle
 10
210.0625
 20
-33.124899
 30
0.0
 40
2.0749
100
AcDbArc
 50
359.9972387099999
 51
90.0
  0
ARC
  5
63F
330
1D
100
AcDbEntity
  8
BLACK
100
AcDbCircle
 10
199.5124
 20
-33.124999
 30
0.0
 40
2.0749
100
AcDbArc
 50
89.99723871000002
 51
180.0
  0
ARC
  5
640
330
1D
100
AcDbEntity
  8
BLACK
100
AcDbCircle
 10
199.5126
 20
-43.074799
 30
0.0
 40
2.075200002409406
100
AcDbArc
 50
179.4431294
 51
269.99723902
  0
LINE
  5
641
330
1D
100
AcDbEntity
  8
BLACK
  6
Continuous
100
AcDbLine
 10
191.0125
 20
-31.049999
 30
0.0
 11
180.4625
 21
-31.049999
 31
0.0
  0
LINE
  5
642
330
1D
100
AcDbEntity
  8
BLACK
  6
Continuous
100
AcDbLine
 10
178.3875
 20
-33.124999
 30
0.0
 11
178.3875
 21
-43.05463
 31
0.0
  0
LINE
  5
643
330
1D
100
AcDbEntity
  8
BLACK
  6
Continuous
100
AcDbLine
 10
193.0875
 20
-33.124999
 30
0.0
 11
193.0875
 21
-43.074999
 31
0.0
  0
ARC
  5
644
330
1D
100
AcDbEntity
  8
BLACK
100
AcDbCircle
 10
191.0123
 20
-43.07489899999999
 30
0.0
 40
2.075200002409406
100
AcDbArc
 50
269.4431294
 51
359.9972390200001
  0
LINE
  5
645
330
1D
100
AcDbEntity
  8
BLACK
  6
Continuous
100
AcDbLine
 10
229.1125
 20
-31.049999
 30
0.0
 11
218.5625
 21
-31.049999
 31
0.0
  0
ARC
  5
646
330
1D
100
AcDbEntity
  8
BLACK
100
AcDbCircle
 10
180.4624
 20
-33.124999
 30
0.0
 40
2.0749
100
AcDbArc
 50
89.99723871000002
 51
180.0
  0
ARC
  5
647
330
1D
100
AcDbEntity
  8
BLACK
100
AcDbCircle
 10
180.4626
 20
-43.074799
 30
0.0
 40
2.075200002409406
100
AcDbArc
 50
179.4431294
 51
269.99723902
  0
ARC
  5
648
330
1D
100
AcDbEntity
  8
BLACK
100
AcDbCircle
 10
191.0125
 20
-33.124899
 30
0.0
 40
2.0749
100
AcDbArc
 50
359.9972387099999
 51
90.0
  0
LINE
  5
649
330
1D
100
AcDbEntity
  8
BLACK
  6
Continuous
100
AcDbLine
 10
190.992131
 20
-45.149999
 30
0.0
 11
180.4625
 21
-45.149999
 31
0.0
  0
LINE
  5
64A
330
1D
100
AcDbEntity
  8
BLACK
  6
Continuous
100
AcDbLine
 10
171.9625
 20
-31.049999
 30
0.0
 11
161.4125
 21
-31.049999
 31
0.0
  0
LINE
  5
64B
330
1D
100
AcDbEntity
  8
BLACK
  6
Continuous
100
AcDbLine
 10
159.3375
 20
-33.124999
 30
0.0
 11
159.3375
 21
-43.05463
 31
0.0
  0
LINE
  5
64C
330
1D
100
AcDbEntity
  8
BLACK
  6
Continuous
100
AcDbLine
 10
174.0375
 20
-33.124999
 30
0.0
 11
174.0375
 21
-43.07489899999999
 31
0.0
  0
ARC
  5
64D
330
1D
100
AcDbEntity
  8
BLACK
100
AcDbCircle
 10
171.9623
 20
-43.07489899999999
 30
0.0
 40
2.0752
100
AcDbArc
 50
269.4431294
 51
0.0
  0
LINE
  5
64E
330
1D
100
AcDbEntity
  8
BLACK
  6
Continuous
100
AcDbLine
 10
171.942131
 20
-45.149999
 30
0.0
 11
161.4125
 21
-45.149999
 31
0.0
  0
ARC
  5
64F
330
1D
100
AcDbEntity
  8
BLACK
100
AcDbCircle
 10
171.9625
 20
-33.124899
 30
0.0
 40
2.0749
100
AcDbArc
 50
359.9972387099999
 51
90.0
  0
ARC
  5
650
330
1D
100
AcDbEntity
  8
BLACK
100
AcDbCircle
 10
161.4124
 20
-33.124999
 30
0.0
 40
2.0749
100
AcDbArc
 50
89.99723871000002
 51
180.0
  0
ARC
  5
651
330
1D
100
AcDbEntity
  8
BLACK
100
AcDbCircle
 10
161.4126
 20
-43.074799
 30
0.0
 40
2.075200002409406
100
AcDbArc
 50
179.4431294
 51
269.99723902
  0
LINE
  5
652
330
1D
100
AcDbEntity
  8
BLACK
  6
Continuous
100
AcDbLine
 10
140.2875
 20
-33.124999
 30
0.0
 11
140.2875
 21
-43.05463
 31
0.0
  0
LINE
  5
653
330
1D
100
AcDbEntity
  8
BLACK
  6
Continuous
100
AcDbLine
 10
154.9875
 20
-33.124999
 30
0.0
 11
154.9875
 21
-43.074999
 31
0.0
  0
ARC
  5
654
330
1D
100
AcDbEntity
  8
BLACK
100
AcDbCircle
 10
152.9123
 20
-43.07489899999999
 30
0.0
 40
2.075200002409406
100
AcDbArc
 50
269.4431294
 51
359.9972390200001
  0
ARC
  5
655
330
1D
100
AcDbEntity
  8
BLACK
100
AcDbCircle
 10
152.9125
 20
-33.124899
 30
0.0
 40
2.0749
100
AcDbArc
 50
359.9972387099999
 51
90.0
  0
LINE
  5
656
330
1D
100
AcDbEntity
  8
BLACK
  6
Continuous
100
AcDbLine
 10
152.892131
 20
-45.149999
 30
0.0
 11
142.3625
 21
-45.149999
 31
0.0
  0
ARC
  5
657
330
1D
100
AcDbEntity
  8
BLACK
100
AcDbCircle
 10
142.3624
 20
-33.124999
 30
0.0
 40
2.0749
100
AcDbArc
 50
89.99723871000002
 51
180.0
  0
ARC
  5
658
330
1D
100
AcDbEntity
  8
BLACK
100
AcDbCircle
 10
142.3626
 20
-43.074799
 30
0.0
 40
2.075200002409406
100
AcDbArc
 50
179.4431294
 51
269.99723902
  0
LINE
  5
659
330
1D
100
AcDbEntity
  8
BLACK
  6
Continuous
100
AcDbLine
 10
133.8625
 20
-31.049999
 30
0.0
 11
123.3125
 21
-31.049999
 31
0.0
  0
LINE
  5
65A
330
1D
100
AcDbEntity
  8
BLACK
  6
Continuous
100
AcDbLine
 10
121.2375
 20
-33.124999
 30
0.0
 11
121.2375
 21
-43.05463
 31
0.0
  0
LINE
  5
65B
330
1D
100
AcDbEntity
  8
BLACK
  6
Continuous
100
AcDbLine
 10
135.9375
 20
-33.124999
 30
0.0
 11
135.9375
 21
-43.07489899999999
 31
0.0
  0
ARC
  5
65C
330
1D
100
AcDbEntity
  8
BLACK
100
AcDbCircle
 10
133.8623
 20
-43.07489899999999
 30
0.0
 40
2.0752
100
AcDbArc
 50
269.4431294
 51
0.0
  0
LINE
  5
65D
330
1D
100
AcDbEntity
  8
BLACK
  6
Continuous
100
AcDbLine
 10
133.842131
 20
-45.149999
 30
0.0
 11
123.3125
 21
-45.149999
 31
0.0
  0
ARC
  5
65E
330
1D
100
AcDbEntity
  8
BLACK
100
AcDbCircle
 10
133.8625
 20
-33.124899
 30
0.0
 40
2.0749
100
AcDbArc
 50
359.9972387099999
 51
90.0
  0
ARC
  5
65F
330
1D
100
AcDbEntity
  8
BLACK
100
AcDbCircle
 10
123.3124
 20
-33.124999
 30
0.0
 40
2.0749
100
AcDbArc
 50
89.99723871000002
 51
180.0
  0
ARC
  5
660
330
1D
100
AcDbEntity
  8
BLACK
100
AcDbCircle
 10
123.3126
 20
-43.074799
 30
0.0
 40
2.075200002409406
100
AcDbArc
 50
179.4431294
 51
269.99723902
  0
LINE
  5
661
330
1D
100
AcDbEntity
  8
BLACK
  6
Continuous
100
AcDbLine
 10
114.8125
 20
-31.049999
 30
0.0
 11
104.2625
 21
-31.049999
 31
0.0
  0
LINE
  5
662
330
1D
100
AcDbEntity
  8
BLACK
  6
Continuous
100
AcDbLine
 10
102.1875
 20
-33.124999
 30
0.0
 11
102.1875
 21
-43.05463
 31
0.0
  0
LINE
  5
663
330
1D
100
AcDbEntity
  8
BLACK
  6
Continuous
100
AcDbLine
 10
116.8875
 20
-33.124999
 30
0.0
 11
116.8875
 21
-43.074999
 31
0.0
  0
ARC
  5
664
330
1D
100
AcDbEntity
  8
BLACK
100
AcDbCircle
 10
114.8123
 20
-43.07489899999999
 30
0.0
 40
2.075200002409406
100
AcDbArc
 50
269.4431294
 51
359.9972390200001
  0
LINE
  5
665
330
1D
100
AcDbEntity
  8
BLACK
  6
Continuous
100
AcDbLine
 10
152.9125
 20
-31.049999
 30
0.0
 11
142.3625
 21
-31.049999
 31
0.0
  0
ARC
  5
666
330
1D
100
AcDbEntity
  8
BLACK
100
AcDbCircle
 10
104.2624
 20
-33.124999
 30
0.0
 40
2.0749
100
AcDbArc
 50
89.99723871000002
 51
180.0
  0
ARC
  5
667
330
1D
100
AcDbEntity
  8
BLACK
100
AcDbCircle
 10
114.8125
 20
-33.124899
 30
0.0
 40
2.0749
100
AcDbArc
 50
359.9972387099999
 51
90.0
  0
ARC
  5
668
330
1D
100
AcDbEntity
  8
BLACK
100
AcDbCircle
 10
104.2626
 20
-43.074799
 30
0.0
 40
2.075200002409406
100
AcDbArc
 50
179.4431294
 51
269.99723902
  0
LINE
  5
669
330
1D
100
AcDbEntity
  8
BLACK
  6
Continuous
100
AcDbLine
 10
114.792131
 20
-45.149999
 30
0.0
 11
104.2625
 21
-45.149999
 31
0.0
  0
LINE
  5
66A
330
1D
100
AcDbEntity
  8
BLACK
  6
Continuous
100
AcDbLine
 10
95.76249999999999
 20
-31.049999
 30
0.0
 11
85.21249999999999
 21
-31.049999
 31
0.0
  0
LINE
  5
66B
330
1D
100
AcDbEntity
  8
BLACK
  6
Continuous
100
AcDbLine
 10
83.1375
 20
-33.124999
 30
0.0
 11
83.1375
 21
-43.05463
 31
0.0
  0
LINE
  5
66C
330
1D
100
AcDbEntity
  8
BLACK
  6
Continuous
100
AcDbLine
 10
97.83749999999999
 20
-33.124999
 30
0.0
 11
97.83749999999999
 21
-43.07489899999999
 31
0.0
  0
ARC
  5
66D
330
1D
100
AcDbEntity
  8
BLACK
100
AcDbCircle
 10
95.7623
 20
-43.07489899999999
 30
0.0
 40
2.0752
100
AcDbArc
 50
269.4431294
 51
0.0
  0
LINE
  5
66E
330
1D
100
AcDbEntity
  8
BLACK
  6
Continuous
100
AcDbLine
 10
95.742131
 20
-45.149999
 30
0.0
 11
85.21249999999999
 21
-45.149999
 31
0.0
  0
ARC
  5
66F
330
1D
100
AcDbEntity
  8
BLACK
100
AcDbCircle
 10
95.76249999999999
 20
-33.124899
 30
0.0
 40
2.0749
100
AcDbArc
 50
359.9972387099999
 51
90.0
  0
ARC
  5
670
330
1D
100
AcDbEntity
  8
BLACK
100
AcDbCircle
 10
85.2124
 20
-33.124999
 30
0.0
 40
2.0749
100
AcDbArc
 50
89.99723871000002
 51
180.0
  0
ARC
  5
671
330
1D
100
AcDbEntity
  8
BLACK
100
AcDbCircle
 10
85.2126
 20
-43.074799
 30
0.0
 40
2.075200002409406
100
AcDbArc
 50
179.4431294
 51
269.99723902
  0
LINE
  5
672
330
1D
100
AcDbEntity
  8
BLACK
  6
Continuous
100
AcDbLine
 10
64.08749999999999
 20
-33.124999
 30
0.0
 11
64.08749999999999
 21
-43.05463
 31
0.0
  0
LINE
  5
673
330
1D
100
AcDbEntity
  8
BLACK
  6
Continuous
100
AcDbLine
 10
78.7875
 20
-33.124999
 30
0.0
 11
78.7875
 21
-43.074999
 31
0.0
  0
ARC
  5
674
330
1D
100
AcDbEntity
  8
BLACK
100
AcDbCircle
 10
76.7123
 20
-43.07489899999999
 30
0.0
 40
2.075200002409406
100
AcDbArc
 50
269.4431294
 51
359.9972390200001
  0
ARC
  5
675
330
1D
100
AcDbEntity
  8
BLACK
100
AcDbCircle
 10
76.71249999999999
 20
-33.124899
 30
0.0
 40
2.0749
100
AcDbArc
 50
359.9972387099999
 51
90.0
  0
LINE
  5
676
330
1D
100
AcDbEntity
  8
BLACK
  6
Continuous
100
AcDbLine
 10
76.692131
 20
-45.149999
 30
0.0
 11
66.1625
 21
-45.149999
 31
0.0
  0
ARC
  5
677
330
1D
100
AcDbEntity
  8
BLACK
100
AcDbCircle
 10
66.16239999999999
 20
-33.124999
 30
0.0
 40
2.0749
100
AcDbArc
 50
89.99723871000002
 51
180.0
  0
ARC
  5
678
330
1D
100
AcDbEntity
  8
BLACK
100
AcDbCircle
 10
66.1626
 20
-43.074799
 30
0.0
 40
2.075200002409406
100
AcDbArc
 50
179.4431294
 51
269.99723902
  0
LINE
  5
679
330
1D
100
AcDbEntity
  8
BLACK
  6
Continuous
100
AcDbLine
 10
57.66249999999999
 20
-31.049999
 30
0.0
 11
47.1125
 21
-31.049999
 31
0.0
  0
LINE
  5
67A
330
1D
100
AcDbEntity
  8
BLACK
  6
Continuous
100
AcDbLine
 10
45.0375
 20
-33.124999
 30
0.0
 11
45.0375
 21
-43.05463
 31
0.0
  0
LINE
  5
67B
330
1D
100
AcDbEntity
  8
BLACK
  6
Continuous
100
AcDbLine
 10
59.7375
 20
-33.124999
 30
0.0
 11
59.7375
 21
-43.07489899999999
 31
0.0
  0
ARC
  5
67C
330
1D
100
AcDbEntity
  8
BLACK
100
AcDbCircle
 10
57.66229999999999
 20
-43.07489899999999
 30
0.0
 40
2.0752
100
AcDbArc
 50
269.4431294
 51
0.0
  0
LINE
  5
67D
330
1D
100
AcDbEntity
  8
BLACK
  6
Continuous
100
AcDbLine
 10
57.642131
 20
-45.149999
 30
0.0
 11
47.1125
 21
-45.149999
 31
0.0
  0
ARC
  5
67E
330
1D
100
AcDbEntity
  8
BLACK
100
AcDbCircle
 10
57.66249999999999
 20
-33.124899
 30
0.0
 40
2.0749
100
AcDbArc
 50
359.9972387099999
 51
90.0
  0
ARC
  5
67F
330
1D
100
AcDbEntity
  8
BLACK
100
AcDbCircle
 10
47.1124
 20
-33.124999
 30
0.0
 40
2.0749
100
AcDbArc
 50
89.99723871000002
 51
180.0
  0
ARC
  5
680
330
1D
100
AcDbEntity
  8
BLACK
100
AcDbCircle
 10
47.1126
 20
-43.074799
 30
0.0
 40
2.075200002409406
100
AcDbArc
 50
179.4431294
 51
269.99723902
  0
LINE
  5
681
330
1D
100
AcDbEntity
  8
BLACK
  6
Continuous
100
AcDbLine
 10
38.6125
 20
-31.049999
 30
0.0
 11
28.0625
 21
-31.049999
 31
0.0
  0
LINE
  5
682
330
1D
100
AcDbEntity
  8
BLACK
  6
Continuous
100
AcDbLine
 10
25.9875
 20
-33.124999
 30
0.0
 11
25.9875
 21
-43.074999
 31
0.0
  0
LINE
  5
683
330
1D
100
AcDbEntity
  8
BLACK
  6
Continuous
100
AcDbLine
 10
40.6875
 20
-33.124999
 30
0.0
 11
40.6875
 21
-43.074999
 31
0.0
  0
ARC
  5
684
330
1D
100
AcDbEntity
  8
BLACK
100
AcDbCircle
 10
38.6125
 20
-43.074999
 30
0.0
 40
2.075
100
AcDbArc
 50
270.0
 51
0.0
  0
ARC
  5
685
330
1D
100
AcDbEntity
  8
BLACK
100
AcDbCircle
 10
28.0625
 20
-33.124999
 30
0.0
 40
2.075
100
AcDbArc
 50
90.0
 51
180.0
  0
ARC
  5
686
330
1D
100
AcDbEntity
  8
BLACK
100
AcDbCircle
 10
28.0625
 20
-43.074999
 30
0.0
 40
2.075
100
AcDbArc
 50
180.0
 51
270.0
  0
ARC
  5
687
330
1D
100
AcDbEntity
  8
BLACK
100
AcDbCircle
 10
38.6125
 20
-33.124999
 30
0.0
 40
2.075
100
AcDbArc
 50
0.0
 51
90.0
  0
LINE
  5
688
330
1D
100
AcDbEntity
  8
BLACK
  6
Continuous
100
AcDbLine
 10
38.6125
 20
-45.149999
 30
0.0
 11
28.0625
 21
-45.149999
 31
0.0
  0
LINE
  5
689
330
1D
100
AcDbEntity
  8
BLACK
  6
Continuous
100
AcDbLine
 10
76.71249999999999
 20
-31.049999
 30
0.0
 11
66.1625
 21
-31.049999
 31
0.0
  0
LINE
  5
68A
330
1D
100
AcDbEntity
  8
BLACK
  6
Continuous
100
AcDbLine
 10
243.4
 20
-11.999999
 30
0.0
 11
232.85
 21
-11.999999
 31
0.0
  0
LINE
  5
68B
330
1D
100
AcDbEntity
  8
BLACK
  6
Continuous
100
AcDbLine
 10
230.775
 20
-14.074999
 30
0.0
 11
230.775
 21
-24.00463
 31
0.0
  0
LINE
  5
68C
330
1D
100
AcDbEntity
  8
BLACK
  6
Continuous
100
AcDbLine
 10
245.475
 20
-14.074999
 30
0.0
 11
245.475
 21
-24.024899
 31
0.0
  0
ARC
  5
68D
330
1D
100
AcDbEntity
  8
BLACK
100
AcDbCircle
 10
243.3998
 20
-24.024899
 30
0.0
 40
2.0752
100
AcDbArc
 50
269.4431294
 51
0.0
  0
LINE
  5
68E
330
1D
100
AcDbEntity
  8
BLACK
  6
Continuous
100
AcDbLine
 10
243.379631
 20
-26.099999
 30
0.0
 11
232.85
 21
-26.099999
 31
0.0
  0
ARC
  5
68F
330
1D
100
AcDbEntity
  8
BLACK
100
AcDbCircle
 10
243.4
 20
-14.074899
 30
0.0
 40
2.0749
100
AcDbArc
 50
359.9972387099999
 51
90.0
  0
ARC
  5
690
330
1D
100
AcDbEntity
  8
BLACK
100
AcDbCircle
 10
232.8499
 20
-14.074999
 30
0.0
 40
2.0749
100
AcDbArc
 50
89.99723871000002
 51
180.0
  0
ARC
  5
691
330
1D
100
AcDbEntity
  8
BLACK
100
AcDbCircle
 10
232.8501
 20
-24.024799
 30
0.0
 40
2.075200002409406
100
AcDbArc
 50
179.4431294
 51
269.99723902
  0
LINE
  5
692
330
1D
100
AcDbEntity
  8
BLACK
  6
Continuous
100
AcDbLine
 10
211.725
 20
-14.074999
 30
0.0
 11
211.725
 21
-24.00463
 31
0.0
  0
LINE
  5
693
330
1D
100
AcDbEntity
  8
BLACK
  6
Continuous
100
AcDbLine
 10
226.425
 20
-14.074999
 30
0.0
 11
226.425
 21
-24.024999
 31
0.0
  0
ARC
  5
694
330
1D
100
AcDbEntity
  8
BLACK
100
AcDbCircle
 10
224.3498
 20
-24.024899
 30
0.0
 40
2.075200002409406
100
AcDbArc
 50
269.4431294
 51
359.9972390200001
  0
ARC
  5
695
330
1D
100
AcDbEntity
  8
BLACK
100
AcDbCircle
 10
224.35
 20
-14.074899
 30
0.0
 40
2.0749
100
AcDbArc
 50
359.9972387099999
 51
90.0
  0
LINE
  5
696
330
1D
100
AcDbEntity
  8
BLACK
  6
Continuous
100
AcDbLine
 10
224.329631
 20
-26.099999
 30
0.0
 11
213.8
 21
-26.099999
 31
0.0
  0
ARC
  5
697
330
1D
100
AcDbEntity
  8
BLACK
100
AcDbCircle
 10
213.7999
 20
-14.074999
 30
0.0
 40
2.0749
100
AcDbArc
 50
89.99723871000002
 51
180.0
  0
LINE
  5
698
330
1D
100
AcDbEntity
  8
BLACK
  6
Continuous
100
AcDbLine
 10
205.3
 20
-11.999999
 30
0.0
 11
194.75
 21
-11.999999
 31
0.0
  0
LINE
  5
699
330
1D
100
AcDbEntity
  8
BLACK
  6
Continuous
100
AcDbLine
 10
192.675
 20
-14.074999
 30
0.0
 11
192.675
 21
-24.00463
 31
0.0
  0
LINE
  5
69A
330
1D
100
AcDbEntity
  8
BLACK
  6
Continuous
100
AcDbLine
 10
207.375
 20
-14.074999
 30
0.0
 11
207.375
 21
-24.024899
 31
0.0
  0
ARC
  5
69B
330
1D
100
AcDbEntity
  8
BLACK
100
AcDbCircle
 10
205.2998
 20
-24.024899
 30
0.0
 40
2.0752
100
AcDbArc
 50
269.4431294
 51
0.0
  0
LINE
  5
69C
330
1D
100
AcDbEntity
  8
BLACK
  6
Continuous
100
AcDbLine
 10
205.279631
 20
-26.099999
 30
0.0
 11
194.75
 21
-26.099999
 31
0.0
  0
ARC
  5
69D
330
1D
100
AcDbEntity
  8
BLACK
100
AcDbCircle
 10
205.3
 20
-14.074899
 30
0.0
 40
2.0749
100
AcDbArc
 50
359.9972387099999
 51
90.0
  0
ARC
  5
69E
330
1D
100
AcDbEntity
  8
BLACK
100
AcDbCircle
 10
194.7499
 20
-14.074999
 30
0.0
 40
2.0749
100
AcDbArc
 50
89.99723871000002
 51
180.0
  0
ARC
  5
69F
330
1D
100
AcDbEntity
  8
BLACK
100
AcDbCircle
 10
194.7501
 20
-24.024799
 30
0.0
 40
2.075200002409406
100
AcDbArc
 50
179.4431294
 51
269.99723902
  0
LINE
  5
6A0
330
1D
100
AcDbEntity
  8
BLACK
  6
Continuous
100
AcDbLine
 10
186.25
 20
-11.999999
 30
0.0
 11
175.7
 21
-11.999999
 31
0.0
  0
LINE
  5
6A1
330
1D
100
AcDbEntity
  8
BLACK
  6
Continuous
100
AcDbLine
 10
173.625
 20
-14.074999
 30
0.0
 11
173.625
 21
-24.00463
 31
0.0
  0
LINE
  5
6A2
330
1D
100
AcDbEntity
  8
BLACK
  6
Continuous
100
AcDbLine
 10
188.325
 20
-14.074999
 30
0.0
 11
188.325
 21
-24.024999
 31
0.0
  0
ARC
  5
6A3
330
1D
100
AcDbEntity
  8
BLACK
100
AcDbCircle
 10
186.2498
 20
-24.024899
 30
0.0
 40
2.075200002409406
100
AcDbArc
 50
269.4431294
 51
359.9972390200001
  0
LINE
  5
6A4
330
1D
100
AcDbEntity
  8
BLACK
  6
Continuous
100
AcDbLine
 10
224.35
 20
-11.999999
 30
0.0
 11
213.8
 21
-11.999999
 31
0.0
  0
ARC
  5
6A5
330
1D
100
AcDbEntity
  8
BLACK
100
AcDbCircle
 10
175.6999
 20
-14.074999
 30
0.0
 40
2.0749
100
AcDbArc
 50
89.99723871000002
 51
180.0
  0
ARC
  5
6A6
330
1D
100
AcDbEntity
  8
BLACK
100
AcDbCircle
 10
175.7001
 20
-24.024799
 30
0.0
 40
2.075200002409406
100
AcDbArc
 50
179.4431294
 51
269.99723902
  0
ARC
  5
6A7
330
1D
100
AcDbEntity
  8
BLACK
100
AcDbCircle
 10
186.25
 20
-14.074899
 30
0.0
 40
2.0749
100
AcDbArc
 50
359.9972387099999
 51
90.0
  0
LINE
  5
6A8
330
1D
100
AcDbEntity
  8
BLACK
  6
Continuous
100
AcDbLine
 10
186.229631
 20
-26.099999
 30
0.0
 11
175.7
 21
-26.099999
 31
0.0
  0
LINE
  5
6A9
330
1D
100
AcDbEntity
  8
BLACK
  6
Continuous
100
AcDbLine
 10
167.2
 20
-11.999999
 30
0.0
 11
156.65
 21
-11.999999
 31
0.0
  0
LINE
  5
6AA
330
1D
100
AcDbEntity
  8
BLACK
  6
Continuous
100
AcDbLine
 10
154.575
 20
-14.074999
 30
0.0
 11
154.575
 21
-24.00463
 31
0.0
  0
LINE
  5
6AB
330
1D
100
AcDbEntity
  8
BLACK
  6
Continuous
100
AcDbLine
 10
169.275
 20
-14.074999
 30
0.0
 11
169.275
 21
-24.024899
 31
0.0
  0
ARC
  5
6AC
330
1D
100
AcDbEntity
  8
BLACK
100
AcDbCircle
 10
167.1998
 20
-24.024899
 30
0.0
 40
2.0752
100
AcDbArc
 50
269.4431294
 51
0.0
  0
LINE
  5
6AD
330
1D
100
AcDbEntity
  8
BLACK
  6
Continuous
100
AcDbLine
 10
167.179631
 20
-26.099999
 30
0.0
 11
156.65
 21
-26.099999
 31
0.0
  0
ARC
  5
6AE
330
1D
100
AcDbEntity
  8
BLACK
100
AcDbCircle
 10
167.2
 20
-14.074899
 30
0.0
 40
2.0749
100
AcDbArc
 50
359.9972387099999
 51
90.0
  0
ARC
  5
6AF
330
1D
100
AcDbEntity
  8
BLACK
100
AcDbCircle
 10
156.6499
 20
-14.074999
 30
0.0
 40
2.0749
100
AcDbArc
 50
89.99723871000002
 51
180.0
  0
ARC
  5
6B0
330
1D
100
AcDbEntity
  8
BLACK
100
AcDbCircle
 10
156.6501
 20
-24.024799
 30
0.0
 40
2.075200002409406
100
AcDbArc
 50
179.4431294
 51
269.99723902
  0
LINE
  5
6B1
330
1D
100
AcDbEntity
  8
BLACK
  6
Continuous
100
AcDbLine
 10
135.525
 20
-14.074999
 30
0.0
 11
135.525
 21
-24.00463
 31
0.0
  0
LINE
  5
6B2
330
1D
100
AcDbEntity
  8
BLACK
  6
Continuous
100
AcDbLine
 10
150.225
 20
-14.074999
 30
0.0
 11
150.225
 21
-24.024899
 31
0.0
  0
ARC
  5
6B3
330
1D
100
AcDbEntity
  8
BLACK
100
AcDbCircle
 10
148.1498
 20
-24.024899
 30
0.0
 40
2.0752
100
AcDbArc
 50
269.4431294
 51
0.0
  0
ARC
  5
6B4
330
1D
100
AcDbEntity
  8
BLACK
100
AcDbCircle
 10
148.15
 20
-14.074899
 30
0.0
 40
2.0749
100
AcDbArc
 50
359.9972387099999
 51
90.0
  0
LINE
  5
6B5
330
1D
100
AcDbEntity
  8
BLACK
  6
Continuous
100
AcDbLine
 10
148.129631
 20
-26.099999
 30
0.0
 11
137.6
 21
-26.099999
 31
0.0
  0
ARC
  5
6B6
330
1D
100
AcDbEntity
  8
BLACK
100
AcDbCircle
 10
137.5999
 20
-14.074999
 30
0.0
 40
2.0749
100
AcDbArc
 50
89.99723871000002
 51
180.0
  0
ARC
  5
6B7
330
1D
100
AcDbEntity
  8
BLACK
100
AcDbCircle
 10
137.6001
 20
-24.024799
 30
0.0
 40
2.075200002409406
100
AcDbArc
 50
179.4431294
 51
269.99723902
  0
LINE
  5
6B8
330
1D
100
AcDbEntity
  8
BLACK
  6
Continuous
100
AcDbLine
 10
129.1
 20
-11.999999
 30
0.0
 11
118.55
 21
-11.999999
 31
0.0
  0
LINE
  5
6B9
330
1D
100
AcDbEntity
  8
BLACK
  6
Continuous
100
AcDbLine
 10
116.475
 20
-14.074999
 30
0.0
 11
116.475
 21
-24.00463
 31
0.0
  0
LINE
  5
6BA
330
1D
100
AcDbEntity
  8
BLACK
  6
Continuous
100
AcDbLine
 10
131.175
 20
-14.074999
 30
0.0
 11
131.175
 21
-24.024999
 31
0.0
  0
LINE
  5
6BB
330
1D
100
AcDbEntity
  8
BLACK
  6
Continuous
100
AcDbLine
 10
129.079631
 20
-26.099999
 30
0.0
 11
118.55
 21
-26.099999
 31
0.0
  0
ARC
  5
6BC
330
1D
100
AcDbEntity
  8
BLACK
100
AcDbCircle
 10
129.1
 20
-14.074899
 30
0.0
 40
2.0749
100
AcDbArc
 50
359.9972387099999
 51
90.0
  0
ARC
  5
6BD
330
1D
100
AcDbEntity
  8
BLACK
100
AcDbCircle
 10
118.5499
 20
-14.074999
 30
0.0
 40
2.0749
100
AcDbArc
 50
89.99723871000002
 51
180.0
  0
ARC
  5
6BE
330
1D
100
AcDbEntity
  8
BLACK
100
AcDbCircle
 10
118.5501
 20
-24.024799
 30
0.0
 40
2.075200002409406
100
AcDbArc
 50
179.4431294
 51
269.99723902
  0
LINE
  5
6BF
330
1D
100
AcDbEntity
  8
BLACK
  6
Continuous
100
AcDbLine
 10
110.05
 20
-11.999999
 30
0.0
 11
99.5
 21
-11.999999
 31
0.0
  0
LINE
  5
6C0
330
1D
100
AcDbEntity
  8
BLACK
  6
Continuous
100
AcDbLine
 10
97.425
 20
-14.074999
 30
0.0
 11
97.425
 21
-24.00463
 31
0.0
  0
LINE
  5
6C1
330
1D
100
AcDbEntity
  8
BLACK
  6
Continuous
100
AcDbLine
 10
112.125
 20
-14.074999
 30
0.0
 11
112.125
 21
-24.024999
 31
0.0
  0
ARC
  5
6C2
330
1D
100
AcDbEntity
  8
BLACK
100
AcDbCircle
 10
110.0498
 20
-24.024899
 30
0.0
 40
2.075200002409406
100
AcDbArc
 50
269.4431294
 51
359.9972390200001
  0
LINE
  5
6C3
330
1D
100
AcDbEntity
  8
BLACK
  6
Continuous
100
AcDbLine
 10
148.15
 20
-11.999999
 30
0.0
 11
137.6
 21
-11.999999
 31
0.0
  0
ARC
  5
6C4
330
1D
100
AcDbEntity
  8
BLACK
100
AcDbCircle
 10
99.4999
 20
-14.074999
 30
0.0
 40
2.0749
100
AcDbArc
 50
89.99723871000002
 51
180.0
  0
ARC
  5
6C5
330
1D
100
AcDbEntity
  8
BLACK
100
AcDbCircle
 10
110.05
 20
-14.074899
 30
0.0
 40
2.0749
100
AcDbArc
 50
359.9972387099999
 51
90.0
  0
ARC
  5
6C6
330
1D
100
AcDbEntity
  8
BLACK
100
AcDbCircle
 10
99.50009999999999
 20
-24.024799
 30
0.0
 40
2.075200002409406
100
AcDbArc
 50
179.4431294
 51
269.99723902
  0
LINE
  5
6C7
330
1D
100
AcDbEntity
  8
BLACK
  6
Continuous
100
AcDbLine
 10
110.029631
 20
-26.099999
 30
0.0
 11
99.5
 21
-26.099999
 31
0.0
  0
ARC
  5
6C8
330
1D
100
AcDbEntity
  8
BLACK
100
AcDbCircle
 10
213.8001
 20
-24.024799
 30
0.0
 40
2.075200002409406
100
AcDbArc
 50
179.4431294
 51
269.99723902
  0
ARC
  5
6C9
330
1D
100
AcDbEntity
  8
BLACK
100
AcDbCircle
 10
129.0998
 20
-24.024899
 30
0.0
 40
2.075200002409406
100
AcDbArc
 50
269.4431294
 51
359.9972390200001
  0
LINE
  5
6CA
330
1D
100
AcDbEntity
  8
BLACK
  6
Continuous
100
AcDbLine
 10
91.0
 20
-11.999999
 30
0.0
 11
80.45
 21
-11.999999
 31
0.0
  0
LINE
  5
6CB
330
1D
100
AcDbEntity
  8
BLACK
  6
Continuous
100
AcDbLine
 10
78.375
 20
-14.074999
 30
0.0
 11
78.375
 21
-24.00463
 31
0.0
  0
LINE
  5
6CC
330
1D
100
AcDbEntity
  8
BLACK
  6
Continuous
100
AcDbLine
 10
93.075
 20
-14.074999
 30
0.0
 11
93.075
 21
-24.024899
 31
0.0
  0
ARC
  5
6CD
330
1D
100
AcDbEntity
  8
BLACK
100
AcDbCircle
 10
90.9998
 20
-24.024899
 30
0.0
 40
2.0752
100
AcDbArc
 50
269.4431294
 51
0.0
  0
LINE
  5
6CE
330
1D
100
AcDbEntity
  8
BLACK
  6
Continuous
100
AcDbLine
 10
90.979631
 20
-26.099999
 30
0.0
 11
80.45
 21
-26.099999
 31
0.0
  0
ARC
  5
6CF
330
1D
100
AcDbEntity
  8
BLACK
100
AcDbCircle
 10
91.0
 20
-14.074899
 30
0.0
 40
2.0749
100
AcDbArc
 50
359.9972387099999
 51
90.0
  0
ARC
  5
6D0
330
1D
100
AcDbEntity
  8
BLACK
100
AcDbCircle
 10
80.4499
 20
-14.074999
 30
0.0
 40
2.0749
100
AcDbArc
 50
89.99723871000002
 51
180.0
  0
ARC
  5
6D1
330
1D
100
AcDbEntity
  8
BLACK
100
AcDbCircle
 10
80.45009999999999
 20
-24.024799
 30
0.0
 40
2.075200002409406
100
AcDbArc
 50
179.4431294
 51
269.99723902
  0
LINE
  5
6D2
330
1D
100
AcDbEntity
  8
BLACK
  6
Continuous
100
AcDbLine
 10
59.325
 20
-14.074999
 30
0.0
 11
59.325
 21
-24.00463
 31
0.0
  0
LINE
  5
6D3
330
1D
100
AcDbEntity
  8
BLACK
  6
Continuous
100
AcDbLine
 10
74.02499999999999
 20
-14.074999
 30
0.0
 11
74.02499999999999
 21
-24.024999
 31
0.0
  0
ARC
  5
6D4
330
1D
100
AcDbEntity
  8
BLACK
100
AcDbCircle
 10
71.9498
 20
-24.024899
 30
0.0
 40
2.075200002409406
100
AcDbArc
 50
269.4431294
 51
359.9972390200001
  0
ARC
  5
6D5
330
1D
100
AcDbEntity
  8
BLACK
100
AcDbCircle
 10
71.95
 20
-14.074899
 30
0.0
 40
2.0749
100
AcDbArc
 50
359.9972387099999
 51
90.0
  0
LINE
  5
6D6
330
1D
100
AcDbEntity
  8
BLACK
  6
Continuous
100
AcDbLine
 10
71.929631
 20
-26.099999
 30
0.0
 11
61.4
 21
-26.099999
 31
0.0
  0
ARC
  5
6D7
330
1D
100
AcDbEntity
  8
BLACK
100
AcDbCircle
 10
61.3999
 20
-14.074999
 30
0.0
 40
2.0749
100
AcDbArc
 50
89.99723871000002
 51
180.0
  0
ARC
  5
6D8
330
1D
100
AcDbEntity
  8
BLACK
100
AcDbCircle
 10
61.40009999999999
 20
-24.024799
 30
0.0
 40
2.075200002409406
100
AcDbArc
 50
179.4431294
 51
269.99723902
  0
LINE
  5
6D9
330
1D
100
AcDbEntity
  8
BLACK
  6
Continuous
100
AcDbLine
 10
52.9
 20
-11.999999
 30
0.0
 11
42.35
 21
-11.999999
 31
0.0
  0
LINE
  5
6DA
330
1D
100
AcDbEntity
  8
BLACK
  6
Continuous
100
AcDbLine
 10
40.275
 20
-14.074969
 30
0.0
 11
40.275
 21
-24.00463
 31
0.0
  0
LINE
  5
6DB
330
1D
100
AcDbEntity
  8
BLACK
  6
Continuous
100
AcDbLine
 10
54.97499999999999
 20
-14.074999
 30
0.0
 11
54.97499999999999
 21
-24.024899
 31
0.0
  0
ARC
  5
6DC
330
1D
100
AcDbEntity
  8
BLACK
100
AcDbCircle
 10
52.8998
 20
-24.024899
 30
0.0
 40
2.0752
100
AcDbArc
 50
269.4431294
 51
0.0
  0
LINE
  5
6DD
330
1D
100
AcDbEntity
  8
BLACK
  6
Continuous
100
AcDbLine
 10
52.879631
 20
-26.099999
 30
0.0
 11
42.35
 21
-26.099999
 31
0.0
  0
ARC
  5
6DE
330
1D
100
AcDbEntity
  8
BLACK
100
AcDbCircle
 10
52.9
 20
-14.074899
 30
0.0
 40
2.0749
100
AcDbArc
 50
359.9972387099999
 51
90.0
  0
ARC
  5
6DF
330
1D
100
AcDbEntity
  8
BLACK
100
AcDbCircle
 10
42.34994
 20
-14.074969
 30
0.0
 40
2.07494
100
AcDbArc
 50
89.9983432
 51
180.0
  0
LINE
  5
72A
330
1D
100
AcDbEntity
  8
BLACK
  6
Continuous
100
AcDbLine
 10
271.975
 20
7.05
 30
0.0
 11
261.424999
 21
7.05
 31
0.0
  0
LINE
  5
72B
330
1D
100
AcDbEntity
  8
BLACK
  6
Continuous
100
AcDbLine
 10
259.35
 20
4.975
 30
0.0
 11
259.35
 21
-4.975001
 31
0.0
  0
LINE
  5
72C
330
1D
100
AcDbEntity
  8
BLACK
  6
Continuous
100
AcDbLine
 10
274.05
 20
4.975
 30
0.0
 11
274.05
 21
-4.975
 31
0.0
  0
ARC
  5
72D
330
1D
100
AcDbEntity
  8
BLACK
100
AcDbCircle
 10
271.975
 20
-4.975
 30
0.0
 40
2.075
100
AcDbArc
 50
270.0
 51
0.0
  0
LINE
  5
72E
330
1D
100
AcDbEntity
  8
BLACK
  6
Continuous
100
AcDbLine
 10
271.975
 20
-7.05
 30
0.0
 11
261.425
 21
-7.05
 31
0.0
  0
ARC
  5
72F
330
1D
100
AcDbEntity
  8
BLACK
100
AcDbCircle
 10
271.975
 20
4.975
 30
0.0
 40
2.075
100
AcDbArc
 50
0.0
 51
90.0
  0
ARC
  5
730
330
1D
100
AcDbEntity
  8
BLACK
100
AcDbCircle
 10
261.425004
 20
4.974996
 30
0.0
 40
2.075004000003855
100
AcDbArc
 50
90.00013806
 51
179.99988955
  0
ARC
  5
731
330
1D
100
AcDbEntity
  8
BLACK
100
AcDbCircle
 10
261.425002
 20
-4.974997999999999
 30
0.0
 40
2.075002000000964
100
AcDbArc
 50
180.00008284
 51
269.99994478
  0
LINE
  5
732
330
1D
100
AcDbEntity
  8
BLACK
  6
Continuous
100
AcDbLine
 10
252.925
 20
7.05
 30
0.0
 11
242.374999
 21
7.05
 31
0.0
  0
LINE
  5
733
330
1D
100
AcDbEntity
  8
BLACK
  6
Continuous
100
AcDbLine
 10
240.3
 20
4.975
 30
0.0
 11
240.3
 21
-4.975001
 31
0.0
  0
LINE
  5
734
330
1D
100
AcDbEntity
  8
BLACK
  6
Continuous
100
AcDbLine
 10
255.0
 20
4.975
 30
0.0
 11
255.0
 21
-4.975
 31
0.0
  0
ARC
  5
735
330
1D
100
AcDbEntity
  8
BLACK
100
AcDbCircle
 10
252.925
 20
-4.975
 30
0.0
 40
2.075
100
AcDbArc
 50
270.0
 51
0.0
  0
LINE
  5
736
330
1D
100
AcDbEntity
  8
BLACK
  6
Continuous
100
AcDbLine
 10
252.925
 20
-7.05
 30
0.0
 11
242.375
 21
-7.05
 31
0.0
  0
ARC
  5
737
330
1D
100
AcDbEntity
  8
BLACK
100
AcDbCircle
 10
252.925
 20
4.975
 30
0.0
 40
2.075
100
AcDbArc
 50
0.0
 51
90.0
  0
ARC
  5
738
330
1D
100
AcDbEntity
  8
BLACK
100
AcDbCircle
 10
242.375004
 20
4.974996
 30
0.0
 40
2.075004000003855
100
AcDbArc
 50
90.00013806
 51
179.99988955
  0
ARC
  5
739
330
1D
100
AcDbEntity
  8
BLACK
100
AcDbCircle
 10
242.375002
 20
-4.974997999999999
 30
0.0
 40
2.075002000000964
100
AcDbArc
 50
180.00008284
 51
269.99994478
  0
LINE
  5
73B
330
1D
100
AcDbEntity
  8
BLACK
  6
Continuous
100
AcDbLine
 10
7.65625
 20
-50.09999999999999
 30
0.0
 11
-2.893751
 21
-50.09999999999999
 31
0.0
  0
LINE
  5
73C
330
1D
100
AcDbEntity
  8
BLACK
  6
Continuous
100
AcDbLine
 10
-4.96875
 20
-52.175
 30
0.0
 11
-4.96875
 21
-62.125001
 31
0.0
  0
LINE
  5
73D
330
1D
100
AcDbEntity
  8
BLACK
  6
Continuous
100
AcDbLine
 10
9.73125
 20
-52.175
 30
0.0
 11
9.73125
 21
-62.125
 31
0.0
  0
ARC
  5
73E
330
1D
100
AcDbEntity
  8
BLACK
100
AcDbCircle
 10
7.65625
 20
-62.125
 30
0.0
 40
2.075
100
AcDbArc
 50
270.0
 51
0.0
  0
LINE
  5
73F
330
1D
100
AcDbEntity
  8
BLACK
  6
Continuous
100
AcDbLine
 10
7.65625
 20
-64.2
 30
0.0
 11
-2.89375
 21
-64.2
 31
0.0
  0
ARC
  5
740
330
1D
100
AcDbEntity
  8
BLACK
100
AcDbCircle
 10
7.65625
 20
-52.175
 30
0.0
 40
2.075
100
AcDbArc
 50
0.0
 51
90.0
  0
ARC
  5
741
330
1D
100
AcDbEntity
  8
BLACK
100
AcDbCircle
 10
-2.893746
 20
-52.17500399999999
 30
0.0
 40
2.075004000003855
100
AcDbArc
 50
90.00013806
 51
179.99988955
  0
ARC
  5
742
330
1D
100
AcDbEntity
  8
BLACK
100
AcDbCircle
 10
-2.893748
 20
-62.124998
 30
0.0
 40
2.075002000000964
100
AcDbArc
 50
180.00008284
 51
269.99994478
  0
LINE
  5
743
330
1D
100
AcDbEntity
  8
BLACK
  6
Continuous
100
AcDbLine
 10
29.0875
 20
-50.09999999999999
 30
0.0
 11
18.537499
 21
-50.09999999999999
 31
0.0
  0
LINE
  5
744
330
1D
100
AcDbEntity
  8
BLACK
  6
Continuous
100
AcDbLine
 10
16.4625
 20
-52.175
 30
0.0
 11
16.4625
 21
-62.125001
 31
0.0
  0
LINE
  5
745
330
1D
100
AcDbEntity
  8
BLACK
  6
Continuous
100
AcDbLine
 10
31.1625
 20
-52.175
 30
0.0
 11
31.1625
 21
-62.125
 31
0.0
  0
ARC
  5
746
330
1D
100
AcDbEntity
  8
BLACK
100
AcDbCircle
 10
29.0875
 20
-62.125
 30
0.0
 40
2.075
100
AcDbArc
 50
270.0
 51
0.0
  0
LINE
  5
747
330
1D
100
AcDbEntity
  8
BLACK
  6
Continuous
100
AcDbLine
 10
29.0875
 20
-64.2
 30
0.0
 11
18.5375
 21
-64.2
 31
0.0
  0
ARC
  5
748
330
1D
100
AcDbEntity
  8
BLACK
100
AcDbCircle
 10
29.0875
 20
-52.175
 30
0.0
 40
2.075
100
AcDbArc
 50
0.0
 51
90.0
  0
ARC
  5
749
330
1D
100
AcDbEntity
  8
BLACK
100
AcDbCircle
 10
18.537504
 20
-52.17500399999999
 30
0.0
 40
2.075004000003855
100
AcDbArc
 50
90.00013806
 51
179.99988955
  0
ARC
  5
74A
330
1D
100
AcDbEntity
  8
BLACK
100
AcDbCircle
 10
18.537502
 20
-62.124998
 30
0.0
 40
2.075002000000964
100
AcDbArc
 50
180.00008284
 51
269.99994478
  0
LINE
  5
74B
330
1D
100
AcDbEntity
  8
BLACK
  6
Continuous
100
AcDbLine
 10
267.2125
 20
-12.0
 30
0.0
 11
256.662499
 21
-12.0
 31
0.0
  0
LINE
  5
74C
330
1D
100
AcDbEntity
  8
BLACK
  6
Continuous
100
AcDbLine
 10
254.5875
 20
-14.075
 30
0.0
 11
254.5875
 21
-24.025001
 31
0.0
  0
LINE
  5
74D
330
1D
100
AcDbEntity
  8
BLACK
  6
Continuous
100
AcDbLine
 10
269.2875
 20
-14.075
 30
0.0
 11
269.2875
 21
-24.025
 31
0.0
  0
ARC
  5
74E
330
1D
100
AcDbEntity
  8
BLACK
100
AcDbCircle
 10
267.2125
 20
-24.025
 30
0.0
 40
2.075
100
AcDbArc
 50
270.0
 51
0.0
  0
LINE
  5
74F
330
1D
100
AcDbEntity
  8
BLACK
  6
Continuous
100
AcDbLine
 10
267.2125
 20
-26.1
 30
0.0
 11
256.6625
 21
-26.1
 31
0.0
  0
ARC
  5
750
330
1D
100
AcDbEntity
  8
BLACK
100
AcDbCircle
 10
267.2125
 20
-14.075
 30
0.0
 40
2.075
100
AcDbArc
 50
0.0
 51
90.0
  0
ARC
  5
751
330
1D
100
AcDbEntity
  8
BLACK
100
AcDbCircle
 10
256.662504
 20
-14.075004
 30
0.0
 40
2.075004000003855
100
AcDbArc
 50
90.00013806
 51
179.99988955
  0
ARC
  5
752
330
1D
100
AcDbEntity
  8
BLACK
100
AcDbCircle
 10
256.662502
 20
-24.024998
 30
0.0
 40
2.075002000000964
100
AcDbArc
 50
180.00008284
 51
269.99994478
  0
ARC
  5
753
330
1D
100
AcDbEntity
  8
BLACK
100
AcDbCircle
 10
240.143317
 20
-33.749592
 30
0.0
 40
1.425082004092396
100
AcDbArc
 50
89.51974267000003
 51
180.00434217
  0
LINE
  5
754
330
1D
100
AcDbEntity
  8
BLACK
  6
Continuous
100
AcDbLine
 10
242.866125
 20
-31.0724
 30
0.0
 11
266.721325
 21
-31.0724
 31
0.0
  0
LINE
  5
755
330
1D
100
AcDbEntity
  8
BLACK
  6
Continuous
100
AcDbLine
 10
269.432208
 20
-42.77544
 30
0.0
 11
269.040075
 21
-42.77544
 31
0.0
  0
ARC
  5
756
330
1D
100
AcDbEntity
  8
BLACK
100
AcDbCircle
 10
269.04008
 20
-44.50038
 30
0.0
 40
1.724936068561673
100
AcDbArc
 50
90.00016608000001
 51
159.45408213
  0
ARC
  5
757
330
1D
100
AcDbEntity
  8
BLACK
100
AcDbCircle
 10
242.866024
 20
-32.147351
 30
0.0
 40
1.074940192811674
100
AcDbArc
 50
89.99461656
 51
157.97750247
  0
ARC
  5
758
330
1D
100
AcDbEntity
  8
BLACK
100
AcDbCircle
 10
243.918212
 20
-43.236915
 30
0.0
 40
1.874995003405076
100
AcDbArc
 50
200.54692151
 51
270.00345303
  0
LINE
  5
759
330
1D
100
AcDbEntity
  8
BLACK
  6
Continuous
100
AcDbLine
 10
240.155262
 20
-32.32456
 30
0.0
 11
241.008825
 21
-32.32456
 31
0.0
  0
ARC
  5
75B
330
1D
100
AcDbEntity
  8
BLACK
100
AcDbCircle
 10
241.008874
 20
-31.396171
 30
0.0
 40
0.9283764359148717
100
AcDbArc
 50
269.99697591
 51
337.97782841
  0
ARC
  5
75D
330
1D
100
AcDbEntity
  8
BLACK
100
AcDbCircle
 10
240.143236
 20
-41.350439
 30
0.0
 40
1.425001000042456
100
AcDbArc
 50
180.00004021
 51
269.99955772
  0
LINE
  5
75E
330
1D
100
AcDbEntity
  8
BLACK
  6
Continuous
100
AcDbLine
 10
240.547325
 20
-42.77544
 30
0.0
 11
240.143225
 21
-42.77544
 31
0.0
  0
ARC
  5
75F
330
1D
100
AcDbEntity
  8
BLACK
100
AcDbCircle
 10
266.72129
 20
-32.14739
 30
0.0
 40
1.074990000569773
100
AcDbArc
 50
22.02370504
 51
89.99813454
  0
ARC
  5
760
330
1D
100
AcDbEntity
  8
BLACK
100
AcDbCircle
 10
269.44399
 20
-41.35035999999999
 30
0.0
 40
1.425125000561354
100
AcDbArc
 50
269.52631186
 51
359.99839184
  0
ARC
  5
761
330
1D
100
AcDbEntity
  8
BLACK
100
AcDbCircle
 10
268.57855
 20
-31.3961
 30
0.0
 40
0.9284600003365787
100
AcDbArc
 50
202.02452102
 51
269.99845724
  0
LINE
  5
762
330
1D
100
AcDbEntity
  8
BLACK
  6
Continuous
100
AcDbLine
 10
238.718235
 20
-41.35044
 30
0.0
 11
238.718235
 21
-33.7497
 31
0.0
  0
LINE
  5
763
330
1D
100
AcDbEntity
  8
BLACK
  6
Continuous
100
AcDbLine
 10
242.866125
 20
-31.072411
 30
0.0
 11
242.866125
 21
-31.0724
 31
0.0
  0
ARC
  5
764
330
1D
100
AcDbEntity
  8
BLACK
100
AcDbCircle
 10
269.44415
 20
-33.7495
 30
0.0
 40
1.424940000219307
100
AcDbArc
 50
359.99758749
 51
90.00100523000002
  0
LINE
  5
765
330
1D
100
AcDbEntity
  8
BLACK
  6
Continuous
100
AcDbLine
 10
268.578525
 20
-32.32456
 30
0.0
 11
269.444125
 21
-32.32456
 31
0.0
  0
LINE
  5
766
330
1D
100
AcDbEntity
  8
BLACK
  6
Continuous
100
AcDbLine
 10
270.869115
 20
-33.74956
 30
0.0
 11
270.869115
 21
-41.3504
 31
0.0
  0
ARC
  5
767
330
1D
100
AcDbEntity
  8
BLACK
100
AcDbCircle
 10
265.66909
 20
-43.23683
 30
0.0
 40
1.875082291400833
100
AcDbArc
 50
270.0025973
 51
339.45098232
  0
ARC
  5
768
330
1D
100
AcDbEntity
  8
BLACK
100
AcDbCircle
 10
240.547301
 20
-44.500348
 30
0.0
 40
1.724908000166965
100
AcDbArc
 50
20.54547839
 51
89.9992028
  0
LINE
  5
769
330
1D
100
AcDbEntity
  8
BLACK
  6
Continuous
100
AcDbLine
 10
241.008825
 20
-32.324548
 30
0.0
 11
241.008825
 21
-32.32456
 31
0.0
  0
LINE
  5
76A
330
1D
100
AcDbEntity
  8
BLACK
  6
Continuous
100
AcDbLine
 10
265.669175
 20
-45.11190999999999
 30
0.0
 11
243.918325
 21
-45.11190999999999
 31
0.0
  0
LINE
  5
76B
330
1D
100
AcDbEntity
  8
BLACK
  6
Continuous
100
AcDbLine
 10
192.5375
 20
-70.325
 30
0.0
 11
192.5375
 21
-82.075
 31
0.0
  0
LINE
  5
76C
330
1D
100
AcDbEntity
  8
BLACK
  6
Continuous
100
AcDbLine
 10
191.4625
 20
-83.14999999999999
 30
0.0
 11
180.0125
 21
-83.14999999999999
 31
0.0
  0
ARC
  5
76D
330
1D
100
AcDbEntity
  8
BLACK
100
AcDbCircle
 10
180.012499
 20
-70.32499899999999
 30
0.0
 40
1.074999000000465
100
AcDbArc
 50
89.9999467
 51
180.0000533
  0
ARC
  5
76E
330
1D
100
AcDbEntity
  8
BLACK
100
AcDbCircle
 10
180.012499
 20
-82.075001
 30
0.0
 40
1.074999000000465
100
AcDbArc
 50
179.9999467
 51
270.0000533
  0
ARC
  5
76F
330
1D
100
AcDbEntity
  8
BLACK
100
AcDbCircle
 10
191.4625
 20
-70.325
 30
0.0
 40
1.075
100
AcDbArc
 50
0.0
 51
90.0
  0
LINE
  5
770
330
1D
100
AcDbEntity
  8
BLACK
  6
Continuous
100
AcDbLine
 10
180.0125
 20
-69.25
 30
0.0
 11
191.4625
 21
-69.25
 31
0.0
  0
ARC
  5
771
330
1D
100
AcDbEntity
  8
BLACK
100
AcDbCircle
 10
191.4625
 20
-82.075
 30
0.0
 40
1.075
100
AcDbArc
 50
270.0
 51
0.0
  0
LINE
  5
772
330
1D
100
AcDbEntity
  8
BLACK
  6
Continuous
100
AcDbLine
 10
178.9375
 20
-82.075
 30
0.0
 11
178.9375
 21
-70.325
 31
0.0
  0
LINE
  5
773
330
1D
100
AcDbEntity
  8
BLACK
  6
Continuous
100
AcDbLine
 10
78.2375
 20
-70.325
 30
0.0
 11
78.2375
 21
-82.075
 31
0.0
  0
LINE
  5
774
330
1D
100
AcDbEntity
  8
BLACK
  6
Continuous
100
AcDbLine
 10
77.1625
 20
-83.14999999999999
 30
0.0
 11
65.71249999999999
 21
-83.14999999999999
 31
0.0
  0
ARC
  5
775
330
1D
100
AcDbEntity
  8
BLACK
100
AcDbCircle
 10
65.712499
 20
-70.32499899999999
 30
0.0
 40
1.074999000000465
100
AcDbArc
 50
89.9999467
 51
180.0000533
  0
ARC
  5
776
330
1D
100
AcDbEntity
  8
BLACK
100
AcDbCircle
 10
65.712499
 20
-82.075001
 30
0.0
 40
1.074999000000465
100
AcDbArc
 50
179.9999467
 51
270.0000533
  0
ARC
  5
777
330
1D
100
AcDbEntity
  8
BLACK
100
AcDbCircle
 10
77.1625
 20
-70.325
 30
0.0
 40
1.075
100
AcDbArc
 50
0.0
 51
90.0
  0
LINE
  5
778
330
1D
100
AcDbEntity
  8
BLACK
  6
Continuous
100
AcDbLine
 10
65.71249999999999
 20
-69.25
 30
0.0
 11
77.1625
 21
-69.25
 31
0.0
  0
ARC
  5
779
330
1D
100
AcDbEntity
  8
BLACK
100
AcDbCircle
 10
77.1625
 20
-82.075
 30
0.0
 40
1.075
100
AcDbArc
 50
270.0
 51
0.0
  0
LINE
  5
77A
330
1D
100
AcDbEntity
  8
BLACK
  6
Continuous
100
AcDbLine
 10
64.6375
 20
-82.075
 30
0.0
 11
64.6375
 21
-70.325
 31
0.0
  0
LINE
  5
77B
330
1D
100
AcDbEntity
  8
BLACK
  6
Continuous
100
AcDbLine
 10
214.825
 20
-69.14999999999999
 30
0.0
 11
204.274999
 21
-69.14999999999999
 31
0.0
  0
LINE
  5
77C
330
1D
100
AcDbEntity
  8
BLACK
  6
Continuous
100
AcDbLine
 10
202.2
 20
-71.225
 30
0.0
 11
202.2
 21
-81.175001
 31
0.0
  0
LINE
  5
77D
330
1D
100
AcDbEntity
  8
BLACK
  6
Continuous
100
AcDbLine
 10
216.9
 20
-71.225
 30
0.0
 11
216.9
 21
-81.175
 31
0.0
  0
ARC
  5
77E
330
1D
100
AcDbEntity
  8
BLACK
100
AcDbCircle
 10
214.825
 20
-81.175
 30
0.0
 40
2.075
100
AcDbArc
 50
270.0
 51
0.0
  0
LINE
  5
77F
330
1D
100
AcDbEntity
  8
BLACK
  6
Continuous
100
AcDbLine
 10
214.825
 20
-83.25
 30
0.0
 11
204.275
 21
-83.25
 31
0.0
  0
ARC
  5
780
330
1D
100
AcDbEntity
  8
BLACK
100
AcDbCircle
 10
214.825
 20
-71.225
 30
0.0
 40
2.075
100
AcDbArc
 50
0.0
 51
90.0
  0
ARC
  5
781
330
1D
100
AcDbEntity
  8
BLACK
100
AcDbCircle
 10
204.275004
 20
-71.225004
 30
0.0
 40
2.075004000003855
100
AcDbArc
 50
90.00013806
 51
179.99988955
  0
ARC
  5
782
330
1D
100
AcDbEntity
  8
BLACK
100
AcDbCircle
 10
204.275002
 20
-81.174998
 30
0.0
 40
2.075002000000964
100
AcDbArc
 50
180.00008284
 51
269.99994478
  0
LINE
  5
783
330
1D
100
AcDbEntity
  8
BLACK
  6
Continuous
100
AcDbLine
 10
133.8625
 20
-69.14999999999999
 30
0.0
 11
123.312499
 21
-69.14999999999999
 31
0.0
  0
LINE
  5
784
330
1D
100
AcDbEntity
  8
BLACK
  6
Continuous
100
AcDbLine
 10
121.2375
 20
-71.225
 30
0.0
 11
121.2375
 21
-81.175001
 31
0.0
  0
LINE
  5
785
330
1D
100
AcDbEntity
  8
BLACK
  6
Continuous
100
AcDbLine
 10
135.9375
 20
-71.225
 30
0.0
 11
135.9375
 21
-81.175
 31
0.0
  0
ARC
  5
786
330
1D
100
AcDbEntity
  8
BLACK
100
AcDbCircle
 10
133.8625
 20
-81.175
 30
0.0
 40
2.075
100
AcDbArc
 50
270.0
 51
0.0
  0
LINE
  5
787
330
1D
100
AcDbEntity
  8
BLACK
  6
Continuous
100
AcDbLine
 10
133.8625
 20
-83.25
 30
0.0
 11
123.3125
 21
-83.25
 31
0.0
  0
ARC
  5
788
330
1D
100
AcDbEntity
  8
BLACK
100
AcDbCircle
 10
133.8625
 20
-71.225
 30
0.0
 40
2.075
100
AcDbArc
 50
0.0
 51
90.0
  0
ARC
  5
789
330
1D
100
AcDbEntity
  8
BLACK
100
AcDbCircle
 10
123.312504
 20
-71.225004
 30
0.0
 40
2.075004000003855
100
AcDbArc
 50
90.00013806
 51
179.99988955
  0
ARC
  5
78A
330
1D
100
AcDbEntity
  8
BLACK
100
AcDbCircle
 10
123.312502
 20
-81.174998
 30
0.0
 40
2.075002000000964
100
AcDbArc
 50
180.00008284
 51
269.99994478
  0
LINE
  5
78B
330
1D
100
AcDbEntity
  8
BLACK
  6
Continuous
100
AcDbLine
 10
52.9
 20
-69.14999999999999
 30
0.0
 11
42.349999
 21
-69.14999999999999
 31
0.0
  0
LINE
  5
78C
330
1D
100
AcDbEntity
  8
BLACK
  6
Continuous
100
AcDbLine
 10
40.275
 20
-71.225
 30
0.0
 11
40.275
 21
-81.175001
 31
0.0
  0
LINE
  5
78D
330
1D
100
AcDbEntity
  8
BLACK
  6
Continuous
100
AcDbLine
 10
54.97499999999999
 20
-71.225
 30
0.0
 11
54.97499999999999
 21
-81.175
 31
0.0
  0
ARC
  5
78E
330
1D
100
AcDbEntity
  8
BLACK
100
AcDbCircle
 10
52.9
 20
-81.175
 30
0.0
 40
2.075
100
AcDbArc
 50
270.0
 51
0.0
  0
LINE
  5
78F
330
1D
100
AcDbEntity
  8
BLACK
  6
Continuous
100
AcDbLine
 10
52.9
 20
-83.25
 30
0.0
 11
42.35
 21
-83.25
 31
0.0
  0
ARC
  5
790
330
1D
100
AcDbEntity
  8
BLACK
100
AcDbCircle
 10
52.9
 20
-71.225
 30
0.0
 40
2.075
100
AcDbArc
 50
0.0
 51
90.0
  0
ARC
  5
791
330
1D
100
AcDbEntity
  8
BLACK
100
AcDbCircle
 10
42.350004
 20
-71.225004
 30
0.0
 40
2.075004000003855
100
AcDbArc
 50
90.00013806
 51
179.99988955
  0
ARC
  5
792
330
1D
100
AcDbEntity
  8
BLACK
100
AcDbCircle
 10
42.350002
 20
-81.174998
 30
0.0
 40
2.075002000000964
100
AcDbArc
 50
180.00008284
 51
269.99994478
  0
LINE
  5
793
330
1D
100
AcDbEntity
  8
BLACK
  6
Continuous
100
AcDbLine
 10
10.0375
 20
-69.14999999999999
 30
0.0
 11
-0.512501
 21
-69.14999999999999
 31
0.0
  0
LINE
  5
794
330
1D
100
AcDbEntity
  8
BLACK
  6
Continuous
100
AcDbLine
 10
-2.5875
 20
-71.225
 30
0.0
 11
-2.5875
 21
-81.175001
 31
0.0
  0
LINE
  5
795
330
1D
100
AcDbEntity
  8
BLACK
  6
Continuous
100
AcDbLine
 10
12.1125
 20
-71.225
 30
0.0
 11
12.1125
 21
-81.175
 31
0.0
  0
ARC
  5
796
330
1D
100
AcDbEntity
  8
BLACK
100
AcDbCircle
 10
10.0375
 20
-81.175
 30
0.0
 40
2.075
100
AcDbArc
 50
270.0
 51
0.0
  0
LINE
  5
797
330
1D
100
AcDbEntity
  8
BLACK
  6
Continuous
100
AcDbLine
 10
10.0375
 20
-83.25
 30
0.0
 11
-0.5125
 21
-83.25
 31
0.0
  0
ARC
  5
798
330
1D
100
AcDbEntity
  8
BLACK
100
AcDbCircle
 10
10.0375
 20
-71.225
 30
0.0
 40
2.075
100
AcDbArc
 50
0.0
 51
90.0
  0
ARC
  5
799
330
1D
100
AcDbEntity
  8
BLACK
100
AcDbCircle
 10
-0.512496
 20
-71.225004
 30
0.0
 40
2.075004000003855
100
AcDbArc
 50
90.00013806
 51
179.99988955
  0
ARC
  5
79A
330
1D
100
AcDbEntity
  8
BLACK
100
AcDbCircle
 10
-0.512498
 20
-81.174998
 30
0.0
 40
2.075002000000964
100
AcDbArc
 50
180.00008284
 51
269.99994478
  0
CIRCLE
  5
79E
330
1D
100
AcDbEntity
  8
BLACK
100
AcDbCircle
 10
276.225232
 20
-76.19999899999999
 30
0.0
 40
1.325
  0
CIRCLE
  5
79F
330
1D
100
AcDbEntity
  8
BLACK
100
AcDbCircle
 10
276.225232
 20
-76.19999899999999
 30
0.0
 40
1.775
  0
CIRCLE
  5
7A0
330
1D
100
AcDbEntity
  8
BLACK
100
AcDbCircle
 10
15.478089
 20
-76.19999899999999
 30
0.0
 40
1.325
  0
CIRCLE
  5
7A1
330
1D
100
AcDbEntity
  8
BLACK
100
AcDbCircle
 10
15.478089
 20
-76.19999899999999
 30
0.0
 40
1.775
  0
CIRCLE
  5
7A2
330
1D
100
AcDbEntity
  8
BLACK
100
AcDbCircle
 10
226.217614
 20
-76.19999899999999
 30
0.0
 40
1.325
  0
CIRCLE
  5
7A3
330
1D
100
AcDbEntity
  8
BLACK
100
AcDbCircle
 10
226.217614
 20
-76.19999899999999
 30
0.0
 40
1.775
  0
CIRCLE
  5
7A4
330
1D
100
AcDbEntity
  8
BLACK
100
AcDbCircle
 10
166.687464
 20
-57.14999899999999
 30
0.0
 40
1.325
  0
CIRCLE
  5
7A5
330
1D
100
AcDbEntity
  8
BLACK
100
AcDbCircle
 10
166.687464
 20
-57.14999899999999
 30
0.0
 40
1.775
  0
CIRCLE
  5
7A6
330
1D
100
AcDbEntity
  8
BLACK
100
AcDbCircle
 10
-7.143786
 20
-76.19999899999999
 30
0.0
 40
1.325
  0
CIRCLE
  5
7A7
330
1D
100
AcDbEntity
  8
BLACK
100
AcDbCircle
 10
-7.143786
 20
-76.19999899999999
 30
0.0
 40
1.775
  0
CIRCLE
  5
7A8
330
1D
100
AcDbEntity
  8
BLACK
100
AcDbCircle
 10
223.837464
 20
-57.14999899999999
 30
0.0
 40
1.325
  0
CIRCLE
  5
7A9
330
1D
100
AcDbEntity
  8
BLACK
100
AcDbCircle
 10
223.837464
 20
-57.14999899999999
 30
0.0
 40
1.775
  0
CIRCLE
  5
7AA
330
1D
100
AcDbEntity
  8
BLACK
100
AcDbCircle
 10
250.19
 20
-19.050015
 30
0.0
 40
1.325
  0
CIRCLE
  5
7AB
330
1D
100
AcDbEntity
  8
BLACK
100
AcDbCircle
 10
250.19
 20
-19.050015
 30
0.0
 40
1.775
  0
CIRCLE
  5
7AC
330
1D
100
AcDbEntity
  8
BLACK
100
AcDbCircle
 10
171.449999
 20
-19.049999
 30
0.0
 40
1.325
  0
CIRCLE
  5
7AD
330
1D
100
AcDbEntity
  8
BLACK
100
AcDbCircle
 10
171.449999
 20
-19.049999
 30
0.0
 40
1.775
  0
CIRCLE
  5
7AE
330
1D
100
AcDbEntity
  8
BLACK
100
AcDbCircle
 10
276.225
 20
-28.574999
 30
0.0
 40
1.325
  0
CIRCLE
  5
7AF
330
1D
100
AcDbEntity
  8
BLACK
100
AcDbCircle
 10
276.225
 20
-28.574999
 30
0.0
 40
1.775
  0
CIRCLE
  5
7B0
330
1D
100
AcDbEntity
  8
BLACK
100
AcDbCircle
 10
90.4875
 20
-57.14999899999999
 30
0.0
 40
1.325
  0
CIRCLE
  5
7B1
330
1D
100
AcDbEntity
  8
BLACK
100
AcDbCircle
 10
90.4875
 20
-57.14999899999999
 30
0.0
 40
1.775
  0
CIRCLE
  5
7B2
330
1D
100
AcDbEntity
  8
BLACK
100
AcDbCircle
 10
180.975
 20
0.000001
 30
0.0
 40
1.325
  0
CIRCLE
  5
7B3
330
1D
100
AcDbEntity
  8
BLACK
100
AcDbCircle
 10
180.975
 20
0.000001
 30
0.0
 40
1.775
  0
CIRCLE
  5
7B4
330
1D
100
AcDbEntity
  8
BLACK
100
AcDbCircle
 10
42.8625
 20
-38.099999
 30
0.0
 40
1.325
  0
CIRCLE
  5
7B5
330
1D
100
AcDbEntity
  8
BLACK
100
AcDbCircle
 10
42.8625
 20
-38.099999
 30
0.0
 40
1.775
  0
CIRCLE
  5
7B6
330
1D
100
AcDbEntity
  8
BLACK
100
AcDbCircle
 10
-7.14375
 20
-38.099999
 30
0.0
 40
1.325
  0
CIRCLE
  5
7B7
330
1D
100
AcDbEntity
  8
BLACK
100
AcDbCircle
 10
-7.14375
 20
-38.099999
 30
0.0
 40
1.775
  0
CIRCLE
  5
7B8
330
1D
100
AcDbEntity
  8
BLACK
100
AcDbCircle
 10
33.3375
 20
-57.14999899999999
 30
0.0
 40
1.325
  0
CIRCLE
  5
7B9
330
1D
100
AcDbEntity
  8
BLACK
100
AcDbCircle
 10
33.3375
 20
-57.14999899999999
 30
0.0
 40
1.775
  0
CIRCLE
  5
7BA
330
1D
100
AcDbEntity
  8
BLACK
100
AcDbCircle
 10
253.603338
 20
-57.150047
 30
0.0
 40
1.325
  0
CIRCLE
  5
7BB
330
1D
100
AcDbEntity
  8
BLACK
100
AcDbCircle
 10
253.603338
 20
-57.150047
 30
0.0
 40
1.775
  0
CIRCLE
  5
7BC
330
1D
100
AcDbEntity
  8
BLACK
100
AcDbCircle
 10
195.262464
 20
-38.099999
 30
0.0
 40
1.325
  0
CIRCLE
  5
7BD
330
1D
100
AcDbEntity
  8
BLACK
100
AcDbCircle
 10
195.262464
 20
-38.099999
 30
0.0
 40
1.775
  0
CIRCLE
  5
7BE
330
1D
100
AcDbEntity
  8
BLACK
100
AcDbCircle
 10
66.675
 20
0.000001
 30
0.0
 40
1.325
  0
CIRCLE
  5
7BF
330
1D
100
AcDbEntity
  8
BLACK
100
AcDbCircle
 10
66.675
 20
0.000001
 30
0.0
 40
1.775
  0
CIRCLE
  5
7C0
330
1D
100
AcDbEntity
  8
BLACK
100
AcDbCircle
 10
95.25
 20
-19.049999
 30
0.0
 40
1.325
  0
CIRCLE
  5
7C1
330
1D
100
AcDbEntity
  8
BLACK
100
AcDbCircle
 10
95.25
 20
-19.049999
 30
0.0
 40
1.775
  0
CIRCLE
  5
7C2
330
1D
100
AcDbEntity
  8
BLACK
100
AcDbCircle
 10
9.523864
 20
0.000001
 30
0.0
 40
1.325
  0
CIRCLE
  5
7C3
330
1D
100
AcDbEntity
  8
BLACK
100
AcDbCircle
 10
9.523864
 20
0.000001
 30
0.0
 40
1.775
  0
CIRCLE
  5
7C4
330
1D
100
AcDbEntity
  8
BLACK
100
AcDbCircle
 10
123.825
 20
0.000001
 30
0.0
 40
1.325
  0
CIRCLE
  5
7C5
330
1D
100
AcDbEntity
  8
BLACK
100
AcDbCircle
 10
123.825
 20
0.000001
 30
0.0
 40
1.775
  0
CIRCLE
  5
7C6
330
1D
100
AcDbEntity
  8
BLACK
100
AcDbCircle
 10
257.173864
 20
-76.19999899999999
 30
0.0
 40
1.325
  0
CIRCLE
  5
7C7
330
1D
100
AcDbEntity
  8
BLACK
100
AcDbCircle
 10
257.173864
 20
-76.19999899999999
 30
0.0
 40
1.775
  0
CIRCLE
  5
7C8
330
1D
100
AcDbEntity
  8
BLACK
100
AcDbCircle
 10
104.773864
 20
-76.19999899999999
 30
0.0
 40
1.325
  0
CIRCLE
  5
7C9
330
1D
100
AcDbEntity
  8
BLACK
100
AcDbCircle
 10
104.773864
 20
-76.19999899999999
 30
0.0
 40
1.775
  0
CIRCLE
  5
7CA
330
1D
100
AcDbEntity
  8
BLACK
100
AcDbCircle
 10
61.91249999999999
 20
-76.19999899999999
 30
0.0
 40
1.325
  0
CIRCLE
  5
7CB
330
1D
100
AcDbEntity
  8
BLACK
100
AcDbCircle
 10
61.91249999999999
 20
-76.19999899999999
 30
0.0
 40
1.775
  0
CIRCLE
  5
7CC
330
1D
100
AcDbEntity
  8
BLACK
100
AcDbCircle
 10
38.1
 20
-76.19999899999999
 30
0.0
 40
1.325
  0
CIRCLE
  5
7CD
330
1D
100
AcDbEntity
  8
BLACK
100
AcDbCircle
 10
38.1
 20
-76.19999899999999
 30
0.0
 40
1.775
  0
CIRCLE
  5
7CE
330
1D
100
AcDbEntity
  8
BLACK
100
AcDbCircle
 10
16.668764
 20
-19.049999
 30
0.0
 40
1.325
  0
CIRCLE
  5
7CF
330
1D
100
AcDbEntity
  8
BLACK
100
AcDbCircle
 10
16.668764
 20
-19.049999
 30
0.0
 40
1.775
  0
CIRCLE
  5
7D0
330
1D
100
AcDbEntity
  8
BLACK
100
AcDbCircle
 10
276.225232
 20
-57.150047
 30
0.0
 40
1.325
  0
CIRCLE
  5
7D1
330
1D
100
AcDbEntity
  8
BLACK
100
AcDbCircle
 10
276.225232
 20
-57.150047
 30
0.0
 40
1.775
  0
CIRCLE
  5
7D2
330
1D
100
AcDbEntity
  8
BLACK
100
AcDbCircle
 10
138.112464
 20
-38.099999
 30
0.0
 40
1.325
  0
CIRCLE
  5
7D3
330
1D
100
AcDbEntity
  8
BLACK
100
AcDbCircle
 10
138.112464
 20
-38.099999
 30
0.0
 40
1.775
  0
CIRCLE
  5
7D4
330
1D
100
AcDbEntity
  8
BLACK
100
AcDbCircle
 10
16.6684
 20
-38.099199
 30
0.0
 40
1.325
  0
CIRCLE
  5
7D5
330
1D
100
AcDbEntity
  8
BLACK
100
AcDbCircle
 10
16.6684
 20
-38.099199
 30
0.0
 40
1.775
  0
CIRCLE
  5
7D6
330
1D
100
AcDbEntity
  8
BLACK
100
AcDbCircle
 10
219.0704
 20
0.000001
 30
0.0
 40
1.325
  0
CIRCLE
  5
7D7
330
1D
100
AcDbEntity
  8
BLACK
100
AcDbCircle
 10
219.0704
 20
0.000001
 30
0.0
 40
1.775
  0
CIRCLE
  5
7D8
330
1D
100
AcDbEntity
  8
BLACK
100
AcDbCircle
 10
276.225
 20
-0.000001
 30
0.0
 40
1.325
  0
CIRCLE
  5
7D9
330
1D
100
AcDbEntity
  8
BLACK
100
AcDbCircle
 10
276.225
 20
-0.000001
 30
0.0
 40
1.775
  0
CIRCLE
  5
7DA
330
1D
100
AcDbEntity
  8
BLACK
100
AcDbCircle
 10
238.125
 20
0.0
 30
0.0
 40
1.325
  0
CIRCLE
  5
7DB
330
1D
100
AcDbEntity
  8
BLACK
100
AcDbCircle
 10
238.125
 20
0.0
 30
0.0
 40
1.775
  0
CIRCLE
  5
7DC
330
1D
100
AcDbEntity
  8
BLACK
100
AcDbCircle
 10
-7.14375
 20
-57.15
 30
0.0
 40
1.325
  0
CIRCLE
  5
7DD
330
1D
100
AcDbEntity
  8
BLACK
100
AcDbCircle
 10
-7.14375
 20
-57.15
 30
0.0
 40
1.775
  0
CIRCLE
  5
7DE
330
1D
100
AcDbEntity
  8
BLACK
100
AcDbCircle
 10
271.19375
 20
-45.3
 30
0.0
 40
1.325
  0
CIRCLE
  5
7DF
330
1D
100
AcDbEntity
  8
BLACK
100
AcDbCircle
 10
271.19375
 20
-45.3
 30
0.0
 40
1.775
  0
CIRCLE
  5
7E0
330
1D
100
AcDbEntity
  8
BLACK
100
AcDbCircle
 10
238.39375
 20
-45.3
 30
0.0
 40
1.325
  0
CIRCLE
  5
7E1
330
1D
100
AcDbEntity
  8
BLACK
100
AcDbCircle
 10
238.39375
 20
-45.3
 30
0.0
 40
1.775
  0
CIRCLE
  5
7E2
330
1D
100
AcDbEntity
  8
BLACK
100
AcDbCircle
 10
200.023863
 20
-76.2
 30
0.0
 40
1.325
  0
CIRCLE
  5
7E3
330
1D
100
AcDbEntity
  8
BLACK
100
AcDbCircle
 10
200.023863
 20
-76.2
 30
0.0
 40
1.775
  0
CIRCLE
  5
7E4
330
1D
100
AcDbEntity
  8
BLACK
100
AcDbCircle
 10
142.873863
 20
-76.2
 30
0.0
 40
1.325
  0
CIRCLE
  5
7E5
330
1D
100
AcDbEntity
  8
BLACK
100
AcDbCircle
 10
142.873863
 20
-76.2
 30
0.0
 40
1.775
  0
CIRCLE
  5
7E6
330
1D
100
AcDbEntity
  8
BLACK
100
AcDbCircle
 10
176.212499
 20
-76.2
 30
0.0
 40
1.325
  0
CIRCLE
  5
7E7
330
1D
100
AcDbEntity
  8
BLACK
100
AcDbCircle
 10
176.212499
 20
-76.2
 30
0.0
 40
1.775
  0
ENDSEC
  0
SECTION
  2
OBJECTS
  0
DICTIONARY
  5
C
330
0
100
AcDbDictionary
281
     1
  3
ACAD_COLOR
350
721
  3
ACAD_DETAILVIEWSTYLE
350
71F
  3
ACAD_GROUP
350
D
  3
ACAD_LAYOUT
350
1A
  3
ACAD_MATERIAL
350
70F
  3
ACAD_MLEADERSTYLE
350
715
  3
ACAD_MLINESTYLE
350
17
  3
ACAD_PLOTSETTINGS
350
19
  3
ACAD_PLOTSTYLENAME
350
E
  3
ACAD_SCALELIST
350
6E0
  3
ACAD_SECTIONVIEWSTYLE
350
720
  3
ACAD_TABLESTYLE
350
713
  3
ACAD_VISUALSTYLE
350
6F6
  3
AcDbVariableDictionary
350
717
  3
ACDB_RECOMPOSE_DATA
350
7EA
  3
EZDXF_META
350
726
  0
DICTIONARY
  5
721
330
C
100
AcDbDictionary
281
     1
  0
DICTIONARY
  5
71F
102
{ACAD_REACTORS
330
C
102
}
330
C
100
AcDbDictionary
281
     1
  0
DICTIONARY
  5
D
102
{ACAD_REACTORS
330
C
102
}
330
C
100
AcDbDictionary
281
     1
  0
DICTIONARY
  5
1A
102
{ACAD_REACTORS
330
C
102
}
330
C
100
AcDbDictionary
281
     1
  3
Layout1
350
1C
  3
Model
350
1E
  0
DICTIONARY
  5
70F
102
{ACAD_REACTORS
330
C
102
}
330
C
100
AcDbDictionary
281
     1
  3
ByBlock
350
711
  3
ByLayer
350
710
  3
Global
350
712
  0
DICTIONARY
  5
715
102
{ACAD_REACTORS
330
C
102
}
330
C
100
AcDbDictionary
281
     1
  3
Standard
350
716
  0
DICTIONARY
  5
17
102
{ACAD_REACTORS
330
C
102
}
330
C
100
AcDbDictionary
281
     1
  3
Standard
350
18
  0
DICTIONARY
  5
19
102
{ACAD_REACTORS
330
C
102
}
330
C
100
AcDbDictionary
281
     1
  0
ACDBDICTIONARYWDFLT
  5
E
102
{ACAD_REACTORS
330
C
102
}
330
C
100
AcDbDictionary
281
     1
  3
Normal
350
F
100
AcDbDictionaryWithDefault
340
F
  0
DICTIONARY
  5
6E0
102
{ACAD_REACTORS
330
C
102
}
330
C
100
AcDbDictionary
281
     1
  3
A0
350
6E1
  3
A1
350
6E2
  3
A2
350
6E3
  3
A3
350
6E4
  3
A4
350
6E5
  3
A5
350
6E6
  3
A6
350
6E7
  3
A7
350
6E8
  3
A8
350
6E9
  3
A9
350
6EA
  3
B0
350
6EB
  3
B1
350
6EC
  3
B2
350
6ED
  3
B3
350
6EE
  3
B4
350
6EF
  3
B5
350
6F0
  3
B6
350
6F1
  0
DICTIONARY
  5
720
102
{ACAD_REACTORS
330
C
102
}
330
C
100
AcDbDictionary
281
     1
  0
DICTIONARY
  5
713
102
{ACAD_REACTORS
330
C
102
}
330
C
100
AcDbDictionary
281
     1
  3
Standard
350
714
  0
DICTIONARY
  5
6F6
102
{ACAD_REACTORS
330
C
102
}
330
C
100
AcDbDictionary
281
     1
  3
2dWireframe
350
6FB
  3
Basic
350
6FE
  3
Brighten
350
702
  3
ColorChange
350
706
  3
Conceptual
350
700
  3
Dim
350
701
  3
EdgeColorOff
350
709
  3
Facepattern
350
705
  3
Flat
350
6F7
  3
FlatWithEdges
350
6F8
  3
Gouraud
350
6F9
  3
GouraudWithEdges
350
6FA
  3
Hidden
350
6FD
  3
JitterOff
350
707
  3
Linepattern
350
704
  3
OverhangOff
350
708
  3
Realistic
350
6FF
  3
Shaded
350
70E
  3
Shaded with edges
350
70D
  3
Shades of Gray
350
70A
  3
Sketchy
350
70B
  3
Thicken
350
703
  3
Wireframe
350
6FC
  3
X-Ray
350
70C
  0
DICTIONARY
  5
717
102
{ACAD_REACTORS
330
C
102
}
330
C
100
AcDbDictionary
281
     1
  3
CANNOSCALE
350
718
  3
CMLEADERSTYLE
350
71D
  3
CTABLESTYLE
350
71C
  3
MSLTSCALE
350
71E
  0
XRECORD
  5
7EA
102
{ACAD_REACTORS
330
C
102
}
330
C
100
AcDbXrecord
280
     1
 90
        1
330
714
  0
DICTIONARY
  5
726
330
C
100
AcDbDictionary
281
     1
  3
WRITTEN_BY_EZDXF
350
727
  0
LAYOUT
  5
1C
102
{ACAD_REACTORS
330
1A
102
}
330
1A
100
AcDbPlotSettings
  1

  2
none_device
  4

  6

 40
0.0
 41
0.0
 42
0.0
 43
0.0
 44
0.0
 45
0.0
 46
0.0
 47
0.0
 48
0.0
 49
0.0
140
0.0
141
0.0
142
1.0
143
1.0
 70
   688
 72
     0
 73
     0
 74
     5
  7

 75
    16
 76
     0
 77
     2
 78
   300
147
1.0
148
0.0
149
0.0
100
AcDbLayout
  1
Layout1
 70
     1
 71
     1
 10
0.0
 20
0.0
 11
12.0
 21
9.0
 12
0.0
 22
0.0
 32
0.0
 14
1.000000000000000E+20
 24
1.000000000000000E+20
 34
1.000000000000000E+20
 15
-1.000000000000000E+20
 25
-1.000000000000000E+20
 35
-1.000000000000000E+20
146
0.0
 13
0.0
 23
0.0
 33
0.0
 16
1.0
 26
0.0
 36
0.0
 17
0.0
 27
1.0
 37
0.0
 76
     0
330
1B
  0
LAYOUT
  5
1E
102
{ACAD_REACTORS
330
1A
102
}
330
1A
100
AcDbPlotSettings
  1

  2
none_device
  4
Letter_(8.50_x_11.00_Inches)
  6

 40
6.35
 41
6.35
 42
6.35000508
 43
6.35000508
 44
215.9
 45
279.4
 46
0.0
 47
0.0
 48
0.0
 49
0.0
140
0.0
141
0.0
142
1.0
143
1.0
 70
  1712
 72
     0
 73
     0
 74
     0
  7

 75
     0
 76
     0
 77
     2
 78
   300
147
1.0
148
0.0
149
0.0
100
AcDbLayout
  1
Model
 70
     1
 71
     0
 10
0.0
 20
0.0
 11
12.0
 21
9.0
 12
0.0
 22
0.0
 32
0.0
 14
1.000000000000000E+20
 24
1.000000000000000E+20
 34
1.000000000000000E+20
 15
-1.000000000000000E+20
 25
-1.000000000000000E+20
 35
-1.000000000000000E+20
146
0.0
 13
0.0
 23
0.0
 33
0.0
 16
1.0
 26
0.0
 36
0.0
 17
0.0
 27
1.0
 37
0.0
 76
     0
330
1D
331
442
  0
MATERIAL
  5
711
102
{ACAD_REACTORS
330
70F
102
}
330
70F
100
AcDbMaterial
  1
ByBlock
 72
     1
273
     1
 94
      127
  0
MATERIAL
  5
710
102
{ACAD_REACTORS
330
70F
102
}
330
70F
100
AcDbMaterial
  1
ByLayer
 72
     1
273
     1
 94
      127
  0
MATERIAL
  5
712
102
{ACAD_REACTORS
330
70F
102
}
330
70F
100
AcDbMaterial
  1
Global
 72
     1
273
     1
 94
      127
  0
MLEADERSTYLE
  5
716
102
{ACAD_REACTORS
330
715
102
}
330
715
100
AcDbMLeaderStyle
179
     2
170
     2
171
     1
172
     0
 90
        2
 40
0.0
 41
0.0
173
     1
 91
-1056964608
340
14
 92
       -2
290
     1
 42
2.0
291
     1
 43
8.0
  3
Standard
341
0
 44
4.0
300

342
11
174
     1
178
     6
175
     1
176
     0
 93
-1056964608
 45
4.0
292
     0
297
     0
 46
4.0
343
0
 94
-1056964608
 47
1.0
 49
1.0
140
1.0
293
     1
141
0.0
294
     1
177
     0
142
1.0
295
     0
296
     0
143
3.75
271
     0
272
     9
273
     9
298
     0
  0
MLINESTYLE
  5
18
102
{ACAD_REACTORS
330
17
102
}
330
17
100
AcDbMlineStyle
  2
Standard
 70
     0
  3

 62
   256
 51
90.0
 52
90.0
 71
     2
 49
0.5
 62
   256
  6
BYLAYER
 49
-0.5
 62
   256
  6
BYLAYER
  0
ACDBPLACEHOLDER
  5
F
102
{ACAD_REACTORS
330
E
102
}
330
E
  0
SCALE
  5
6E1
102
{ACAD_REACTORS
330
6E0
102
}
330
6E0
100
AcDbScale
 70
     0
300
1:1
140
1.0
141
1.0
290
     1
  0
SCALE
  5
6E2
102
{ACAD_REACTORS
330
6E0
102
}
330
6E0
100
AcDbScale
 70
     0
300
1:2
140
1.0
141
2.0
290
     0
  0
SCALE
  5
6E3
102
{ACAD_REACTORS
330
6E0
102
}
330
6E0
100
AcDbScale
 70
     0
300
1:4
140
1.0
141
4.0
290
     0
  0
SCALE
  5
6E4
102
{ACAD_REACTORS
330
6E0
102
}
330
6E0
100
AcDbScale
 70
     0
300
1:5
140
1.0
141
5.0
290
     0
  0
SCALE
  5
6E5
102
{ACAD_REACTORS
330
6E0
102
}
330
6E0
100
AcDbScale
 70
     0
300
1:8
140
1.0
141
8.0
290
     0
  0
SCALE
  5
6E6
102
{ACAD_REACTORS
330
6E0
102
}
330
6E0
100
AcDbScale
 70
     0
300
1:10
140
1.0
141
10.0
290
     0
  0
SCALE
  5
6E7
102
{ACAD_REACTORS
330
6E0
102
}
330
6E0
100
AcDbScale
 70
     0
300
1:16
140
1.0
141
16.0
290
     0
  0
SCALE
  5
6E8
102
{ACAD_REACTORS
330
6E0
102
}
330
6E0
100
AcDbScale
 70
     0
300
1:20
140
1.0
141
20.0
290
     0
  0
SCALE
  5
6E9
102
{ACAD_REACTORS
330
6E0
102
}
330
6E0
100
AcDbScale
 70
     0
300
1:30
140
1.0
141
30.0
290
     0
  0
SCALE
  5
6EA
102
{ACAD_REACTORS
330
6E0
102
}
330
6E0
100
AcDbScale
 70
     0
300
1:40
140
1.0
141
40.0
290
     0
  0
SCALE
  5
6EB
102
{ACAD_REACTORS
330
6E0
102
}
330
6E0
100
AcDbScale
 70
     0
300
1:50
140
1.0
141
50.0
290
     0
  0
SCALE
  5
6EC
102
{ACAD_REACTORS
330
6E0
102
}
330
6E0
100
AcDbScale
 70
     0
300
1:100
140
1.0
141
100.0
290
     0
  0
SCALE
  5
6ED
102
{ACAD_REACTORS
330
6E0
102
}
330
6E0
100
AcDbScale
 70
     0
300
2:1
140
2.0
141
1.0
290
     0
  0
SCALE
  5
6EE
102
{ACAD_REACTORS
330
6E0
102
}
330
6E0
100
AcDbScale
 70
     0
300
4:1
140
4.0
141
1.0
290
     0
  0
SCALE
  5
6EF
102
{ACAD_REACTORS
330
6E0
102
}
330
6E0
100
AcDbScale
 70
     0
300
8:1
140
8.0
141
1.0
290
     0
  0
SCALE
  5
6F0
102
{ACAD_REACTORS
330
6E0
102
}
330
6E0
100
AcDbScale
 70
     0
300
10:1
140
10.0
141
1.0
290
     0
  0
SCALE
  5
6F1
102
{ACAD_REACTORS
330
6E0
102
}
330
6E0
100
AcDbScale
 70
     0
300
100:1
140
100.0
141
1.0
290
     0
  0
TABLESTYLE
  5
714
102
{ACAD_REACTORS
330
713
102
}
102
{ACAD_XDICTIONARY
360
7E8
102
}
330
713
100
AcDbTableStyle
  3
Standard
 70
     0
 71
     0
 40
0.06
 41
0.06
280
     0
281
     0
  7
Standard
140
4.5
170
     2
 62
     0
 63
   257
283
     0
 90
        4
 91
        0
  1

274
    -2
284
     1
 64
     0
275
    -2
285
     1
 65
     0
276
    -2
286
     1
 66
     0
277
    -2
287
     1
 67
     0
278
    -2
288
     1
 68
     0
279
    -2
289
     1
 69
     0
  7
Standard
140
6.0
170
     5
 62
     0
 63
   257
283
     0
 90
        4
 91
        0
  1

274
    -2
284
     1
 64
     0
275
    -2
285
     1
 65
     0
276
    -2
286
     1
 66
     0
277
    -2
287
     1
 67
     0
278
    -2
288
     1
 68
     0
279
    -2
289
     1
 69
     0
  7
Standard
140
4.5
170
     5
 62
     0
 63
   257
283
     0
 90
        4
 91
        0
  1

274
    -2
284
     1
 64
     0
275
    -2
285
     1
 65
     0
276
    -2
286
     1
 66
     0
277
    -2
287
     1
 67
     0
278
    -2
288
     1
 68
     0
279
    -2
289
     1
 69
     0
  0
VISUALSTYLE
  5
6FB
102
{ACAD_REACTORS
330
6F6
102
}
330
6F6
100
AcDbVisualStyle
  2
2dWireframe
 70
     4
177
     3
291
     0
 70
    58
 90
        0
176
     1
 90
        2
176
     1
 90
        0
176
     1
 90
        0
176
     1
 40
0.6
176
     1
 40
30.0
176
     1
 62
     7
420
 16777215
176
     1
 90
        1
176
     1
 90
        4
176
     1
 62
     7
176
     1
 62
   257
176
     1
 90
        1
176
     1
 90
        1
176
     1
 40
1.0
176
     1
 90
        0
176
     1
 62
   257
176
     1
 40
1.0
176
     1
 90
        1
176
     1
 90
        6
176
     1
 90
        2
176
     1
 62
     7
176
     1
 90
        5
176
     1
 90
        0
176
     1
 90
        0
176
     1
290
     0
176
     1
 90
        1
176
     1
 40
0.0
176
     1
 90
        0
176
     1
290
     1
176
     1
290
     1
176
     1
290
     0
176
     1
290
     0
176
     1
290
     0
176
     1
290
     0
176
     1
290
     0
176
     1
290
     0
176
     1
290
     0
176
     1
 90
       50
176
     1
 40
0.0
176
     1
 40
1.0
176
     1
 90
        0
176
     1
 62
    18
420
        0
176
     1
 90
       50
176
     1
 90
        3
176
     1
 62
     5
420
      255
176
     1
290
     0
176
     1
 90
       50
176
     1
 90
       50
176
     1
 90
       50
176
     1
290
     0
176
     1
 90
       50
176
     1
 62
   256
176
     0
 40
1.0
176
     0
 90
        2
176
     1
  1
strokes_ogs.tif
176
     1
290
     0
176
     1
 40
1.0
176
     1
 40
1.0
176
     1
  0
VISUALSTYLE
  5
6FE
102
{ACAD_REACTORS
330
6F6
102
}
330
6F6
100
AcDbVisualStyle
  2
Basic
 70
     7
177
     3
291
     1
 70
    58
 90
        1
176
     1
 90
        0
176
     1
 90
        1
176
     1
 90
        0
176
     1
 40
0.6
176
     1
 40
30.0
176
     1
 62
     7
420
 16777215
176
     1
 90
        0
176
     1
 90
        4
176
     1
 62
     7
176
     1
 62
   257
176
     1
 90
        1
176
     1
 90
        1
176
     1
 40
1.0
176
     1
 90
        8
176
     1
 62
     7
176
     1
 40
1.0
176
     1
 90
        1
176
     1
 90
        6
176
     1
 90
        2
176
     1
 62
     7
176
     1
 90
        5
176
     1
 90
        0
176
     1
 90
        0
176
     1
290
     0
176
     1
 90
        1
176
     1
 40
0.0
176
     1
 90
        0
176
     1
290
     0
176
     1
290
     1
176
     1
290
     1
176
     1
290
     0
176
     1
290
     0
176
     1
290
     0
176
     1
290
     0
176
     1
290
     0
176
     1
290
     0
176
     1
 90
       50
176
     1
 40
0.0
176
     1
 40
1.0
176
     1
 90
        0
176
     1
 62
    18
420
        0
176
     1
 90
       50
176
     1
 90
        3
176
     1
 62
     5
420
      255
176
     1
290
     0
176
     1
 90
       50
176
     1
 90
       50
176
     1
 90
       50
176
     1
290
     0
176
     1
 90
       50
176
     1
 62
   256
176
     0
 40
1.0
176
     0
 90
        2
176
     1
  1
strokes_ogs.tif
176
     1
290
     0
176
     1
 40
1.0
176
     1
 40
1.0
176
     1
  0
VISUALSTYLE
  5
702
102
{ACAD_REACTORS
330
6F6
102
}
330
6F6
100
AcDbVisualStyle
  2
Brighten
 70
    12
177
     3
291
     1
 70
    58
 90
        2
176
     1
 90
        2
176
     1
 90
        0
176
     1
 90
        0
176
     1
 40
0.6
176
     1
 40
30.0
176
     1
 62
     7
420
 16777215
176
     1
 90
        1
176
     1
 90
        4
176
     1
 62
     7
176
     1
 62
   257
176
     1
 90
        1
176
     1
 90
        1
176
     1
 40
1.0
176
     1
 90
        8
176
     1
 62
     7
176
     1
 40
1.0
176
     1
 90
        1
176
     1
 90
        6
176
     1
 90
        2
176
     1
 62
     7
176
     1
 90
        5
176
     1
 90
        0
176
     1
 90
        0
176
     1
290
     0
176
     1
 90
        1
176
     1
 40
50.0
176
     1
 90
        0
176
     1
290
     0
176
     1
290
     1
176
     1
290
     1
176
     1
290
     0
176
     1
290
     0
176
     1
290
     0
176
     1
290
     0
176
     1
290
     0
176
     1
290
     0
176
     1
 90
       50
176
     1
 40
0.0
176
     1
 40
1.0
176
     1
 90
        0
176
     1
 62
    18
420
        0
176
     1
 90
       50
176
     1
 90
        3
176
     1
 62
     5
420
      255
176
     1
290
     0
176
     1
 90
       50
176
     1
 90
       50
176
     1
 90
       50
176
     1
290
     0
176
     1
 90
       50
176
     1
 62
   256
176
     0
 40
1.0
176
     0
 90
        2
176
     1
  1
strokes_ogs.tif
176
     1
290
     0
176
     1
 40
1.0
176
     1
 40
1.0
176
     1
  0
VISUALSTYLE
  5
706
102
{ACAD_REACTORS
330
6F6
102
}
330
6F6
100
AcDbVisualStyle
  2
ColorChange
 70
    16
177
     3
291
     1
 70
    58
 90
        2
176
     1
 90
        2
176
     1
 90
        3
176
     1
 90
        0
176
     1
 40
0.6
176
     1
 40
30.0
176
     1
 62
     8
420
  8421504
176
     1
 90
        1
176
     1
 90
        4
176
     1
 62
     7
176
     1
 62
   257
176
     1
 90
        1
176
     1
 90
        1
176
     1
 40
1.0
176
     1
 90
        8
176
     1
 62
     8
420
  8421504
176
     1
 40
1.0
176
     1
 90
        1
176
     1
 90
        6
176
     1
 90
        2
176
     1
 62
     7
176
     1
 90
        5
176
     1
 90
        0
176
     1
 90
        0
176
     1
290
     0
176
     1
 90
        1
176
     1
 40
0.0
176
     1
 90
        0
176
     1
290
     0
176
     1
290
     1
176
     1
290
     1
176
     1
290
     0
176
     1
290
     0
176
     1
290
     0
176
     1
290
     0
176
     1
290
     0
176
     1
290
     0
176
     1
 90
       50
176
     1
 40
0.0
176
     1
 40
1.0
176
     1
 90
        0
176
     1
 62
    18
420
        0
176
     1
 90
       50
176
     1
 90
        3
176
     1
 62
     5
420
      255
176
     1
290
     0
176
     1
 90
       50
176
     1
 90
       50
176
     1
 90
       50
176
     1
290
     0
176
     1
 90
       50
176
     1
 62
   256
176
     0
 40
1.0
176
     0
 90
        2
176
     1
  1
strokes_ogs.tif
176
     1
290
     0
176
     1
 40
1.0
176
     1
 40
1.0
176
     1
  0
VISUALSTYLE
  5
700
102
{ACAD_REACTORS
330
6F6
102
}
330
6F6
100
AcDbVisualStyle
  2
Conceptual
 70
     9
177
     3
291
     0
 70
    58
 90
        3
176
     1
 90
        2
176
     1
 90
        0
176
     1
 90
        0
176
     1
 40
0.6
176
     1
 40
30.0
176
     1
 62
     7
420
 16777215
176
     1
 90
        2
176
     1
 90
        2
176
     1
 62
     7
176
     1
 62
   257
176
     1
 90
        1
176
     1
 90
        1
176
     1
 40
179.0
176
     1
 90
        8
176
     1
 62
     7
176
     1
 40
1.0
176
     1
 90
        1
176
     1
 90
        6
176
     1
 90
        2
176
     1
 62
     7
176
     1
 90
        3
176
     1
 90
        0
176
     1
 90
        0
176
     1
290
     0
176
     1
 90
        1
176
     1
 40
0.0
176
     1
 90
        0
176
     1
290
     0
176
     1
290
     1
176
     1
290
     1
176
     1
290
     0
176
     1
290
     0
176
     1
290
     0
176
     1
290
     0
176
     1
290
     0
176
     1
290
     0
176
     1
 90
       50
176
     1
 40
0.0
176
     1
 40
1.0
176
     1
 90
        0
176
     1
 62
    18
420
        0
176
     1
 90
       50
176
     1
 90
        3
176
     1
 62
     5
420
      255
176
     1
290
     0
176
     1
 90
       50
176
     1
 90
       50
176
     1
 90
       50
176
     1
290
     0
176
     1
 90
       50
176
     1
 62
   256
176
     0
 40
1.0
176
     0
 90
        2
176
     1
  1
strokes_ogs.tif
176
     1
290
     0
176
     1
 40
1.0
176
     1
 40
1.0
176
     1
  0
VISUALSTYLE
  5
701
102
{ACAD_REACTORS
330
6F6
102
}
330
6F6
100
AcDbVisualStyle
  2
Dim
 70
    11
177
     3
291
     1
 70
    58
 90
        2
176
     1
 90
        2
176
     1
 90
        0
176
     1
 90
        0
176
     1
 40
0.6
176
     1
 40
30.0
176
     1
 62
     7
420
 16777215
176
     1
 90
        1
176
     1
 90
        4
176
     1
 62
     7
176
     1
 62
   257
176
     1
 90
        1
176
     1
 90
        1
176
     1
 40
1.0
176
     1
 90
        8
176
     1
 62
     7
176
     1
 40
1.0
176
     1
 90
        1
176
     1
 90
        6
176
     1
 90
        2
176
     1
 62
     7
176
     1
 90
        5
176
     1
 90
        0
176
     1
 90
        0
176
     1
290
     0
176
     1
 90
        1
176
     1
 40
-50.0
176
     1
 90
        0
176
     1
290
     0
176
     1
290
     1
176
     1
290
     1
176
     1
290
     0
176
     1
290
     0
176
     1
290
     0
176
     1
290
     0
176
     1
290
     0
176
     1
290
     0
176
     1
 90
       50
176
     1
 40
0.0
176
     1
 40
1.0
176
     1
 90
        0
176
     1
 62
    18
420
        0
176
     1
 90
       50
176
     1
 90
        3
176
     1
 62
     5
420
      255
176
     1
290
     0
176
     1
 90
       50
176
     1
 90
       50
176
     1
 90
       50
176
     1
290
     0
176
     1
 90
       50
176
     1
 62
   256
176
     0
 40
1.0
176
     0
 90
        2
176
     1
  1
strokes_ogs.tif
176
     1
290
     0
176
     1
 40
1.0
176
     1
 40
1.0
176
     1
  0
VISUALSTYLE
  5
709
102
{ACAD_REACTORS
330
6F6
102
}
330
6F6
100
AcDbVisualStyle
  2
EdgeColorOff
 70
    22
177
     3
291
     1
 70
    58
 90
        2
176
     0
 90
        2
176
     0
 90
        0
176
     0
 90
        0
176
     0
 40
0.6
176
     0
 40
30.0
176
     0
 62
     7
420
 16777215
176
     0
 90
        1
176
     0
 90
        4
176
     0
 62
     7
176
     0
 62
   257
176
     0
 90
        1
176
     0
 90
        1
176
     0
 40
1.0
176
     0
 90
        8
176
     2
 62
     7
176
     0
 40
1.0
176
     0
 90
        1
176
     0
 90
        6
176
     0
 90
        2
176
     0
 62
     7
176
     0
 90
        5
176
     0
 90
        0
176
     0
 90
        0
176
     0
290
     0
176
     0
 90
        1
176
     0
 40
0.0
176
     0
 90
        0
176
     0
290
     0
176
     0
290
     1
176
     0
290
     1
176
     0
290
     0
176
     0
290
     0
176
     0
290
     0
176
     0
290
     0
176
     0
290
     0
176
     0
290
     0
176
     0
 90
       50
176
     0
 40
0.0
176
     0
 40
1.0
176
     0
 90
        0
176
     0
 62
    18
420
        0
176
     0
 90
       50
176
     0
 90
        3
176
     0
 62
     5
420
      255
176
     0
290
     0
176
     0
 90
       50
176
     0
 90
       50
176
     0
 90
       50
176
     0
290
     0
176
     0
 90
       50
176
     0
 62
   256
176
     0
 40
1.0
176
     0
 90
        2
176
     0
  1
strokes_ogs.tif
176
     0
290
     0
176
     0
 40
1.0
176
     0
 40
1.0
176
     0
  0
VISUALSTYLE
  5
705
102
{ACAD_REACTORS
330
6F6
102
}
330
6F6
100
AcDbVisualStyle
  2
Facepattern
 70
    15
177
     3
291
     1
 70
    58
 90
        2
176
     1
 90
        2
176
     1
 90
        0
176
     1
 90
        0
176
     1
 40
0.6
176
     1
 40
30.0
176
     1
 62
     7
420
 16777215
176
     1
 90
        1
176
     1
 90
        4
176
     1
 62
     7
176
     1
 62
   257
176
     1
 90
        1
176
     1
 90
        1
176
     1
 40
1.0
176
     1
 90
        8
176
     1
 62
     7
176
     1
 40
1.0
176
     1
 90
        1
176
     1
 90
        6
176
     1
 90
        2
176
     1
 62
     7
176
     1
 90
        5
176
     1
 90
        0
176
     1
 90
        0
176
     1
290
     0
176
     1
 90
        1
176
     1
 40
0.0
176
     1
 90
        0
176
     1
290
     0
176
     1
290
     1
176
     1
290
     1
176
     1
290
     0
176
     1
290
     0
176
     1
290
     0
176
     1
290
     0
176
     1
290
     0
176
     1
290
     0
176
     1
 90
       50
176
     1
 40
0.0
176
     1
 40
1.0
176
     1
 90
        0
176
     1
 62
    18
420
        0
176
     1
 90
       50
176
     1
 90
        3
176
     1
 62
     5
420
      255
176
     1
290
     0
176
     1
 90
       50
176
     1
 90
       50
176
     1
 90
       50
176
     1
290
     0
176
     1
 90
       50
176
     1
 62
   256
176
     0
 40
1.0
176
     0
 90
        2
176
     1
  1
strokes_ogs.tif
176
     1
290
     0
176
     1
 40
1.0
176
     1
 40
1.0
176
     1
  0
VISUALSTYLE
  5
6F7
102
{ACAD_REACTORS
330
6F6
102
}
330
6F6
100
AcDbVisualStyle
  2
Flat
 70
     0
177
     3
291
     1
 70
    58
 90
        2
176
     1
 90
        1
176
     1
 90
        1
176
     1
 90
        2
176
     1
 40
0.6
176
     1
 40
30.0
176
     1
 62
     7
420
 16777215
176
     1
 90
        0
176
     1
 90
        0
176
     1
 62
     7
176
     1
 62
   257
176
     1
 90
        1
176
     1
 90
        1
176
     1
 40
1.0
176
     1
 90
        8
176
     1
 62
     7
176
     1
 40
1.0
176
     1
 90
        1
176
     1
 90
        6
176
     1
 90
        2
176
     1
 62
     7
176
     1
 90
        5
176
     1
 90
        0
176
     1
 90
        0
176
     1
290
     0
176
     1
 90
       13
176
     1
 40
0.0
176
     1
 90
        0
176
     1
290
     0
176
     1
290
     1
176
     1
290
     1
176
     1
290
     0
176
     1
290
     0
176
     1
290
     0
176
     1
290
     0
176
     1
290
     0
176
     1
290
     0
176
     1
 90
       50
176
     1
 40
0.0
176
     1
 40
1.0
176
     1
 90
        0
176
     1
 62
    18
420
        0
176
     1
 90
       50
176
     1
 90
        3
176
     1
 62
     5
420
      255
176
     1
290
     0
176
     1
 90
       50
176
     1
 90
       50
176
     1
 90
       50
176
     1
290
     0
176
     1
 90
       50
176
     1
 62
   256
176
     0
 40
1.0
176
     0
 90
        2
176
     1
  1
strokes_ogs.tif
176
     1
290
     0
176
     1
 40
1.0
176
     1
 40
1.0
176
     1
  0
VISUALSTYLE
  5
6F8
102
{ACAD_REACTORS
330
6F6
102
}
330
6F6
100
AcDbVisualStyle
  2
FlatWithEdges
 70
     1
177
     3
291
     1
 70
    58
 90
        2
176
     1
 90
        1
176
     1
 90
        1
176
     1
 90
        2
176
     1
 40
0.6
176
     1
 40
30.0
176
     1
 62
     7
420
 16777215
176
     1
 90
        1
176
     1
 90
        0
176
     1
 62
     7
176
     1
 62
   257
176
     1
 90
        1
176
     1
 90
        1
176
     1
 40
1.0
176
     1
 90
        0
176
     1
 62
   257
176
     1
 40
1.0
176
     1
 90
        1
176
     1
 90
        6
176
     1
 90
        2
176
     1
 62
     7
176
     1
 90
        5
176
     1
 90
        0
176
     1
 90
        0
176
     1
290
     0
176
     1
 90
       13
176
     1
 40
0.0
176
     1
 90
        0
176
     1
290
     0
176
     1
290
     1
176
     1
290
     1
176
     1
290
     0
176
     1
290
     0
176
     1
290
     0
176
     1
290
     0
176
     1
290
     0
176
     1
290
     0
176
     1
 90
       50
176
     1
 40
0.0
176
     1
 40
1.0
176
     1
 90
        0
176
     1
 62
    18
420
        0
176
     1
 90
       50
176
     1
 90
        3
176
     1
 62
     5
420
      255
176
     1
290
     0
176
     1
 90
       50
176
     1
 90
       50
176
     1
 90
       50
176
     1
290
     0
176
     1
 90
       50
176
     1
 62
   256
176
     0
 40
1.0
176
     0
 90
        2
176
     1
  1
strokes_ogs.tif
176
     1
290
     0
176
     1
 40
1.0
176
     1
 40
1.0
176
     1
  0
VISUALSTYLE
  5
6F9
102
{ACAD_REACTORS
330
6F6
102
}
330
6F6
100
AcDbVisualStyle
  2
Gouraud
 70
     2
177
     3
291
     1
 70
    58
 90
        2
176
     1
 90
        2
176
     1
 90
        1
176
     1
 90
        2
176
     1
 40
0.6
176
     1
 40
30.0
176
     1
 62
     7
420
 16777215
176
     1
 90
        0
176
     1
 90
        0
176
     1
 62
     7
176
     1
 62
   257
176
     1
 90
        1
176
     1
 90
        1
176
     1
 40
1.0
176
     1
 90
        0
176
     1
 62
     7
176
     1
 40
1.0
176
     1
 90
        1
176
     1
 90
        6
176
     1
 90
        2
176
     1
 62
     7
176
     1
 90
        5
176
     1
 90
        0
176
     1
 90
        0
176
     1
290
     0
176
     1
 90
       13
176
     1
 40
0.0
176
     1
 90
        0
176
     1
290
     0
176
     1
290
     1
176
     1
290
     1
176
     1
290
     0
176
     1
290
     0
176
     1
290
     0
176
     1
290
     0
176
     1
290
     0
176
     1
290
     0
176
     1
 90
       50
176
     1
 40
0.0
176
     1
 40
1.0
176
     1
 90
        0
176
     1
 62
    18
420
        0
176
     1
 90
       50
176
     1
 90
        3
176
     1
 62
     5
420
      255
176
     1
290
     0
176
     1
 90
       50
176
     1
 90
       50
176
     1
 90
       50
176
     1
290
     0
176
     1
 90
       50
176
     1
 62
   256
176
     0
 40
1.0
176
     0
 90
        2
176
     1
  1
strokes_ogs.tif
176
     1
290
     0
176
     1
 40
1.0
176
     1
 40
1.0
176
     1
  0
VISUALSTYLE
  5
6FA
102
{ACAD_REACTORS
330
6F6
102
}
330
6F6
100
AcDbVisualStyle
  2
GouraudWithEdges
 70
     3
177
     3
291
     1
 70
    58
 90
        2
176
     1
 90
        2
176
     1
 90
        1
176
     1
 90
        2
176
     1
 40
0.6
176
     1
 40
30.0
176
     1
 62
     7
420
 16777215
176
     1
 90
        1
176
     1
 90
        0
176
     1
 62
     7
176
     1
 62
   257
176
     1
 90
        1
176
     1
 90
        1
176
     1
 40
1.0
176
     1
 90
        0
176
     1
 62
   257
176
     1
 40
1.0
176
     1
 90
        1
176
     1
 90
        6
176
     1
 90
        2
176
     1
 62
     7
176
     1
 90
        5
176
     1
 90
        0
176
     1
 90
        0
176
     1
290
     0
176
     1
 90
       13
176
     1
 40
0.0
176
     1
 90
        0
176
     1
290
     0
176
     1
290
     1
176
     1
290
     1
176
     1
290
     0
176
     1
290
     0
176
     1
290
     0
176
     1
290
     0
176
     1
290
     0
176
     1
290
     0
176
     1
 90
       50
176
     1
 40
0.0
176
     1
 40
1.0
176
     1
 90
        0
176
     1
 62
    18
420
        0
176
     1
 90
       50
176
     1
 90
        3
176
     1
 62
     5
420
      255
176
     1
290
     0
176
     1
 90
       50
176
     1
 90
       50
176
     1
 90
       50
176
     1
290
     0
176
     1
 90
       50
176
     1
 62
   256
176
     0
 40
1.0
176
     0
 90
        2
176
     1
  1
strokes_ogs.tif
176
     1
290
     0
176
     1
 40
1.0
176
     1
 40
1.0
176
     1
  0
VISUALSTYLE
  5
6FD
102
{ACAD_REACTORS
330
6F6
102
}
330
6F6
100
AcDbVisualStyle
  2
Hidden
 70
     6
177
     3
291
     0
 70
    58
 90
        1
176
     1
 90
        2
176
     1
 90
        2
176
     1
 90
        0
176
     1
 40
0.6
176
     1
 40
30.0
176
     1
 62
     7
420
 16777215
176
     1
 90
        2
176
     1
 90
        2
176
     1
 62
     7
176
     1
 62
   257
176
     1
 90
        2
176
     1
 90
        1
176
     1
 40
40.0
176
     1
 90
        0
176
     1
 62
   257
176
     1
 40
1.0
176
     1
 90
        1
176
     1
 90
        6
176
     1
 90
        2
176
     1
 62
     7
176
     1
 90
        3
176
     1
 90
        0
176
     1
 90
        0
176
     1
290
     0
176
     1
 90
        1
176
     1
 40
0.0
176
     1
 90
        0
176
     1
290
     0
176
     1
290
     1
176
     1
290
     1
176
     1
290
     0
176
     1
290
     0
176
     1
290
     0
176
     1
290
     0
176
     1
290
     0
176
     1
290
     0
176
     1
 90
       50
176
     1
 40
0.0
176
     1
 40
1.0
176
     1
 90
        0
176
     1
 62
    18
420
        0
176
     1
 90
       50
176
     1
 90
        3
176
     1
 62
     5
420
      255
176
     1
290
     0
176
     1
 90
       50
176
     1
 90
       50
176
     1
 90
       50
176
     1
290
     0
176
     1
 90
       50
176
     1
 62
   256
176
     0
 40
1.0
176
     0
 90
        2
176
     1
  1
strokes_ogs.tif
176
     1
290
     0
176
     1
 40
1.0
176
     1
 40
1.0
176
     1
  0
VISUALSTYLE
  5
707
102
{ACAD_REACTORS
330
6F6
102
}
330
6F6
100
AcDbVisualStyle
  2
JitterOff
 70
    20
177
     3
291
     1
 70
    58
 90
        2
176
     0
 90
        2
176
     0
 90
        0
176
     0
 90
        0
176
     0
 40
0.6
176
     0
 40
30.0
176
     0
 62
     7
420
 16777215
176
     0
 90
        1
176
     0
 90
        4
176
     0
 62
     7
176
     0
 62
   257
176
     0
 90
        1
176
     0
 90
        1
176
     0
 40
1.0
176
     0
 90
       10
176
     2
 62
     7
176
     0
 40
1.0
176
     0
 90
        1
176
     0
 90
        6
176
     0
 90
        2
176
     0
 62
     7
176
     0
 90
        5
176
     0
 90
        0
176
     0
 90
        0
176
     0
290
     0
176
     0
 90
        1
176
     0
 40
0.0
176
     0
 90
        0
176
     0
290
     0
176
     0
290
     1
176
     0
290
     1
176
     0
290
     0
176
     0
290
     0
176
     0
290
     0
176
     0
290
     0
176
     0
290
     0
176
     0
290
     0
176
     0
 90
       50
176
     0
 40
0.0
176
     0
 40
1.0
176
     0
 90
        0
176
     0
 62
    18
420
        0
176
     0
 90
       50
176
     0
 90
        3
176
     0
 62
     5
420
      255
176
     0
290
     0
176
     0
 90
       50
176
     0
 90
       50
176
     0
 90
       50
176
     0
290
     0
176
     0
 90
       50
176
     0
 62
   256
176
     0
 40
1.0
176
     0
 90
        2
176
     0
  1
strokes_ogs.tif
176
     0
290
     0
176
     0
 40
1.0
176
     0
 40
1.0
176
     0
  0
VISUALSTYLE
  5
704
102
{ACAD_REACTORS
330
6F6
102
}
330
6F6
100
AcDbVisualStyle
  2
Linepattern
 70
    14
177
     3
291
     1
 70
    58
 90
        2
176
     1
 90
        2
176
     1
 90
        0
176
     1
 90
        0
176
     1
 40
0.6
176
     1
 40
30.0
176
     1
 62
     7
420
 16777215
176
     1
 90
        1
176
     1
 90
        4
176
     1
 62
     7
176
     1
 62
   257
176
     1
 90
        7
176
     1
 90
        7
176
     1
 40
1.0
176
     1
 90
        8
176
     1
 62
     7
176
     1
 40
1.0
176
     1
 90
        1
176
     1
 90
        6
176
     1
 90
        2
176
     1
 62
     7
176
     1
 90
        5
176
     1
 90
        0
176
     1
 90
        0
176
     1
290
     0
176
     1
 90
        1
176
     1
 40
0.0
176
     1
 90
        0
176
     1
290
     0
176
     1
290
     1
176
     1
290
     1
176
     1
290
     0
176
     1
290
     0
176
     1
290
     0
176
     1
290
     0
176
     1
290
     0
176
     1
290
     0
176
     1
 90
       50
176
     1
 40
0.0
176
     1
 40
1.0
176
     1
 90
        0
176
     1
 62
    18
420
        0
176
     1
 90
       50
176
     1
 90
        3
176
     1
 62
     5
420
      255
176
     1
290
     0
176
     1
 90
       50
176
     1
 90
       50
176
     1
 90
       50
176
     1
290
     0
176
     1
 90
       50
176
     1
 62
   256
176
     0
 40
1.0
176
     0
 90
        2
176
     1
  1
strokes_ogs.tif
176
     1
290
     0
176
     1
 40
1.0
176
     1
 40
1.0
176
     1
  0
VISUALSTYLE
  5
708
102
{ACAD_REACTORS
330
6F6
102
}
330
6F6
100
AcDbVisualStyle
  2
OverhangOff
 70
    21
177
     3
291
     1
 70
    58
 90
        2
176
     0
 90
        2
176
     0
 90
        0
176
     0
 90
        0
176
     0
 40
0.6
176
     0
 40
30.0
176
     0
 62
     7
420
 16777215
176
     0
 90
        1
176
     0
 90
        4
176
     0
 62
     7
176
     0
 62
   257
176
     0
 90
        1
176
     0
 90
        1
176
     0
 40
1.0
176
     0
 90
        9
176
     2
 62
     7
176
     0
 40
1.0
176
     0
 90
        1
176
     0
 90
        6
176
     0
 90
        2
176
     0
 62
     7
176
     0
 90
        5
176
     0
 90
        0
176
     0
 90
        0
176
     0
290
     0
176
     0
 90
        1
176
     0
 40
0.0
176
     0
 90
        0
176
     0
290
     0
176
     0
290
     1
176
     0
290
     1
176
     0
290
     0
176
     0
290
     0
176
     0
290
     0
176
     0
290
     0
176
     0
290
     0
176
     0
290
     0
176
     0
 90
       50
176
     0
 40
0.0
176
     0
 40
1.0
176
     0
 90
        0
176
     0
 62
    18
420
        0
176
     0
 90
       50
176
     0
 90
        3
176
     0
 62
     5
420
      255
176
     0
290
     0
176
     0
 90
       50
176
     0
 90
       50
176
     0
 90
       50
176
     0
290
     0
176
     0
 90
       50
176
     0
 62
   256
176
     0
 40
1.0
176
     0
 90
        2
176
     0
  1
strokes_ogs.tif
176
     0
290
     0
176
     0
 40
1.0
176
     0
 40
1.0
176
     0
  0
VISUALSTYLE
  5
6FF
102
{ACAD_REACTORS
330
6F6
102
}
330
6F6
100
AcDbVisualStyle
  2
Realistic
 70
     8
177
     3
291
     0
 70
    58
 90
        2
176
     1
 90
        3
176
     1
 90
        0
176
     1
 90
        2
176
     1
 40
0.6
176
     1
 40
30.0
176
     1
 62
     7
420
 16777215
176
     1
 90
        0
176
     1
 90
        0
176
     1
 62
     7
176
     1
 62
   257
176
     1
 90
        1
176
     1
 90
        1
176
     1
 40
1.0
176
     1
 90
        8
176
     1
 62
   257
176
     1
 40
1.0
176
     1
 90
        1
176
     1
 90
        6
176
     1
 90
        2
176
     1
 62
     7
176
     1
 90
        3
176
     1
 90
        0
176
     1
 90
        0
176
     1
290
     0
176
     1
 90
       13
176
     1
 40
0.0
176
     1
 90
        0
176
     1
290
     0
176
     1
290
     1
176
     1
290
     1
176
     1
290
     0
176
     1
290
     0
176
     1
290
     0
176
     1
290
     0
176
     1
290
     0
176
     1
290
     0
176
     1
 90
       50
176
     1
 40
0.0
176
     1
 40
1.0
176
     1
 90
        0
176
     1
 62
    18
420
        0
176
     1
 90
       50
176
     1
 90
        3
176
     1
 62
     5
420
      255
176
     1
290
     0
176
     1
 90
       50
176
     1
 90
       50
176
     1
 90
       50
176
     1
290
     0
176
     1
 90
       50
176
     1
 62
   256
176
     0
 40
1.0
176
     0
 90
        2
176
     1
  1
strokes_ogs.tif
176
     1
290
     0
176
     1
 40
1.0
176
     1
 40
1.0
176
     1
  0
VISUALSTYLE
  5
70E
102
{ACAD_REACTORS
330
6F6
102
}
330
6F6
100
AcDbVisualStyle
  2
Shaded
 70
    27
177
     3
291
     0
 70
    58
 90
        2
176
     1
 90
        2
176
     1
 90
        1
176
     1
 90
        2
176
     1
 40
0.6
176
     1
 40
30.0
176
     1
 62
     7
420
 16777215
176
     1
 90
        0
176
     1
 90
        4
176
     1
 62
     7
176
     1
 62
   257
176
     1
 90
        1
176
     1
 90
        1
176
     1
 40
1.0
176
     1
 90
        8
176
     1
 62
   257
176
     1
 40
1.0
176
     1
 90
        1
176
     1
 90
        6
176
     1
 90
        2
176
     1
 62
     8
420
  7895160
176
     1
 90
        3
176
     1
 90
        0
176
     1
 90
        0
176
     1
290
     0
176
     1
 90
        5
176
     1
 40
0.0
176
     1
 90
        0
176
     1
290
     0
176
     1
290
     1
176
     1
290
     1
176
     1
290
     0
176
     1
290
     0
176
     1
290
     0
176
     1
290
     0
176
     1
290
     0
176
     1
290
     0
176
     1
 90
       50
176
     1
 40
0.0
176
     1
 40
1.0
176
     1
 90
        0
176
     1
 62
    18
420
        0
176
     1
 90
       50
176
     1
 90
        3
176
     1
 62
     5
420
      255
176
     1
290
     0
176
     1
 90
       50
176
     1
 90
       50
176
     1
 90
       50
176
     1
290
     0
176
     1
 90
       50
176
     1
 62
   256
176
     0
 40
1.0
176
     0
 90
        2
176
     1
  1
strokes_ogs.tif
176
     1
290
     0
176
     1
 40
1.0
176
     1
 40
1.0
176
     1
  0
VISUALSTYLE
  5
70D
102
{ACAD_REACTORS
330
6F6
102
}
330
6F6
100
AcDbVisualStyle
  2
Shaded with edges
 70
    26
177
     3
291
     0
 70
    58
 90
        2
176
     1
 90
        2
176
     1
 90
        1
176
     1
 90
        2
176
     1
 40
0.6
176
     1
 40
30.0
176
     1
 62
     7
420
 16777215
176
     1
 90
        1
176
     1
 90
       10
176
     1
 62
     7
176
     1
 62
   257
176
     1
 90
        2
176
     1
 90
        1
176
     1
 40
1.0
176
     1
 90
        8
176
     1
 62
   257
176
     1
 40
1.0
176
     1
 90
        1
176
     1
 90
        6
176
     1
 90
        2
176
     1
 62
     7
176
     1
 90
        3
176
     1
 90
        0
176
     1
 90
        0
176
     1
290
     0
176
     1
 90
        5
176
     1
 40
0.0
176
     1
 90
        0
176
     1
290
     0
176
     1
290
     1
176
     1
290
     1
176
     1
290
     0
176
     1
290
     0
176
     1
290
     0
176
     1
290
     0
176
     1
290
     0
176
     1
290
     0
176
     1
 90
       50
176
     1
 40
0.0
176
     1
 40
1.0
176
     1
 90
        0
176
     1
 62
    18
420
        0
176
     1
 90
       50
176
     1
 90
        3
176
     1
 62
     5
420
      255
176
     1
290
     0
176
     1
 90
       50
176
     1
 90
       50
176
     1
 90
       50
176
     1
290
     0
176
     1
 90
       50
176
     1
 62
   256
176
     0
 40
1.0
176
     0
 90
        2
176
     1
  1
strokes_ogs.tif
176
     1
290
     0
176
     1
 40
1.0
176
     1
 40
1.0
176
     1
  0
VISUALSTYLE
  5
70A
102
{ACAD_REACTORS
330
6F6
102
}
330
6F6
100
AcDbVisualStyle
  2
Shades of Gray
 70
    23
177
     3
291
     0
 70
    58
 90
        2
176
     1
 90
        2
176
     1
 90
        3
176
     1
 90
        0
176
     1
 40
0.6
176
     1
 40
30.0
176
     1
 62
     7
420
 16777215
176
     1
 90
        2
176
     1
 90
        2
176
     1
 62
     7
176
     1
 62
     7
176
     1
 90
        1
176
     1
 90
        1
176
     1
 40
40.0
176
     1
 90
        8
176
     1
 62
     7
176
     1
 40
1.0
176
     1
 90
        1
176
     1
 90
        6
176
     1
 90
        2
176
     1
 62
     7
176
     1
 90
        3
176
     1
 90
        0
176
     1
 90
        0
176
     1
290
     0
176
     1
 90
        1
176
     1
 40
0.0
176
     1
 90
        0
176
     1
290
     0
176
     1
290
     1
176
     1
290
     1
176
     1
290
     0
176
     1
290
     0
176
     1
290
     0
176
     1
290
     0
176
     1
290
     0
176
     1
290
     0
176
     1
 90
       50
176
     1
 40
0.0
176
     1
 40
1.0
176
     1
 90
        0
176
     1
 62
    18
420
        0
176
     1
 90
       50
176
     1
 90
        3
176
     1
 62
     5
420
      255
176
     1
290
     0
176
     1
 90
       50
176
     1
 90
       50
176
     1
 90
       50
176
     1
290
     0
176
     1
 90
       50
176
     1
 62
   256
176
     0
 40
1.0
176
     0
 90
        2
176
     1
  1
strokes_ogs.tif
176
     1
290
     0
176
     1
 40
1.0
176
     1
 40
1.0
176
     1
  0
VISUALSTYLE
  5
70B
102
{ACAD_REACTORS
330
6F6
102
}
330
6F6
100
AcDbVisualStyle
  2
Sketchy
 70
    24
177
     3
291
     0
 70
    58
 90
        1
176
     1
 90
        2
176
     1
 90
        2
176
     1
 90
        0
176
     1
 40
0.6
176
     1
 40
30.0
176
     1
 62
     7
420
 16777215
176
     1
 90
        2
176
     1
 90
        2
176
     1
 62
     7
176
     1
 62
     7
176
     1
 90
        1
176
     1
 90
        1
176
     1
 40
40.0
176
     1
 90
       11
176
     1
 62
     7
176
     1
 40
1.0
176
     1
 90
        1
176
     1
 90
        6
176
     1
 90
        2
176
     1
 62
     7
176
     1
 90
        6
176
     1
 90
        0
176
     1
 90
        0
176
     1
290
     0
176
     1
 90
        1
176
     1
 40
0.0
176
     1
 90
        0
176
     1
290
     0
176
     1
290
     1
176
     1
290
     1
176
     1
290
     0
176
     1
290
     0
176
     1
290
     0
176
     1
290
     0
176
     1
290
     0
176
     1
290
     0
176
     1
 90
       50
176
     1
 40
0.0
176
     1
 40
1.0
176
     1
 90
        0
176
     1
 62
    18
420
        0
176
     1
 90
       50
176
     1
 90
        3
176
     1
 62
     5
420
      255
176
     1
290
     0
176
     1
 90
       50
176
     1
 90
       50
176
     1
 90
       50
176
     1
290
     0
176
     1
 90
       50
176
     1
 62
   256
176
     0
 40
1.0
176
     0
 90
        2
176
     1
  1
strokes_ogs.tif
176
     1
290
     0
176
     1
 40
1.0
176
     1
 40
1.0
176
     1
  0
VISUALSTYLE
  5
703
102
{ACAD_REACTORS
330
6F6
102
}
330
6F6
100
AcDbVisualStyle
  2
Thicken
 70
    13
177
     3
291
     1
 70
    58
 90
        2
176
     1
 90
        2
176
     1
 90
        0
176
     1
 90
        0
176
     1
 40
0.6
176
     1
 40
30.0
176
     1
 62
     7
420
 16777215
176
     1
 90
        1
176
     1
 90
        4
176
     1
 62
     7
176
     1
 62
   257
176
     1
 90
        1
176
     1
 90
        1
176
     1
 40
1.0
176
     1
 90
       12
176
     1
 62
     7
176
     1
 40
1.0
176
     1
 90
        1
176
     1
 90
        6
176
     1
 90
        2
176
     1
 62
     7
176
     1
 90
        5
176
     1
 90
        0
176
     1
 90
        0
176
     1
290
     0
176
     1
 90
        1
176
     1
 40
0.0
176
     1
 90
        0
176
     1
290
     0
176
     1
290
     1
176
     1
290
     1
176
     1
290
     0
176
     1
290
     0
176
     1
290
     0
176
     1
290
     0
176
     1
290
     0
176
     1
290
     0
176
     1
 90
       50
176
     1
 40
0.0
176
     1
 40
1.0
176
     1
 90
        0
176
     1
 62
    18
420
        0
176
     1
 90
       50
176
     1
 90
        3
176
     1
 62
     5
420
      255
176
     1
290
     0
176
     1
 90
       50
176
     1
 90
       50
176
     1
 90
       50
176
     1
290
     0
176
     1
 90
       50
176
     1
 62
   256
176
     0
 40
1.0
176
     0
 90
        2
176
     1
  1
strokes_ogs.tif
176
     1
290
     0
176
     1
 40
1.0
176
     1
 40
1.0
176
     1
  0
VISUALSTYLE
  5
6FC
102
{ACAD_REACTORS
330
6F6
102
}
330
6F6
100
AcDbVisualStyle
  2
Wireframe
 70
     5
177
     3
291
     0
 70
    58
 90
        0
176
     1
 90
        2
176
     1
 90
        0
176
     1
 90
        0
176
     1
 40
0.6
176
     1
 40
30.0
176
     1
 62
     7
420
 16777215
176
     1
 90
        1
176
     1
 90
        4
176
     1
 62
     7
176
     1
 62
   257
176
     1
 90
        1
176
     1
 90
        1
176
     1
 40
1.0
176
     1
 90
        0
176
     1
 62
   257
176
     1
 40
1.0
176
     1
 90
        1
176
     1
 90
        6
176
     1
 90
        2
176
     1
 62
     7
176
     1
 90
        3
176
     1
 90
        0
176
     1
 90
        0
176
     1
290
     0
176
     1
 90
        1
176
     1
 40
0.0
176
     1
 90
        0
176
     1
290
     0
176
     1
290
     1
176
     1
290
     1
176
     1
290
     0
176
     1
290
     0
176
     1
290
     0
176
     1
290
     0
176
     1
290
     0
176
     1
290
     0
176
     1
 90
       50
176
     1
 40
0.0
176
     1
 40
1.0
176
     1
 90
        0
176
     1
 62
    18
420
        0
176
     1
 90
       50
176
     1
 90
        3
176
     1
 62
     5
420
      255
176
     1
290
     0
176
     1
 90
       50
176
     1
 90
       50
176
     1
 90
       50
176
     1
290
     0
176
     1
 90
       50
176
     1
 62
   256
176
     0
 40
1.0
176
     0
 90
        2
176
     1
  1
strokes_ogs.tif
176
     1
290
     0
176
     1
 40
1.0
176
     1
 40
1.0
176
     1
  0
VISUALSTYLE
  5
70C
102
{ACAD_REACTORS
330
6F6
102
}
330
6F6
100
AcDbVisualStyle
  2
X-Ray
 70
    25
177
     3
291
     0
 70
    58
 90
        2
176
     1
 90
        2
176
     1
 90
        1
176
     1
 90
        1
176
     1
 40
0.5
176
     1
 40
30.0
176
     1
 62
     7
420
 16777215
176
     1
 90
        1
176
     1
 90
        0
176
     1
 62
     7
176
     1
 62
   257
176
     1
 90
        1
176
     1
 90
        1
176
     1
 40
1.0
176
     1
 90
        8
176
     1
 62
     7
176
     1
 40
1.0
176
     1
 90
        1
176
     1
 90
        6
176
     1
 90
        2
176
     1
 62
     7
176
     1
 90
        3
176
     1
 90
        0
176
     1
 90
        0
176
     1
290
     0
176
     1
 90
       13
176
     1
 40
0.0
176
     1
 90
        0
176
     1
290
     0
176
     1
290
     1
176
     1
290
     1
176
     1
290
     0
176
     1
290
     0
176
     1
290
     0
176
     1
290
     0
176
     1
290
     0
176
     1
290
     0
176
     1
 90
       50
176
     1
 40
0.0
176
     1
 40
1.0
176
     1
 90
        0
176
     1
 62
    18
420
        0
176
     1
 90
       50
176
     1
 90
        3
176
     1
 62
     5
420
      255
176
     1
290
     0
176
     1
 90
       50
176
     1
 90
       50
176
     1
 90
       50
176
     1
290
     0
176
     1
 90
       50
176
     1
 62
   256
176
     0
 40
1.0
176
     0
 90
        2
176
     1
  1
strokes_ogs.tif
176
     1
290
     0
176
     1
 40
1.0
176
     1
 40
1.0
176
     1
  0
DICTIONARYVAR
  5
718
102
{ACAD_REACTORS
330
717
102
}
330
717
100
DictionaryVariables
280
     0
  1
1:1
  0
DICTIONARYVAR
  5
71D
102
{ACAD_REACTORS
330
717
102
}
330
717
100
DictionaryVariables
280
     0
  1
Standard
  0
DICTIONARYVAR
  5
71C
102
{ACAD_REACTORS
330
717
102
}
330
717
100
DictionaryVariables
280
     0
  1
Standard
  0
DICTIONARYVAR
  5
71E
102
{ACAD_REACTORS
330
717
102
}
330
717
100
DictionaryVariables
280
     0
  1
0
  0
DICTIONARYVAR
  5
727
330
726
100
DictionaryVariables
280
     0
  1
1.3.4 @ 2025-10-02T13:19:45.685147+00:00
  0
DICTIONARY
  5
7E8
330
714
100
AcDbDictionary
280
     1
281
     1
  3
ACAD_ROUNDTRIP_2008_TABLESTYLE_CELLSTYLEMAP
360
7E9
  0
CELLSTYLEMAP
  5
7E9
102
{ACAD_REACTORS
330
7E8
102
}
330
7E8
100
AcDbCellStyleMap
 90
        3
300
CELLSTYLE
  1
TABLEFORMAT_BEGIN
 90
        5
170
     1
 91
        0
 92
    32768
 62
   257
 93
        1
300
CONTENTFORMAT
  1
CONTENTFORMAT_BEGIN
 90
        0
 91
        0
 92
        4
 93
        0
300

 40
0.0
140
1.0
 94
        5
 62
     0
340
11
144
6.0
309
CONTENTFORMAT_END
171
     1
301
MARGIN
  1
CELLMARGIN_BEGIN
 40
1.5
 40
1.5
 40
1.5
 40
1.5
 40
1.5
 40
1.5
309
CELLMARGIN_END
 94
        6
 95
        1
302
GRIDFORMAT
  1
GRIDFORMAT_BEGIN
 90
        0
 91
        1
 62
     0
 92
       -2
340
14
 93
        0
 40
0.045
309
GRIDFORMAT_END
 95
        2
302
GRIDFORMAT
  1
GRIDFORMAT_BEGIN
 90
        0
 91
        1
 62
     0
 92
       -2
340
14
 93
        0
 40
0.045
309
GRIDFORMAT_END
 95
        4
302
GRIDFORMAT
  1
GRIDFORMAT_BEGIN
 90
        0
 91
        1
 62
     0
 92
       -2
340
14
 93
        0
 40
0.045
309
GRIDFORMAT_END
 95
        8
302
GRIDFORMAT
  1
GRIDFORMAT_BEGIN
 90
        0
 91
        1
 62
     0
 92
       -2
340
14
 93
        0
 40
0.045
309
GRIDFORMAT_END
 95
       16
302
GRIDFORMAT
  1
GRIDFORMAT_BEGIN
 90
        0
 91
        1
 62
     0
 92
       -2
340
14
 93
        0
 40
0.045
309
GRIDFORMAT_END
 95
       32
302
GRIDFORMAT
  1
GRIDFORMAT_BEGIN
 90
        0
 91
        1
 62
     0
 92
       -2
340
14
 93
        0
 40
0.045
309
GRIDFORMAT_END
309
TABLEFORMAT_END
  1
CELLSTYLE_BEGIN
 90
        1
 91
        1
300
_TITLE
309
CELLSTYLE_END
300
CELLSTYLE
  1
TABLEFORMAT_BEGIN
 90
        5
170
     1
 91
        0
 92
        0
 62
   257
 93
        1
300
CONTENTFORMAT
  1
CONTENTFORMAT_BEGIN
 90
        0
 91
        0
 92
        4
 93
        0
300

 40
0.0
140
1.0
 94
        5
 62
     0
340
11
144
4.5
309
CONTENTFORMAT_END
171
     1
301
MARGIN
  1
CELLMARGIN_BEGIN
 40
1.5
 40
1.5
 40
1.5
 40
1.5
 40
1.5
 40
1.5
309
CELLMARGIN_END
 94
        6
 95
        1
302
GRIDFORMAT
  1
GRIDFORMAT_BEGIN
 90
        0
 91
        1
 62
     0
 92
       -2
340
14
 93
        0
 40
0.045
309
GRIDFORMAT_END
 95
        2
302
GRIDFORMAT
  1
GRIDFORMAT_BEGIN
 90
        0
 91
        1
 62
     0
 92
       -2
340
14
 93
        0
 40
0.045
309
GRIDFORMAT_END
 95
        4
302
GRIDFORMAT
  1
GRIDFORMAT_BEGIN
 90
        0
 91
        1
 62
     0
 92
       -2
340
14
 93
        0
 40
0.045
309
GRIDFORMAT_END
 95
        8
302
GRIDFORMAT
  1
GRIDFORMAT_BEGIN
 90
        0
 91
        1
 62
     0
 92
       -2
340
14
 93
        0
 40
0.045
309
GRIDFORMAT_END
 95
       16
302
GRIDFORMAT
  1
GRIDFORMAT_BEGIN
 90
        0
 91
        1
 62
     0
 92
       -2
340
14
 93
        0
 40
0.045
309
GRIDFORMAT_END
 95
       32
302
GRIDFORMAT
  1
GRIDFORMAT_BEGIN
 90
        0
 91
        1
 62
     0
 92
       -2
340
14
 93
        0
 40
0.045
309
GRIDFORMAT_END
309
TABLEFORMAT_END
  1
CELLSTYLE_BEGIN
 90
        2
 91
        1
300
_HEADER
309
CELLSTYLE_END
300
CELLSTYLE
  1
TABLEFORMAT_BEGIN
 90
        5
170
     1
 91
        0
 92
        0
 62
   257
 93
        1
300
CONTENTFORMAT
  1
CONTENTFORMAT_BEGIN
 90
        0
 91
        0
 92
        4
 93
        0
300

 40
0.0
140
1.0
 94
        2
 62
     0
340
11
144
4.5
309
CONTENTFORMAT_END
171
     1
301
MARGIN
  1
CELLMARGIN_BEGIN
 40
1.5
 40
1.5
 40
1.5
 40
1.5
 40
1.5
 40
1.5
309
CELLMARGIN_END
 94
        6
 95
        1
302
GRIDFORMAT
  1
GRIDFORMAT_BEGIN
 90
        0
 91
        1
 62
     0
 92
       -2
340
14
 93
        0
 40
0.045
309
GRIDFORMAT_END
 95
        2
302
GRIDFORMAT
  1
GRIDFORMAT_BEGIN
 90
        0
 91
        1
 62
     0
 92
       -2
340
14
 93
        0
 40
0.045
309
GRIDFORMAT_END
 95
        4
302
GRIDFORMAT
  1
GRIDFORMAT_BEGIN
 90
        0
 91
        1
 62
     0
 92
       -2
340
14
 93
        0
 40
0.045
309
GRIDFORMAT_END
 95
        8
302
GRIDFORMAT
  1
GRIDFORMAT_BEGIN
 90
        0
 91
        1
 62
     0
 92
       -2
340
14
 93
        0
 40
0.045
309
GRIDFORMAT_END
 95
       16
302
GRIDFORMAT
  1
GRIDFORMAT_BEGIN
 90
        0
 91
        1
 62
     0
 92
       -2
340
14
 93
        0
 40
0.045
309
GRIDFORMAT_END
 95
       32
302
GRIDFORMAT
  1
GRIDFORMAT_BEGIN
 90
        0
 91
        1
 62
     0
 92
       -2
340
14
 93
        0
 40
0.045
309
GRIDFORMAT_END
309
TABLEFORMAT_END
  1
CELLSTYLE_BEGIN
 90
        3
 91
        2
300
_DATA
309
CELLSTYLE_END
  0
ENDSEC
  0
EOF
